<svg width="68" height="152" viewBox="0 0 68 152" fill="none" xmlns="http://www.w3.org/2000/svg">
<path d="M67.6675 70.5512C62.3409 40.1157 41.083 40.9611 41.083 40.9611C31.8698 40.2075 22.6014 41.1432 13.697 43.7257C20.7722 22.7844 14.3446 16.1308 6.71898 8.21759C4.40238 5.79177 2.26203 3.1891 0.315699 0.431172L0 0V152L0.550466 149.988C8.42706 123.281 35.6187 118.648 35.6187 118.648C10.5237 113.085 8.68613 89.5396 8.68613 89.5396C8.68613 57.168 32.2188 51.5628 43.2768 61.0486C54.3348 70.5343 51.2829 90.199 35.6187 78.4222C20.8774 67.3386 21.1203 83.4947 21.2013 88.711C21.2013 89.0323 21.2013 89.3113 21.2013 89.5565C21.2013 93.4877 27.1512 101.215 41.8763 99.3466C72.897 95.4069 67.6675 70.5512 67.6675 70.5512Z" fill="#DFEAEB"/>
</svg>
