<svg width="12" height="20" viewBox="0 0 12 20" fill="none" xmlns="http://www.w3.org/2000/svg">
<path d="M1.82294 7.96011C0.817515 7.96011 0 7.21289 0 6.2911C0 5.36932 0.737955 4.74492 1.81802 4.39548C2.58213 4.14822 3.03286 3.72645 3.36938 3.19552C3.70589 2.66459 4.44755 1.84041 5.4252 1.84041C5.81842 1.84041 6.76006 1.84041 6.76006 1.84041V0.789551C13.9744 3.26401 11.6395 12.1635 11.6395 12.1635H10.1987V13.029H10.6281C10.926 13.029 11.21 13.2504 11.21 13.5235V13.5853C11.21 13.7886 11.0548 13.9631 10.8635 14.0391C11.4548 14.9694 10.9592 15.8796 10.8122 16.1197H11.1676C11.4654 16.1197 11.7495 16.3411 11.7495 16.6142L11.7495 17.7269C11.7495 18 11.4798 18.2214 11.2101 18.2214V19.2105H2.31015V18.2172C2.04045 18.1867 1.83818 17.979 1.83818 17.7269L1.83818 16.6142C1.83818 16.3411 2.03715 16.1197 2.33503 16.1197H2.62292C2.47587 15.8796 2.02272 14.9694 2.61416 14.0391C2.42281 13.9631 2.31021 13.7886 2.31021 13.5853V13.5235C2.31021 13.2504 2.50918 13.029 2.80706 13.029H3.32157V12.1635H1.6945C2.80706 8.82553 6.167 7.03289 6.167 7.03289H3.45777C3.15834 7.58236 2.5377 7.96011 1.82294 7.96011Z" fill="#028C97"/>
</svg>
