<svg width="50" height="50" viewBox="0 0 50 50" fill="none" xmlns="http://www.w3.org/2000/svg">
<path d="M23.6492 24.9995V35.8103C23.6492 38.3812 21.5111 40.5401 18.9194 40.5401H8.10864C7.5763 40.5401 7.04491 40.309 6.75728 39.8644C4.66742 36.6425 3.37891 34.2245 3.37891 29.7293C3.37891 26.8062 4.28455 24.2543 5.40593 21.6211C8.91859 13.2378 13.6738 9.47421 22.2978 9.45898C23.0445 9.45898 23.5022 10.0849 23.6492 10.8103C23.7961 11.5373 23.6634 11.8764 22.9735 12.1617C18.8395 13.8707 17.6718 16.0902 16.2167 20.2698H18.9194C21.5111 20.2698 23.6492 22.4287 23.6492 24.9995ZM42.5681 20.2698H39.1897C40.6446 16.0902 42.4883 13.8705 46.6222 12.1617C47.3121 11.8764 47.4448 11.5373 47.2978 10.8103C47.151 10.0847 46.6931 9.45898 45.9465 9.45898C37.3224 9.47421 31.8916 13.2378 28.3789 21.6211C27.2577 24.2543 27.0276 26.8062 27.0276 29.7293C27.0276 34.2245 28.3161 36.6425 30.4059 39.8644C30.6936 40.309 31.225 40.5401 31.7573 40.5401H42.5681C45.1597 40.5401 47.2978 38.3812 47.2978 35.8103V24.9995C47.2978 22.4287 45.1597 20.2698 42.5681 20.2698Z" fill="#F7F7F7" fill-opacity="0.2"/>
</svg>
