<svg width="45" height="32" viewBox="0 0 45 32" fill="none" xmlns="http://www.w3.org/2000/svg">
<path d="M20.6492 15.9995V26.8103C20.6492 29.3812 18.5111 31.5401 15.9194 31.5401H5.10864C4.5763 31.5401 4.04491 31.309 3.75728 30.8644C1.66742 27.6425 0.378906 25.2245 0.378906 20.7293C0.378906 17.8062 1.28455 15.2543 2.40593 12.6211C5.91859 4.2378 10.6738 0.474214 19.2978 0.458984C20.0445 0.458984 20.5022 1.0849 20.6492 1.81034C20.7961 2.53732 20.6634 2.87636 19.9735 3.16169C15.8395 4.87068 14.6718 7.09017 13.2167 11.2698H15.9194C18.5111 11.2698 20.6492 13.4287 20.6492 15.9995ZM39.5681 11.2698H36.1897C37.6446 7.09017 39.4883 4.87052 43.6222 3.16169C44.3121 2.87636 44.4448 2.53732 44.2978 1.81034C44.151 1.08475 43.6931 0.458984 42.9465 0.458984C34.3224 0.474214 28.8916 4.2378 25.3789 12.6211C24.2577 15.2543 24.0276 17.8062 24.0276 20.7293C24.0276 25.2245 25.3161 27.6425 27.4059 30.8644C27.6936 31.309 28.225 31.5401 28.7573 31.5401H39.5681C42.1597 31.5401 44.2978 29.3812 44.2978 26.8103V15.9995C44.2978 13.4287 42.1597 11.2698 39.5681 11.2698Z" fill="#178B93"/>
</svg>
