<svg width="16" height="16" viewBox="0 0 16 16" fill="none" xmlns="http://www.w3.org/2000/svg">
<path fill-rule="evenodd" clip-rule="evenodd" d="M14.851 2.45104C14.9366 2.36563 15.0044 2.26421 15.0507 2.15258C15.0971 2.04094 15.1209 1.92127 15.121 1.80041C15.1211 1.67954 15.0974 1.55985 15.0512 1.44815C15.005 1.33646 14.9373 1.23496 14.8518 1.14944C14.7664 1.06393 14.665 0.996069 14.5534 0.949747C14.4417 0.903426 14.3221 0.879546 14.2012 0.879472C14.0803 0.879398 13.9606 0.90313 13.849 0.949314C13.7373 0.995499 13.6358 1.06323 13.5502 1.14864L7.99984 6.69904L2.45104 1.14864C2.27833 0.975933 2.04409 0.878906 1.79984 0.878906C1.55559 0.878906 1.32135 0.975933 1.14864 1.14864C0.975933 1.32135 0.878906 1.55559 0.878906 1.79984C0.878906 2.04409 0.975933 2.27833 1.14864 2.45104L6.69904 7.99984L1.14864 13.5486C1.06313 13.6342 0.99529 13.7357 0.949008 13.8474C0.902727 13.9591 0.878906 14.0789 0.878906 14.1998C0.878906 14.3208 0.902727 14.4405 0.949008 14.5523C0.99529 14.664 1.06313 14.7655 1.14864 14.851C1.32135 15.0237 1.55559 15.1208 1.79984 15.1208C1.92078 15.1208 2.04054 15.097 2.15227 15.0507C2.264 15.0044 2.36553 14.9366 2.45104 14.851L7.99984 9.30064L13.5502 14.851C13.723 15.0235 13.9571 15.1204 14.2012 15.1202C14.4453 15.1201 14.6793 15.0229 14.8518 14.8502C15.0243 14.6775 15.1212 14.4434 15.121 14.1993C15.1209 13.9552 15.0238 13.7211 14.851 13.5486L9.30064 7.99984L14.851 2.45104Z" fill="#D9D8D8"/>
</svg>
