<svg width="36" height="36" viewBox="0 0 36 36" fill="none" xmlns="http://www.w3.org/2000/svg">
<g clip-path="url(#clip0_431_11733)">
<g clip-path="url(#clip1_431_11733)">
<path d="M36 18C36 8.05887 27.9411 0 18 0C8.05887 0 0 8.05887 0 18C0 27.9411 8.05887 36 18 36C27.9411 36 36 27.9411 36 18Z" fill="#F5F5F6"/>
<path d="M27 13C27 12.0375 25.9349 11 25 11H12C11.065 11 10 12.0375 10 13V23C10 23.9624 11.065 25 12 25H25C25.9349 25 27 23.9624 27 23V13ZM25 13L19 17L12 13H25ZM25 23H12V15L19 19L25 15V23Z" fill="#018A93"/>
<path d="M25.0555 13.0832L25.3303 12.9H25H12H11.6234L11.9504 13.0868L18.9504 17.0868L19.004 17.1175L19.0555 17.0832L25.0555 13.0832ZM25 23.1H25.1V23V15V14.8131L24.9445 14.9168L18.996 18.8825L12.0496 14.9132L11.9 14.8277V15V23V23.1H12H25ZM25 11.1C25.4329 11.1 25.909 11.3423 26.2802 11.7101C26.6513 12.0778 26.9 12.5537 26.9 13V23C26.9 23.4462 26.6513 23.9221 26.2802 24.2899C25.909 24.6577 25.4329 24.9 25 24.9H12C11.5671 24.9 11.0909 24.6577 10.7198 24.2899C10.3487 23.9221 10.1 23.4462 10.1 23V13C10.1 12.5537 10.3487 12.0778 10.7198 11.7101C11.0909 11.3423 11.5671 11.1 12 11.1H25Z" stroke="#F5F5F6" stroke-width="0.2"/>
</g>
</g>
<defs>
<clipPath id="clip0_431_11733">
<rect width="36" height="36" fill="white"/>
</clipPath>
<clipPath id="clip1_431_11733">
<rect width="36" height="36" fill="white"/>
</clipPath>
</defs>
</svg>
