<svg width="20" height="20" viewBox="0 0 20 20" fill="none" xmlns="http://www.w3.org/2000/svg">
<path d="M13.9813 8.9325C13.9813 7.54292 13.4871 6.35417 12.4988 5.36625C11.5104 4.37834 10.3217 3.88459 8.9325 3.885C7.54333 3.88542 6.35458 4.37917 5.36625 5.36625C4.37792 6.35334 3.88417 7.54209 3.885 8.9325C3.88583 10.3229 4.37958 11.5117 5.36625 12.4988C6.35292 13.4858 7.54167 13.9796 8.9325 13.98C10.3233 13.9804 11.5121 13.4867 12.4988 12.4988C13.4854 11.5108 13.9796 10.3221 13.9813 8.9325ZM19.75 18.3075C19.75 18.6979 19.6073 19.036 19.3219 19.3219C19.0365 19.6077 18.6983 19.7504 18.3075 19.75C17.9021 19.75 17.5642 19.6073 17.2938 19.3219L13.4288 15.4681C12.0842 16.3994 10.5854 16.865 8.9325 16.865C7.85833 16.865 6.83125 16.6567 5.85125 16.24C4.87125 15.8233 4.02604 15.2598 3.31562 14.5494C2.60521 13.839 2.04167 12.994 1.625 12.0144C1.20833 11.0348 1 10.0075 1 8.9325C1 7.8575 1.20833 6.83042 1.625 5.85125C2.04167 4.87209 2.60521 4.02688 3.31562 3.31563C4.02604 2.60438 4.87083 2.04084 5.85 1.625C6.82917 1.20917 7.85646 1.00084 8.93188 1C10.0073 0.999169 11.0346 1.2075 12.0138 1.625C12.9929 2.0425 13.8381 2.60604 14.5494 3.31563C15.2606 4.02521 15.824 4.87021 16.2394 5.85063C16.6548 6.83104 16.8631 7.85834 16.8644 8.9325C16.8644 10.585 16.3988 12.0838 15.4675 13.4288L19.3325 17.2931C19.6108 17.571 19.75 17.9092 19.75 18.3075Z" fill="#E7E3E0"/>
</svg>
