<svg width="24" height="24" viewBox="0 0 24 24" fill="none" xmlns="http://www.w3.org/2000/svg">
<g clip-path="url(#clip0_39_5531)">
<path d="M11.9984 23.6004C18.4049 23.6004 23.5984 18.4069 23.5984 12.0004C23.5984 5.59389 18.4049 0.400391 11.9984 0.400391C5.59193 0.400391 0.398438 5.59389 0.398438 12.0004C0.398438 18.4069 5.59193 23.6004 11.9984 23.6004Z" fill="#008189"/>
<path d="M9.70671 16.8275L6.98671 14.1707C6.92787 14.1136 6.88111 14.0451 6.84917 13.9696C6.81724 13.894 6.80078 13.8128 6.80078 13.7307C6.80078 13.6487 6.81724 13.5675 6.84917 13.4919C6.88111 13.4163 6.92787 13.3479 6.98671 13.2907L7.88871 12.4107C8.00967 12.2935 8.17148 12.228 8.33991 12.228C8.50833 12.228 8.67015 12.2935 8.79111 12.4107L10.4103 13.9935L14.9515 7.08954C15.0452 6.95022 15.1894 6.8528 15.3536 6.81787C15.5178 6.78294 15.6892 6.81323 15.8315 6.90234L16.9051 7.57674C16.9752 7.61986 17.036 7.67662 17.0838 7.74365C17.1315 7.81069 17.1654 7.88664 17.1832 7.967C17.2011 8.04735 17.2026 8.13048 17.1878 8.21144C17.1729 8.29241 17.1419 8.36957 17.0967 8.43834L11.7195 16.6159C11.6118 16.776 11.4702 16.9105 11.3049 17.01C11.1395 17.1094 10.9544 17.1714 10.7625 17.1916C10.5706 17.2118 10.3766 17.1896 10.1942 17.1267C10.0118 17.0638 9.84539 16.9617 9.70671 16.8275Z" fill="white"/>
</g>
<defs>
<clipPath id="clip0_39_5531">
<rect width="24" height="24" fill="white"/>
</clipPath>
</defs>
</svg>
