<svg width="54" height="54" viewBox="0 0 54 54" fill="none" xmlns="http://www.w3.org/2000/svg">
<g clip-path="url(#clip0_39_5975)">
<path d="M46.5531 14.7867V50.5195C46.5531 52.4391 44.9922 54 43.0727 54H10.9258C9.00625 54 7.44531 52.4391 7.44531 50.5195V3.48047C7.44531 1.56094 9.00625 0 10.9258 0H31.7664L46.5531 14.7867Z" fill="#00939C"/>
<path d="M17.002 27.116H36.9988V29.3414H17.002V27.116Z" fill="white"/>
<path d="M17.002 32.0731H36.9988V34.2985H17.002V32.0731Z" fill="white"/>
<path d="M17.002 37.0406H36.9988V39.266H17.002V37.0406Z" fill="white"/>
<path d="M17.002 41.9977H31.2297V44.2231H17.002V41.9977Z" fill="white"/>
<path opacity="0.19" d="M33.7812 14.2277L46.5535 24.5742V14.85L39.3184 10.6523L33.7812 14.2277Z" fill="#00939C"/>
<path d="M46.5543 14.7867H35.248C33.3285 14.7867 31.7676 13.2258 31.7676 11.3062V0L46.5543 14.7867Z" fill="#04ACB6"/>
</g>
<defs>
<clipPath id="clip0_39_5975">
<rect width="54" height="54" fill="white"/>
</clipPath>
</defs>
</svg>
