<svg width="69" height="154" viewBox="0 0 69 154" fill="none" xmlns="http://www.w3.org/2000/svg">
<path d="M0.208984 71C5.59679 40.164 27.209 42 27.209 42C36.528 41.2365 46.2023 41.3835 55.209 44C48.0525 22.7831 54.4957 16.0174 62.209 8C64.5522 5.54226 67.2403 2.79422 69.209 0V154L68.209 152C60.2419 124.941 33.209 120 33.209 120C58.5923 114.364 60.209 91 60.209 91C60.209 58.2025 36.394 52.3895 25.209 62C14.024 71.6105 17.3649 90.9318 33.209 79C48.1196 67.7706 47.2909 84.7151 47.209 90C47.209 90.3255 47.209 90.7516 47.209 91C47.209 94.983 42.1032 102.893 27.209 101C-4.16805 97.0085 0.208984 71 0.208984 71Z" fill="white" fill-opacity="0.1"/>
</svg>
