<svg width="70" height="154" viewBox="0 0 70 154" fill="none" xmlns="http://www.w3.org/2000/svg">
<path d="M1 71C6.38781 40.164 28 42 28 42C37.319 41.2365 46.9933 41.3835 56 44C48.8435 22.7831 55.2868 16.0174 63 8C65.3432 5.54226 68.0313 2.79422 70 0V154L69 152C61.0329 124.941 34 120 34 120C59.3833 114.364 61 91 61 91C61 58.2025 37.185 52.3895 26 62C14.815 71.6105 18.1559 90.9318 34 79C48.9106 67.7706 48.0819 84.7151 48 90C48 90.3255 48 90.7516 48 91C48 94.983 42.8943 102.893 28 101C-3.37703 97.0085 1 71 1 71Z" fill="url(#paint0_linear_727_4892)" fill-opacity="0.1"/>
<defs>
<linearGradient id="paint0_linear_727_4892" x1="35.1395" y1="-14.9204" x2="35.1782" y2="174.167" gradientUnits="userSpaceOnUse">
<stop stop-color="#176C71"/>
<stop offset="0.713427" stop-color="#1F989E"/>
<stop offset="0.989758" stop-color="#2AB3B9"/>
</linearGradient>
</defs>
</svg>
