<svg width="258" height="144" viewBox="0 0 258 144" fill="none" xmlns="http://www.w3.org/2000/svg">
<path d="M192 66C192 102.451 162.451 132 126 132C89.5492 132 60 102.451 60 66C60 29.5492 89.5492 0 126 0C162.451 0 192 29.5492 192 66ZM74.52 66C74.52 94.4316 97.5684 117.48 126 117.48C154.432 117.48 177.48 94.4316 177.48 66C177.48 37.5684 154.432 14.52 126 14.52C97.5684 14.52 74.52 37.5684 74.52 66Z" fill="#D9D9D9"/>
<path d="M126 0C115.744 -1.22306e-07 105.628 2.39032 96.4569 6.98129C87.2855 11.5723 79.3102 18.2375 73.1639 26.4482C67.0175 34.6589 62.8694 44.1891 61.0485 54.2825C59.2276 64.376 59.7841 74.7549 62.6739 84.5957C65.5636 94.4366 70.7071 103.468 77.6962 110.975C84.6852 118.481 93.3275 124.256 102.937 127.839C112.547 131.423 122.86 132.718 133.058 131.622C143.255 130.525 153.057 127.067 161.685 121.521L153.834 109.307C147.104 113.632 139.459 116.329 131.505 117.185C123.551 118.04 115.507 117.03 108.011 114.235C100.515 111.439 93.7745 106.935 88.323 101.08C82.8715 95.2254 78.8596 88.1805 76.6056 80.5047C74.3516 72.8288 73.9175 64.7333 75.3378 56.8604C76.7581 48.9875 79.9937 41.554 84.7878 35.1496C89.5819 28.7453 95.8027 23.5464 102.956 19.9654C110.11 16.3844 118 14.52 126 14.52V0Z" fill="#C0A062"/>
<path d="M182.331 76.8115C182.331 78.2843 183.525 79.4782 184.998 79.4782C186.471 79.4782 187.665 78.2843 187.665 76.8115C187.665 75.3388 186.471 74.1449 184.998 74.1449C183.525 74.1449 182.331 75.3388 182.331 76.8115ZM184.998 77.3115H215V76.3115H184.998V77.3115Z" fill="#414141"/>
<path d="M96.6667 117C96.6667 115.527 95.4728 114.333 94 114.333C92.5272 114.333 91.3333 115.527 91.3333 117C91.3333 118.473 92.5272 119.667 94 119.667C95.4728 119.667 96.6667 118.473 96.6667 117ZM94 116.5H50V117.5H94V116.5Z" fill="#414141"/>
<path d="M223.578 71.2H228.562V72.39H224.894V81H223.578V71.2ZM231.47 81.112C231.003 81.112 230.569 81.0327 230.168 80.874C229.776 80.706 229.435 80.4773 229.146 80.188C228.856 79.8987 228.628 79.558 228.46 79.166C228.301 78.7647 228.222 78.3307 228.222 77.864C228.222 77.3973 228.301 76.968 228.46 76.576C228.628 76.1747 228.856 75.834 229.146 75.554C229.435 75.2647 229.776 75.0407 230.168 74.882C230.569 74.7233 231.003 74.644 231.47 74.644C231.936 74.644 232.366 74.7233 232.758 74.882C233.159 75.0407 233.504 75.2647 233.794 75.554C234.083 75.834 234.307 76.1747 234.466 76.576C234.634 76.968 234.718 77.3973 234.718 77.864C234.718 78.34 234.634 78.7787 234.466 79.18C234.307 79.572 234.078 79.9127 233.78 80.202C233.49 80.482 233.145 80.706 232.744 80.874C232.352 81.0327 231.927 81.112 231.47 81.112ZM231.47 80.006C231.759 80.006 232.025 79.9547 232.268 79.852C232.51 79.7493 232.716 79.6047 232.884 79.418C233.061 79.222 233.196 78.9933 233.29 78.732C233.383 78.4707 233.43 78.1813 233.43 77.864C233.43 77.2387 233.252 76.73 232.898 76.338C232.552 75.946 232.076 75.75 231.47 75.75C230.872 75.75 230.392 75.946 230.028 76.338C229.673 76.73 229.496 77.2387 229.496 77.864C229.496 78.172 229.542 78.4613 229.636 78.732C229.729 78.9933 229.86 79.2173 230.028 79.404C230.205 79.5907 230.415 79.74 230.658 79.852C230.9 79.9547 231.171 80.006 231.47 80.006ZM236.23 84.36V74.756H237.406V75.75C237.565 75.4513 237.835 75.1947 238.218 74.98C238.601 74.756 239.067 74.644 239.618 74.644C240.019 74.644 240.402 74.7233 240.766 74.882C241.13 75.0313 241.447 75.246 241.718 75.526C241.989 75.806 242.203 76.1467 242.362 76.548C242.521 76.9493 242.6 77.3927 242.6 77.878C242.6 78.3727 242.516 78.8207 242.348 79.222C242.189 79.6233 241.97 79.964 241.69 80.244C241.419 80.524 241.102 80.7387 240.738 80.888C240.383 81.0373 240.01 81.112 239.618 81.112C239.142 81.112 238.717 81.0187 238.344 80.832C237.98 80.636 237.691 80.384 237.476 80.076V84.36H236.23ZM239.38 75.778C239.081 75.778 238.815 75.8293 238.582 75.932C238.349 76.0347 238.153 76.1747 237.994 76.352C237.835 76.5293 237.709 76.7347 237.616 76.968C237.532 77.2013 237.485 77.4487 237.476 77.71V77.92C237.476 78.1907 237.518 78.452 237.602 78.704C237.695 78.9467 237.821 79.166 237.98 79.362C238.148 79.5487 238.349 79.7027 238.582 79.824C238.825 79.936 239.095 79.992 239.394 79.992C239.674 79.992 239.926 79.9407 240.15 79.838C240.383 79.7353 240.584 79.5953 240.752 79.418C240.92 79.2313 241.051 79.0073 241.144 78.746C241.237 78.4847 241.284 78.1907 241.284 77.864C241.284 77.192 241.097 76.6787 240.724 76.324C240.36 75.96 239.912 75.778 239.38 75.778ZM246.933 81.112C246.466 81.112 246.032 81.0327 245.631 80.874C245.239 80.706 244.898 80.4773 244.609 80.188C244.319 79.8987 244.091 79.558 243.923 79.166C243.764 78.7647 243.685 78.3307 243.685 77.864C243.685 77.3973 243.764 76.968 243.923 76.576C244.091 76.1747 244.319 75.834 244.609 75.554C244.898 75.2647 245.239 75.0407 245.631 74.882C246.032 74.7233 246.466 74.644 246.933 74.644C247.399 74.644 247.829 74.7233 248.221 74.882C248.622 75.0407 248.967 75.2647 249.257 75.554C249.546 75.834 249.77 76.1747 249.929 76.576C250.097 76.968 250.181 77.3973 250.181 77.864C250.181 78.34 250.097 78.7787 249.929 79.18C249.77 79.572 249.541 79.9127 249.243 80.202C248.953 80.482 248.608 80.706 248.207 80.874C247.815 81.0327 247.39 81.112 246.933 81.112ZM246.933 80.006C247.222 80.006 247.488 79.9547 247.731 79.852C247.973 79.7493 248.179 79.6047 248.347 79.418C248.524 79.222 248.659 78.9933 248.753 78.732C248.846 78.4707 248.893 78.1813 248.893 77.864C248.893 77.2387 248.715 76.73 248.361 76.338C248.015 75.946 247.539 75.75 246.933 75.75C246.335 75.75 245.855 75.946 245.491 76.338C245.136 76.73 244.959 77.2387 244.959 77.864C244.959 78.172 245.005 78.4613 245.099 78.732C245.192 78.9933 245.323 79.2173 245.491 79.404C245.668 79.5907 245.878 79.74 246.121 79.852C246.363 79.9547 246.634 80.006 246.933 80.006ZM250.674 79.88H251.444C251.687 79.404 251.864 78.858 251.976 78.242C252.098 77.6167 252.158 76.8653 252.158 75.988V74.756H256.708V79.88H257.8V82.498H256.722V81H251.752V82.498H250.674V79.88ZM253.334 76.45C253.334 77.1407 253.283 77.766 253.18 78.326C253.078 78.8767 252.928 79.3947 252.732 79.88H255.462V75.876H253.334V76.45Z" fill="#2D2D2D"/>
<path d="M226.751 99.34H222.173V98.738L227.437 92.06H227.997V98.22H229.187V99.34H227.997V102H226.751V99.34ZM226.751 98.22V94.692L223.951 98.22H226.751ZM232.18 93.754L230.276 94.468V93.222L233.398 92.032V102H232.18V93.754ZM236.584 102.042C236.332 102.014 236.141 101.925 236.01 101.776C235.889 101.627 235.828 101.449 235.828 101.244C235.828 100.992 235.912 100.787 236.08 100.628C236.257 100.469 236.463 100.39 236.696 100.39C236.967 100.39 237.191 100.474 237.368 100.642C237.545 100.81 237.634 101.039 237.634 101.328C237.634 101.571 237.564 101.832 237.424 102.112C237.284 102.401 237.097 102.77 236.864 103.218L236.36 104.24H235.394L236.584 102.042ZM242.663 102.084C242.206 102.084 241.776 102.014 241.375 101.874C240.974 101.734 240.619 101.524 240.311 101.244C240.012 100.964 239.774 100.623 239.597 100.222C239.429 99.8113 239.345 99.34 239.345 98.808C239.345 98.1173 239.49 97.464 239.779 96.848C240.068 96.2227 240.456 95.56 240.941 94.86L242.747 92.2H244.119V92.326L241.347 96.316C241.58 96.1667 241.832 96.05 242.103 95.966C242.383 95.8727 242.686 95.826 243.013 95.826C243.386 95.826 243.75 95.896 244.105 96.036C244.469 96.1667 244.786 96.3627 245.057 96.624C245.328 96.8853 245.547 97.212 245.715 97.604C245.883 97.9867 245.967 98.43 245.967 98.934C245.967 99.4567 245.874 99.9187 245.687 100.32C245.51 100.712 245.267 101.039 244.959 101.3C244.66 101.561 244.31 101.757 243.909 101.888C243.508 102.019 243.092 102.084 242.663 102.084ZM242.663 100.964C242.943 100.964 243.204 100.922 243.447 100.838C243.699 100.745 243.918 100.614 244.105 100.446C244.292 100.269 244.436 100.059 244.539 99.816C244.651 99.564 244.707 99.2747 244.707 98.948C244.707 98.6307 244.651 98.346 244.539 98.094C244.436 97.8327 244.292 97.6133 244.105 97.436C243.928 97.2587 243.713 97.1233 243.461 97.03C243.209 96.9367 242.938 96.89 242.649 96.89C242.36 96.89 242.089 96.9367 241.837 97.03C241.594 97.114 241.38 97.2447 241.193 97.422C241.006 97.59 240.857 97.8 240.745 98.052C240.642 98.304 240.591 98.5887 240.591 98.906C240.591 99.2327 240.642 99.5267 240.745 99.788C240.857 100.04 241.006 100.255 241.193 100.432C241.38 100.6 241.599 100.731 241.851 100.824C242.103 100.917 242.374 100.964 242.663 100.964ZM249.761 96.666C249.425 96.666 249.112 96.61 248.823 96.498C248.543 96.386 248.295 96.232 248.081 96.036C247.875 95.8307 247.712 95.588 247.591 95.308C247.479 95.028 247.423 94.72 247.423 94.384C247.423 94.0387 247.479 93.726 247.591 93.446C247.712 93.166 247.875 92.928 248.081 92.732C248.286 92.5267 248.533 92.368 248.823 92.256C249.112 92.144 249.425 92.088 249.761 92.088C250.097 92.088 250.405 92.144 250.685 92.256C250.974 92.368 251.221 92.5267 251.427 92.732C251.641 92.928 251.809 93.166 251.931 93.446C252.052 93.726 252.113 94.0387 252.113 94.384C252.113 94.72 252.052 95.028 251.931 95.308C251.809 95.588 251.641 95.8307 251.427 96.036C251.221 96.232 250.974 96.386 250.685 96.498C250.405 96.61 250.097 96.666 249.761 96.666ZM249.761 95.658C250.153 95.658 250.465 95.5413 250.699 95.308C250.932 95.0747 251.049 94.7667 251.049 94.384C251.049 93.992 250.932 93.684 250.699 93.46C250.465 93.2267 250.153 93.11 249.761 93.11C249.378 93.11 249.07 93.2267 248.837 93.46C248.603 93.684 248.487 93.992 248.487 94.384C248.487 94.7667 248.603 95.0747 248.837 95.308C249.07 95.5413 249.378 95.658 249.761 95.658ZM254.871 102.112C254.535 102.112 254.222 102.056 253.933 101.944C253.653 101.832 253.405 101.678 253.191 101.482C252.985 101.277 252.822 101.034 252.701 100.754C252.589 100.474 252.533 100.161 252.533 99.816C252.533 99.48 252.589 99.172 252.701 98.892C252.822 98.612 252.985 98.374 253.191 98.178C253.396 97.9727 253.643 97.814 253.933 97.702C254.222 97.59 254.535 97.534 254.871 97.534C255.207 97.534 255.515 97.59 255.795 97.702C256.084 97.814 256.331 97.9727 256.537 98.178C256.751 98.374 256.919 98.612 257.041 98.892C257.162 99.172 257.223 99.48 257.223 99.816C257.223 100.161 257.162 100.474 257.041 100.754C256.919 101.034 256.751 101.277 256.537 101.482C256.331 101.678 256.084 101.832 255.795 101.944C255.515 102.056 255.207 102.112 254.871 102.112ZM254.871 101.09C255.263 101.09 255.571 100.978 255.795 100.754C256.028 100.521 256.145 100.208 256.145 99.816C256.145 99.424 256.028 99.116 255.795 98.892C255.571 98.6587 255.263 98.542 254.871 98.542C254.488 98.542 254.18 98.6587 253.947 98.892C253.713 99.1253 253.597 99.4333 253.597 99.816C253.597 100.208 253.713 100.521 253.947 100.754C254.18 100.978 254.488 101.09 254.871 101.09ZM249.425 102H248.137L255.235 92.2H256.481L249.425 102Z" fill="#777777"/>
<path d="M13.9822 119.14C13.1982 119.14 12.4796 119.019 11.8262 118.776C11.1822 118.524 10.6269 118.174 10.1602 117.726C9.70289 117.278 9.34355 116.746 9.08222 116.13C8.83022 115.514 8.70422 114.842 8.70422 114.114C8.70422 113.386 8.83022 112.714 9.08222 112.098C9.33422 111.482 9.68889 110.95 10.1462 110.502C10.6129 110.045 11.1636 109.69 11.7982 109.438C12.4422 109.186 13.1562 109.06 13.9402 109.06C14.5936 109.06 15.1769 109.144 15.6902 109.312C16.2129 109.48 16.6749 109.699 17.0762 109.97L16.4882 111.034C16.1429 110.791 15.7602 110.605 15.3402 110.474C14.9202 110.343 14.4816 110.278 14.0242 110.278C13.4456 110.278 12.9136 110.376 12.4282 110.572C11.9522 110.759 11.5369 111.025 11.1822 111.37C10.8369 111.706 10.5662 112.107 10.3702 112.574C10.1742 113.041 10.0762 113.549 10.0762 114.1C10.0762 114.651 10.1742 115.159 10.3702 115.626C10.5662 116.093 10.8416 116.494 11.1962 116.83C11.5509 117.166 11.9756 117.432 12.4702 117.628C12.9649 117.815 13.5062 117.908 14.0942 117.908C14.5422 117.908 14.9856 117.843 15.4242 117.712C15.8722 117.581 16.2782 117.357 16.6422 117.04L17.2722 118.076C16.9456 118.356 16.5069 118.603 15.9562 118.818C15.4056 119.033 14.7476 119.14 13.9822 119.14ZM21.3435 119.112C20.8675 119.112 20.4288 119.037 20.0275 118.888C19.6355 118.739 19.2902 118.524 18.9915 118.244C18.7022 117.964 18.4735 117.628 18.3055 117.236C18.1468 116.835 18.0675 116.387 18.0675 115.892C18.0675 115.379 18.1562 114.921 18.3335 114.52C18.5108 114.119 18.7442 113.778 19.0335 113.498C19.3322 113.218 19.6728 113.008 20.0555 112.868C20.4475 112.719 20.8582 112.644 21.2875 112.644C21.7728 112.644 22.2022 112.733 22.5755 112.91C22.9582 113.078 23.2802 113.311 23.5415 113.61C23.8028 113.899 23.9988 114.235 24.1295 114.618C24.2695 114.991 24.3395 115.383 24.3395 115.794V116.144H19.2995C19.3648 116.741 19.5888 117.208 19.9715 117.544C20.3635 117.88 20.8488 118.048 21.4275 118.048C21.8195 118.048 22.1788 117.973 22.5055 117.824C22.8415 117.675 23.1168 117.469 23.3315 117.208L24.0875 117.908C23.7795 118.309 23.3828 118.613 22.8975 118.818C22.4122 119.014 21.8942 119.112 21.3435 119.112ZM21.2035 113.722C20.7368 113.722 20.3355 113.857 19.9995 114.128C19.6728 114.389 19.4582 114.753 19.3555 115.22H23.0795C23.0048 114.791 22.7948 114.436 22.4495 114.156C22.1135 113.867 21.6982 113.722 21.2035 113.722ZM25.1879 119.098C25.1039 119.098 25.0386 119.093 24.9919 119.084C24.9452 119.084 24.9032 119.079 24.8659 119.07V117.824C24.9032 117.833 24.9359 117.838 24.9639 117.838C25.0012 117.838 25.0292 117.838 25.0479 117.838C25.1879 117.838 25.3186 117.791 25.4399 117.698C25.5612 117.595 25.6639 117.418 25.7479 117.166C25.8412 116.914 25.9112 116.569 25.9579 116.13C26.0139 115.691 26.0419 115.127 26.0419 114.436V112.756H30.4519V119H29.2059V113.876H27.2179V115.038C27.2179 115.822 27.1666 116.475 27.0639 116.998C26.9706 117.511 26.8352 117.927 26.6579 118.244C26.4806 118.552 26.2659 118.771 26.0139 118.902C25.7619 119.033 25.4866 119.098 25.1879 119.098ZM35.2198 119.112C34.7531 119.112 34.3191 119.033 33.9178 118.874C33.5258 118.706 33.1851 118.477 32.8958 118.188C32.6064 117.899 32.3778 117.558 32.2098 117.166C32.0511 116.765 31.9718 116.331 31.9718 115.864C31.9718 115.397 32.0511 114.968 32.2098 114.576C32.3778 114.175 32.6064 113.834 32.8958 113.554C33.1851 113.265 33.5258 113.041 33.9178 112.882C34.3191 112.723 34.7531 112.644 35.2198 112.644C35.6864 112.644 36.1158 112.723 36.5078 112.882C36.9091 113.041 37.2544 113.265 37.5438 113.554C37.8331 113.834 38.0571 114.175 38.2158 114.576C38.3838 114.968 38.4678 115.397 38.4678 115.864C38.4678 116.34 38.3838 116.779 38.2158 117.18C38.0571 117.572 37.8284 117.913 37.5298 118.202C37.2404 118.482 36.8951 118.706 36.4938 118.874C36.1018 119.033 35.6771 119.112 35.2198 119.112ZM35.2198 118.006C35.5091 118.006 35.7751 117.955 36.0178 117.852C36.2604 117.749 36.4658 117.605 36.6338 117.418C36.8111 117.222 36.9464 116.993 37.0398 116.732C37.1331 116.471 37.1798 116.181 37.1798 115.864C37.1798 115.239 37.0024 114.73 36.6478 114.338C36.3024 113.946 35.8264 113.75 35.2198 113.75C34.6224 113.75 34.1418 113.946 33.7778 114.338C33.4231 114.73 33.2458 115.239 33.2458 115.864C33.2458 116.172 33.2924 116.461 33.3858 116.732C33.4791 116.993 33.6098 117.217 33.7778 117.404C33.9551 117.591 34.1651 117.74 34.4078 117.852C34.6504 117.955 34.9211 118.006 35.2198 118.006Z" fill="#2D2D2D"/>
<path d="M3.65175 140.14C3.04508 140.14 2.47575 140.023 1.94375 139.79C1.42108 139.557 0.987083 139.197 0.64175 138.712L1.57975 137.914C1.79442 138.241 2.06975 138.507 2.40575 138.712C2.74175 138.908 3.15708 139.006 3.65175 139.006C3.96908 139.006 4.26308 138.955 4.53375 138.852C4.80442 138.749 5.03775 138.605 5.23375 138.418C5.42975 138.222 5.57908 137.993 5.68175 137.732C5.79375 137.471 5.84975 137.181 5.84975 136.864C5.84975 136.528 5.79375 136.234 5.68175 135.982C5.56975 135.721 5.41108 135.506 5.20575 135.338C5.00975 135.17 4.77175 135.044 4.49175 134.96C4.21175 134.876 3.90842 134.834 3.58175 134.834C3.36708 134.834 3.15708 134.862 2.95175 134.918C2.74642 134.965 2.55042 135.025 2.36375 135.1H1.67775L2.23775 130.2H6.42375V131.39H3.23175L2.96575 133.896C3.10575 133.859 3.24575 133.831 3.38575 133.812C3.53508 133.784 3.68442 133.77 3.83375 133.77C4.33775 133.77 4.79042 133.845 5.19175 133.994C5.59308 134.143 5.93375 134.358 6.21375 134.638C6.50308 134.909 6.72242 135.235 6.87175 135.618C7.02108 136.001 7.09575 136.425 7.09575 136.892C7.09575 137.368 7.01175 137.807 6.84375 138.208C6.67575 138.609 6.43775 138.955 6.12975 139.244C5.82175 139.524 5.45775 139.743 5.03775 139.902C4.61775 140.061 4.15575 140.14 3.65175 140.14ZM11.9982 140.14C11.4942 140.14 11.0368 140.065 10.6262 139.916C10.2155 139.767 9.86082 139.561 9.56216 139.3C9.27282 139.039 9.04882 138.726 8.89016 138.362C8.73149 137.998 8.65216 137.601 8.65216 137.172C8.65216 136.556 8.81549 136.019 9.14216 135.562C9.47816 135.105 9.97749 134.787 10.6402 134.61C10.4535 134.545 10.2715 134.451 10.0942 134.33C9.92616 134.199 9.77682 134.05 9.64616 133.882C9.51549 133.705 9.40816 133.509 9.32416 133.294C9.24949 133.07 9.21216 132.823 9.21216 132.552C9.21216 132.169 9.27749 131.824 9.40816 131.516C9.54816 131.208 9.73949 130.947 9.98216 130.732C10.2342 130.517 10.5282 130.354 10.8642 130.242C11.2095 130.121 11.5875 130.06 11.9982 130.06C12.4088 130.06 12.7822 130.121 13.1182 130.242C13.4635 130.354 13.7575 130.517 14.0002 130.732C14.2522 130.947 14.4435 131.208 14.5742 131.516C14.7142 131.824 14.7842 132.169 14.7842 132.552C14.7842 132.823 14.7422 133.07 14.6582 133.294C14.5835 133.509 14.4762 133.705 14.3362 133.882C14.2055 134.05 14.0515 134.199 13.8742 134.33C13.7062 134.451 13.5335 134.545 13.3562 134.61C14.0188 134.787 14.5135 135.105 14.8402 135.562C15.1762 136.019 15.3442 136.556 15.3442 137.172C15.3442 137.601 15.2648 137.998 15.1062 138.362C14.9475 138.726 14.7235 139.039 14.4342 139.3C14.1448 139.561 13.7902 139.767 13.3702 139.916C12.9595 140.065 12.5022 140.14 11.9982 140.14ZM11.9982 139.006C12.6142 139.006 13.1182 138.838 13.5102 138.502C13.9022 138.157 14.0982 137.69 14.0982 137.102C14.0982 136.495 13.9022 136.029 13.5102 135.702C13.1182 135.375 12.6142 135.212 11.9982 135.212C11.3822 135.212 10.8782 135.375 10.4862 135.702C10.1035 136.029 9.91216 136.495 9.91216 137.102C9.91216 137.69 10.1035 138.157 10.4862 138.502C10.8782 138.838 11.3822 139.006 11.9982 139.006ZM11.9982 134.19C12.5022 134.19 12.8895 134.045 13.1602 133.756C13.4308 133.457 13.5662 133.098 13.5662 132.678C13.5662 132.221 13.4308 131.857 13.1602 131.586C12.8895 131.315 12.5022 131.18 11.9982 131.18C11.4942 131.18 11.1068 131.315 10.8362 131.586C10.5748 131.857 10.4442 132.221 10.4442 132.678C10.4442 133.098 10.5748 133.457 10.8362 133.756C11.1068 134.045 11.4942 134.19 11.9982 134.19ZM17.5839 140.042C17.3319 140.014 17.1406 139.925 17.0099 139.776C16.8886 139.627 16.8279 139.449 16.8279 139.244C16.8279 138.992 16.9119 138.787 17.0799 138.628C17.2573 138.469 17.4626 138.39 17.6959 138.39C17.9666 138.39 18.1906 138.474 18.3679 138.642C18.5453 138.81 18.6339 139.039 18.6339 139.328C18.6339 139.571 18.5639 139.832 18.4239 140.112C18.2839 140.401 18.0973 140.77 17.8639 141.218L17.3599 142.24H16.3939L17.5839 140.042ZM24.3489 137.34H19.7709V136.738L25.0349 130.06H25.5949V136.22H26.7849V137.34H25.5949V140H24.3489V137.34ZM24.3489 136.22V132.692L21.5489 136.22H24.3489ZM30.7607 134.666C30.4247 134.666 30.112 134.61 29.8227 134.498C29.5427 134.386 29.2953 134.232 29.0807 134.036C28.8753 133.831 28.712 133.588 28.5907 133.308C28.4787 133.028 28.4227 132.72 28.4227 132.384C28.4227 132.039 28.4787 131.726 28.5907 131.446C28.712 131.166 28.8753 130.928 29.0807 130.732C29.286 130.527 29.5333 130.368 29.8227 130.256C30.112 130.144 30.4247 130.088 30.7607 130.088C31.0967 130.088 31.4047 130.144 31.6847 130.256C31.974 130.368 32.2213 130.527 32.4267 130.732C32.6413 130.928 32.8093 131.166 32.9307 131.446C33.052 131.726 33.1127 132.039 33.1127 132.384C33.1127 132.72 33.052 133.028 32.9307 133.308C32.8093 133.588 32.6413 133.831 32.4267 134.036C32.2213 134.232 31.974 134.386 31.6847 134.498C31.4047 134.61 31.0967 134.666 30.7607 134.666ZM30.7607 133.658C31.1527 133.658 31.4653 133.541 31.6987 133.308C31.932 133.075 32.0487 132.767 32.0487 132.384C32.0487 131.992 31.932 131.684 31.6987 131.46C31.4653 131.227 31.1527 131.11 30.7607 131.11C30.378 131.11 30.07 131.227 29.8367 131.46C29.6033 131.684 29.4867 131.992 29.4867 132.384C29.4867 132.767 29.6033 133.075 29.8367 133.308C30.07 133.541 30.378 133.658 30.7607 133.658ZM35.8707 140.112C35.5347 140.112 35.222 140.056 34.9327 139.944C34.6527 139.832 34.4053 139.678 34.1907 139.482C33.9853 139.277 33.822 139.034 33.7007 138.754C33.5887 138.474 33.5327 138.161 33.5327 137.816C33.5327 137.48 33.5887 137.172 33.7007 136.892C33.822 136.612 33.9853 136.374 34.1907 136.178C34.396 135.973 34.6433 135.814 34.9327 135.702C35.222 135.59 35.5347 135.534 35.8707 135.534C36.2067 135.534 36.5147 135.59 36.7947 135.702C37.084 135.814 37.3313 135.973 37.5367 136.178C37.7513 136.374 37.9193 136.612 38.0407 136.892C38.162 137.172 38.2227 137.48 38.2227 137.816C38.2227 138.161 38.162 138.474 38.0407 138.754C37.9193 139.034 37.7513 139.277 37.5367 139.482C37.3313 139.678 37.084 139.832 36.7947 139.944C36.5147 140.056 36.2067 140.112 35.8707 140.112ZM35.8707 139.09C36.2627 139.09 36.5707 138.978 36.7947 138.754C37.028 138.521 37.1447 138.208 37.1447 137.816C37.1447 137.424 37.028 137.116 36.7947 136.892C36.5707 136.659 36.2627 136.542 35.8707 136.542C35.488 136.542 35.18 136.659 34.9467 136.892C34.7133 137.125 34.5967 137.433 34.5967 137.816C34.5967 138.208 34.7133 138.521 34.9467 138.754C35.18 138.978 35.488 139.09 35.8707 139.09ZM30.4247 140H29.1367L36.2347 130.2H37.4807L30.4247 140Z" fill="#777777"/>
</svg>
