<svg width="293" height="140" viewBox="0 0 293 140" fill="none" xmlns="http://www.w3.org/2000/svg">
<path d="M208 74C208 87.0536 204.129 99.814 196.877 110.668C189.625 121.521 179.317 129.981 167.257 134.976C155.197 139.971 141.927 141.278 129.124 138.732C116.321 136.185 104.561 129.899 95.331 120.669C86.1007 111.439 79.8148 99.6787 77.2682 86.876C74.7215 74.0732 76.0286 60.8028 81.024 48.7429C86.0193 36.683 94.4787 26.3752 105.332 19.123C116.186 11.8708 128.946 8 142 8V22.52C131.818 22.52 121.865 25.5392 113.399 31.1959C104.933 36.8526 98.3351 44.8927 94.4387 54.2995C90.5423 63.7062 89.5228 74.0571 91.5092 84.0433C93.4955 94.0294 98.3985 103.202 105.598 110.402C112.798 117.601 121.971 122.504 131.957 124.491C141.943 126.477 152.294 125.458 161.701 121.561C171.107 117.665 179.147 111.067 184.804 102.601C190.461 94.1349 193.48 84.1818 193.48 74H208Z" fill="#D9D9D9"/>
<path d="M103.146 20.649C90.4425 29.9004 81.4573 43.3808 77.8061 58.6655C74.1549 73.9503 76.0774 90.0363 83.2276 104.03C90.3779 118.024 102.287 129.007 116.812 135.005C131.338 141.002 147.526 141.62 162.466 136.747C177.407 131.873 190.118 121.829 198.313 108.421C206.509 95.0126 209.652 79.1198 207.176 63.6013C204.7 48.0828 196.768 33.9569 184.807 23.7645C172.845 13.5722 157.64 7.98219 141.925 8.00004L141.942 22.52C154.199 22.5061 166.059 26.8663 175.389 34.8163C184.719 42.7664 190.906 53.7845 192.837 65.889C194.768 77.9934 192.317 90.3898 185.924 100.848C179.532 111.307 169.617 119.141 157.964 122.942C146.31 126.743 133.683 126.262 122.354 121.584C111.024 116.906 101.735 108.339 96.1576 97.4235C90.5804 86.5083 89.0809 73.9612 91.9288 62.0391C94.7767 50.117 101.785 39.6023 111.694 32.3862L103.146 20.649Z" fill="#007886"/>
<path d="M195.333 94C195.333 95.4728 196.527 96.6667 198 96.6667C199.473 96.6667 200.667 95.4728 200.667 94C200.667 92.5272 199.473 91.3333 198 91.3333C196.527 91.3333 195.333 92.5272 195.333 94ZM198 94.5H293V93.5H198V94.5Z" fill="#414141"/>
<path d="M112.667 19C112.667 17.5272 111.473 16.3333 110 16.3333C108.527 16.3333 107.333 17.5272 107.333 19C107.333 20.4728 108.527 21.6667 110 21.6667C111.473 21.6667 112.667 20.4728 112.667 19ZM110 18.5L0 18.5V19.5L110 19.5V18.5Z" fill="#414141"/>
<path d="M231.06 82.26H231.76L234.784 78.2H236.142V78.48L232.908 82.694L237.192 87.72V88H235.708L231.816 83.436H231.06V88H229.744V78.2H231.06V82.26ZM240.46 88.112C240.068 88.112 239.69 88.0373 239.326 87.888C238.971 87.7387 238.654 87.524 238.374 87.244C238.103 86.964 237.884 86.6233 237.716 86.222C237.557 85.8207 237.478 85.3727 237.478 84.878C237.478 84.3927 237.557 83.9493 237.716 83.548C237.874 83.1467 238.089 82.806 238.36 82.526C238.63 82.246 238.943 82.0313 239.298 81.882C239.662 81.7233 240.049 81.644 240.46 81.644C241.001 81.644 241.458 81.756 241.832 81.98C242.214 82.1947 242.49 82.4513 242.658 82.75V81.756H243.848V88H242.658V86.978C242.452 87.3047 242.158 87.5753 241.776 87.79C241.402 88.0047 240.964 88.112 240.46 88.112ZM240.67 86.992C240.978 86.992 241.248 86.936 241.482 86.824C241.724 86.7027 241.925 86.5487 242.084 86.362C242.252 86.166 242.378 85.9467 242.462 85.704C242.546 85.452 242.588 85.1907 242.588 84.92V84.71C242.578 84.4487 242.527 84.2013 242.434 83.968C242.35 83.7347 242.228 83.5293 242.07 83.352C241.911 83.1747 241.715 83.0347 241.482 82.932C241.248 82.8293 240.987 82.778 240.698 82.778C240.427 82.778 240.175 82.8247 239.942 82.918C239.708 83.0113 239.503 83.1467 239.326 83.324C239.158 83.492 239.022 83.7067 238.92 83.968C238.826 84.2293 238.78 84.528 238.78 84.864C238.78 85.1907 238.826 85.4847 238.92 85.746C239.013 86.0073 239.144 86.2313 239.312 86.418C239.48 86.5953 239.676 86.7353 239.9 86.838C240.133 86.9407 240.39 86.992 240.67 86.992ZM247.662 88.112C247.326 88.112 247.018 88.0793 246.738 88.014C246.468 87.9487 246.225 87.8647 246.01 87.762C245.805 87.65 245.628 87.5333 245.478 87.412C245.338 87.2813 245.222 87.16 245.128 87.048L245.926 86.264C246.104 86.4787 246.332 86.656 246.612 86.796C246.892 86.936 247.238 87.006 247.648 87.006C248.106 87.006 248.456 86.9173 248.698 86.74C248.941 86.5627 249.062 86.3247 249.062 86.026C249.062 85.774 248.96 85.5687 248.754 85.41C248.549 85.2513 248.222 85.172 247.774 85.172H246.878V84.15H247.606C247.952 84.15 248.227 84.0987 248.432 83.996C248.638 83.884 248.74 83.7067 248.74 83.464C248.74 83.24 248.628 83.0627 248.404 82.932C248.19 82.8013 247.91 82.736 247.564 82.736C247.266 82.736 246.99 82.792 246.738 82.904C246.496 83.016 246.267 83.1653 246.052 83.352L245.436 82.484C245.67 82.2693 245.964 82.078 246.318 81.91C246.673 81.7327 247.116 81.644 247.648 81.644C248.358 81.644 248.918 81.798 249.328 82.106C249.748 82.414 249.958 82.806 249.958 83.282C249.958 83.5807 249.874 83.842 249.706 84.066C249.548 84.2807 249.328 84.4533 249.048 84.584C249.468 84.7147 249.786 84.92 250 85.2C250.215 85.4707 250.322 85.7927 250.322 86.166C250.322 86.4367 250.262 86.6933 250.14 86.936C250.019 87.1693 249.842 87.3747 249.608 87.552C249.384 87.7293 249.109 87.8693 248.782 87.972C248.456 88.0653 248.082 88.112 247.662 88.112ZM254.268 88.112C253.876 88.112 253.498 88.0373 253.134 87.888C252.78 87.7387 252.462 87.524 252.182 87.244C251.912 86.964 251.692 86.6233 251.524 86.222C251.366 85.8207 251.286 85.3727 251.286 84.878C251.286 84.3927 251.366 83.9493 251.524 83.548C251.683 83.1467 251.898 82.806 252.168 82.526C252.439 82.246 252.752 82.0313 253.106 81.882C253.47 81.7233 253.858 81.644 254.268 81.644C254.81 81.644 255.267 81.756 255.64 81.98C256.023 82.1947 256.298 82.4513 256.466 82.75V81.756H257.656V88H256.466V86.978C256.261 87.3047 255.967 87.5753 255.584 87.79C255.211 88.0047 254.772 88.112 254.268 88.112ZM254.478 86.992C254.786 86.992 255.057 86.936 255.29 86.824C255.533 86.7027 255.734 86.5487 255.892 86.362C256.06 86.166 256.186 85.9467 256.27 85.704C256.354 85.452 256.396 85.1907 256.396 84.92V84.71C256.387 84.4487 256.336 84.2013 256.242 83.968C256.158 83.7347 256.037 83.5293 255.878 83.352C255.72 83.1747 255.524 83.0347 255.29 82.932C255.057 82.8293 254.796 82.778 254.506 82.778C254.236 82.778 253.984 82.8247 253.75 82.918C253.517 83.0113 253.312 83.1467 253.134 83.324C252.966 83.492 252.831 83.7067 252.728 83.968C252.635 84.2293 252.588 84.528 252.588 84.864C252.588 85.1907 252.635 85.4847 252.728 85.746C252.822 86.0073 252.952 86.2313 253.12 86.418C253.288 86.5953 253.484 86.7353 253.708 86.838C253.942 86.9407 254.198 86.992 254.478 86.992ZM258.825 87.804L260.925 84.78L258.993 81.966V81.756H260.365L261.793 83.898L263.235 81.756H264.481V81.966L262.535 84.738L264.649 87.804L264.663 88H263.305L261.723 85.676L260.113 88H258.825V87.804ZM268.439 88.112C267.944 88.112 267.496 88.0327 267.095 87.874C266.693 87.706 266.353 87.4773 266.073 87.188C265.793 86.8987 265.573 86.558 265.415 86.166C265.265 85.7647 265.191 85.3307 265.191 84.864C265.191 84.36 265.275 83.912 265.443 83.52C265.611 83.1187 265.839 82.778 266.129 82.498C266.427 82.218 266.773 82.008 267.165 81.868C267.557 81.7187 267.981 81.644 268.439 81.644C268.933 81.644 269.391 81.728 269.811 81.896C270.231 82.064 270.576 82.2927 270.847 82.582L270.161 83.492C269.965 83.2587 269.722 83.0767 269.433 82.946C269.143 82.8153 268.831 82.75 268.495 82.75C268.205 82.75 267.935 82.8013 267.683 82.904C267.44 82.9973 267.225 83.1327 267.039 83.31C266.861 83.4873 266.721 83.7067 266.619 83.968C266.516 84.2293 266.465 84.5187 266.465 84.836C266.465 85.1533 266.516 85.4473 266.619 85.718C266.721 85.9793 266.866 86.208 267.053 86.404C267.239 86.5907 267.459 86.74 267.711 86.852C267.963 86.9547 268.243 87.006 268.551 87.006C268.905 87.006 269.223 86.936 269.503 86.796C269.783 86.656 270.016 86.4787 270.203 86.264L270.973 87.02C270.702 87.3467 270.352 87.6127 269.923 87.818C269.493 88.014 268.999 88.112 268.439 88.112ZM272.283 81.756H273.529V84.164H274.229L276.091 81.756H277.421V81.938L275.209 84.612L277.953 87.832V88H276.525L274.145 85.172H273.529V88H272.283V81.756ZM278.968 81.756H280.214V85.872L283.686 81.756H284.526V88H283.266V83.8L279.71 88H278.968V81.756ZM286.474 81.756H287.72V85.872L291.192 81.756H292.032V88H290.772V83.8L287.216 88H286.474V81.756ZM289.246 80.832C288.957 80.832 288.686 80.7947 288.434 80.72C288.191 80.636 287.981 80.5193 287.804 80.37C287.627 80.2113 287.487 80.02 287.384 79.796C287.281 79.5627 287.23 79.2967 287.23 78.998H288.252C288.252 79.278 288.336 79.5067 288.504 79.684C288.681 79.8613 288.938 79.95 289.274 79.95C289.601 79.95 289.853 79.866 290.03 79.698C290.207 79.53 290.301 79.2967 290.31 78.998H291.318C291.299 79.6047 291.094 80.062 290.702 80.37C290.319 80.678 289.834 80.832 289.246 80.832Z" fill="#2D2D2D"/>
<path d="M260.472 99.116C260.92 99.116 261.345 99.186 261.746 99.326C262.157 99.466 262.512 99.676 262.81 99.956C263.109 100.227 263.347 100.567 263.524 100.978C263.702 101.379 263.79 101.846 263.79 102.378C263.79 102.723 263.748 103.059 263.664 103.386C263.59 103.703 263.482 104.025 263.342 104.352C263.202 104.669 263.034 104.991 262.838 105.318C262.642 105.645 262.428 105.985 262.194 106.34L260.388 109H259.002V108.874L261.802 104.856C261.569 105.015 261.312 105.141 261.032 105.234C260.752 105.327 260.449 105.374 260.122 105.374C259.74 105.374 259.371 105.309 259.016 105.178C258.662 105.038 258.344 104.837 258.064 104.576C257.794 104.315 257.574 103.993 257.406 103.61C257.248 103.218 257.168 102.77 257.168 102.266C257.168 101.743 257.257 101.286 257.434 100.894C257.621 100.493 257.864 100.161 258.162 99.9C258.47 99.6387 258.82 99.4427 259.212 99.312C259.614 99.1813 260.034 99.116 260.472 99.116ZM260.472 100.236C260.192 100.236 259.926 100.283 259.674 100.376C259.432 100.46 259.212 100.586 259.016 100.754C258.83 100.922 258.68 101.132 258.568 101.384C258.466 101.636 258.414 101.925 258.414 102.252C258.414 102.579 258.466 102.868 258.568 103.12C258.68 103.372 258.825 103.587 259.002 103.764C259.189 103.941 259.408 104.077 259.66 104.17C259.912 104.263 260.183 104.31 260.472 104.31C260.762 104.31 261.028 104.268 261.27 104.184C261.522 104.091 261.742 103.96 261.928 103.792C262.115 103.615 262.26 103.4 262.362 103.148C262.474 102.896 262.53 102.611 262.53 102.294C262.53 101.967 262.474 101.678 262.362 101.426C262.26 101.165 262.115 100.95 261.928 100.782C261.742 100.605 261.522 100.469 261.27 100.376C261.028 100.283 260.762 100.236 260.472 100.236ZM267.18 100.754L265.276 101.468V100.222L268.398 99.032V109H267.18V100.754ZM271.584 109.042C271.332 109.014 271.141 108.925 271.01 108.776C270.889 108.627 270.828 108.449 270.828 108.244C270.828 107.992 270.912 107.787 271.08 107.628C271.257 107.469 271.463 107.39 271.696 107.39C271.967 107.39 272.191 107.474 272.368 107.642C272.545 107.81 272.634 108.039 272.634 108.328C272.634 108.571 272.564 108.832 272.424 109.112C272.284 109.401 272.097 109.77 271.864 110.218L271.36 111.24H270.394L271.584 109.042ZM277.551 109.14C277.047 109.14 276.59 109.065 276.179 108.916C275.768 108.767 275.414 108.561 275.115 108.3C274.826 108.039 274.602 107.726 274.443 107.362C274.284 106.998 274.205 106.601 274.205 106.172C274.205 105.556 274.368 105.019 274.695 104.562C275.031 104.105 275.53 103.787 276.193 103.61C276.006 103.545 275.824 103.451 275.647 103.33C275.479 103.199 275.33 103.05 275.199 102.882C275.068 102.705 274.961 102.509 274.877 102.294C274.802 102.07 274.765 101.823 274.765 101.552C274.765 101.169 274.83 100.824 274.961 100.516C275.101 100.208 275.292 99.9467 275.535 99.732C275.787 99.5173 276.081 99.354 276.417 99.242C276.762 99.1207 277.14 99.06 277.551 99.06C277.962 99.06 278.335 99.1207 278.671 99.242C279.016 99.354 279.31 99.5173 279.553 99.732C279.805 99.9467 279.996 100.208 280.127 100.516C280.267 100.824 280.337 101.169 280.337 101.552C280.337 101.823 280.295 102.07 280.211 102.294C280.136 102.509 280.029 102.705 279.889 102.882C279.758 103.05 279.604 103.199 279.427 103.33C279.259 103.451 279.086 103.545 278.909 103.61C279.572 103.787 280.066 104.105 280.393 104.562C280.729 105.019 280.897 105.556 280.897 106.172C280.897 106.601 280.818 106.998 280.659 107.362C280.5 107.726 280.276 108.039 279.987 108.3C279.698 108.561 279.343 108.767 278.923 108.916C278.512 109.065 278.055 109.14 277.551 109.14ZM277.551 108.006C278.167 108.006 278.671 107.838 279.063 107.502C279.455 107.157 279.651 106.69 279.651 106.102C279.651 105.495 279.455 105.029 279.063 104.702C278.671 104.375 278.167 104.212 277.551 104.212C276.935 104.212 276.431 104.375 276.039 104.702C275.656 105.029 275.465 105.495 275.465 106.102C275.465 106.69 275.656 107.157 276.039 107.502C276.431 107.838 276.935 108.006 277.551 108.006ZM277.551 103.19C278.055 103.19 278.442 103.045 278.713 102.756C278.984 102.457 279.119 102.098 279.119 101.678C279.119 101.221 278.984 100.857 278.713 100.586C278.442 100.315 278.055 100.18 277.551 100.18C277.047 100.18 276.66 100.315 276.389 100.586C276.128 100.857 275.997 101.221 275.997 101.678C275.997 102.098 276.128 102.457 276.389 102.756C276.66 103.045 277.047 103.19 277.551 103.19ZM284.761 103.666C284.425 103.666 284.112 103.61 283.823 103.498C283.543 103.386 283.295 103.232 283.081 103.036C282.875 102.831 282.712 102.588 282.591 102.308C282.479 102.028 282.423 101.72 282.423 101.384C282.423 101.039 282.479 100.726 282.591 100.446C282.712 100.166 282.875 99.928 283.081 99.732C283.286 99.5267 283.533 99.368 283.823 99.256C284.112 99.144 284.425 99.088 284.761 99.088C285.097 99.088 285.405 99.144 285.685 99.256C285.974 99.368 286.221 99.5267 286.427 99.732C286.641 99.928 286.809 100.166 286.931 100.446C287.052 100.726 287.113 101.039 287.113 101.384C287.113 101.72 287.052 102.028 286.931 102.308C286.809 102.588 286.641 102.831 286.427 103.036C286.221 103.232 285.974 103.386 285.685 103.498C285.405 103.61 285.097 103.666 284.761 103.666ZM284.761 102.658C285.153 102.658 285.465 102.541 285.699 102.308C285.932 102.075 286.049 101.767 286.049 101.384C286.049 100.992 285.932 100.684 285.699 100.46C285.465 100.227 285.153 100.11 284.761 100.11C284.378 100.11 284.07 100.227 283.837 100.46C283.603 100.684 283.487 100.992 283.487 101.384C283.487 101.767 283.603 102.075 283.837 102.308C284.07 102.541 284.378 102.658 284.761 102.658ZM289.871 109.112C289.535 109.112 289.222 109.056 288.933 108.944C288.653 108.832 288.405 108.678 288.191 108.482C287.985 108.277 287.822 108.034 287.701 107.754C287.589 107.474 287.533 107.161 287.533 106.816C287.533 106.48 287.589 106.172 287.701 105.892C287.822 105.612 287.985 105.374 288.191 105.178C288.396 104.973 288.643 104.814 288.933 104.702C289.222 104.59 289.535 104.534 289.871 104.534C290.207 104.534 290.515 104.59 290.795 104.702C291.084 104.814 291.331 104.973 291.537 105.178C291.751 105.374 291.919 105.612 292.041 105.892C292.162 106.172 292.223 106.48 292.223 106.816C292.223 107.161 292.162 107.474 292.041 107.754C291.919 108.034 291.751 108.277 291.537 108.482C291.331 108.678 291.084 108.832 290.795 108.944C290.515 109.056 290.207 109.112 289.871 109.112ZM289.871 108.09C290.263 108.09 290.571 107.978 290.795 107.754C291.028 107.521 291.145 107.208 291.145 106.816C291.145 106.424 291.028 106.116 290.795 105.892C290.571 105.659 290.263 105.542 289.871 105.542C289.488 105.542 289.18 105.659 288.947 105.892C288.713 106.125 288.597 106.433 288.597 106.816C288.597 107.208 288.713 107.521 288.947 107.754C289.18 107.978 289.488 108.09 289.871 108.09ZM284.425 109H283.137L290.235 99.2H291.481L284.425 109Z" fill="#777777"/>
<path d="M4.93175 3.2C5.43575 3.2 5.88842 3.27467 6.28975 3.424C6.69108 3.564 7.03175 3.76467 7.31175 4.026C7.60108 4.28733 7.82042 4.6 7.96975 4.964C8.12842 5.31867 8.20775 5.706 8.20775 6.126C8.20775 6.55533 8.12842 6.952 7.96975 7.316C7.82042 7.68 7.60108 7.99733 7.31175 8.268C7.03175 8.52933 6.68642 8.73933 6.27575 8.898C5.86508 9.04733 5.40775 9.122 4.90375 9.122H3.48975V13H2.17375V3.2H4.93175ZM4.83375 7.932C5.16042 7.932 5.44975 7.88533 5.70175 7.792C5.95375 7.69867 6.16375 7.57267 6.33175 7.414C6.50908 7.25533 6.63975 7.06867 6.72375 6.854C6.81708 6.63 6.86375 6.39667 6.86375 6.154C6.86375 5.91133 6.81708 5.68267 6.72375 5.468C6.63975 5.25333 6.51375 5.06667 6.34575 4.908C6.17775 4.74933 5.96308 4.62333 5.70175 4.53C5.44975 4.43667 5.15575 4.39 4.81975 4.39H3.48975V7.932H4.83375ZM10.2177 16.192L11.4077 12.972L8.84573 6.966V6.756H10.1197L12.0097 11.32L13.7037 6.756H14.8797L14.8657 6.966L11.3937 16.36H10.2177V16.192ZM18.6241 13.112C18.1294 13.112 17.6814 13.0327 17.2801 12.874C16.8787 12.706 16.5381 12.4773 16.2581 12.188C15.9781 11.8987 15.7587 11.558 15.6001 11.166C15.4507 10.7647 15.3761 10.3307 15.3761 9.864C15.3761 9.36 15.4601 8.912 15.6281 8.52C15.7961 8.11867 16.0247 7.778 16.3141 7.498C16.6127 7.218 16.9581 7.008 17.3501 6.868C17.7421 6.71867 18.1667 6.644 18.6241 6.644C19.1187 6.644 19.5761 6.728 19.9961 6.896C20.4161 7.064 20.7614 7.29267 21.0321 7.582L20.3461 8.492C20.1501 8.25867 19.9074 8.07667 19.6181 7.946C19.3287 7.81533 19.0161 7.75 18.6801 7.75C18.3907 7.75 18.1201 7.80133 17.8681 7.904C17.6254 7.99733 17.4107 8.13267 17.2241 8.31C17.0467 8.48733 16.9067 8.70667 16.8041 8.968C16.7014 9.22933 16.6501 9.51867 16.6501 9.836C16.6501 10.1533 16.7014 10.4473 16.8041 10.718C16.9067 10.9793 17.0514 11.208 17.2381 11.404C17.4247 11.5907 17.6441 11.74 17.8961 11.852C18.1481 11.9547 18.4281 12.006 18.7361 12.006C19.0907 12.006 19.4081 11.936 19.6881 11.796C19.9681 11.656 20.2014 11.4787 20.3881 11.264L21.1581 12.02C20.8874 12.3467 20.5374 12.6127 20.1081 12.818C19.6787 13.014 19.1841 13.112 18.6241 13.112ZM25.2276 13.112C24.7329 13.112 24.2849 13.0327 23.8836 12.874C23.4823 12.706 23.1416 12.4773 22.8616 12.188C22.5816 11.8987 22.3623 11.558 22.2036 11.166C22.0543 10.7647 21.9796 10.3307 21.9796 9.864C21.9796 9.36 22.0636 8.912 22.2316 8.52C22.3996 8.11867 22.6283 7.778 22.9176 7.498C23.2163 7.218 23.5616 7.008 23.9536 6.868C24.3456 6.71867 24.7703 6.644 25.2276 6.644C25.7223 6.644 26.1796 6.728 26.5996 6.896C27.0196 7.064 27.3649 7.29267 27.6356 7.582L26.9496 8.492C26.7536 8.25867 26.5109 8.07667 26.2216 7.946C25.9323 7.81533 25.6196 7.75 25.2836 7.75C24.9943 7.75 24.7236 7.80133 24.4716 7.904C24.2289 7.99733 24.0143 8.13267 23.8276 8.31C23.6503 8.48733 23.5103 8.70667 23.4076 8.968C23.3049 9.22933 23.2536 9.51867 23.2536 9.836C23.2536 10.1533 23.3049 10.4473 23.4076 10.718C23.5103 10.9793 23.6549 11.208 23.8416 11.404C24.0283 11.5907 24.2476 11.74 24.4996 11.852C24.7516 11.9547 25.0316 12.006 25.3396 12.006C25.6943 12.006 26.0116 11.936 26.2916 11.796C26.5716 11.656 26.8049 11.4787 26.9916 11.264L27.7616 12.02C27.4909 12.3467 27.1409 12.6127 26.7116 12.818C26.2823 13.014 25.7876 13.112 25.2276 13.112ZM29.0718 6.756H30.3178V9.164H31.0178L32.8798 6.756H34.2098V6.938L31.9978 9.612L34.7418 12.832V13H33.3138L30.9338 10.172H30.3178V13H29.0718V6.756ZM35.7573 6.756H37.0033V10.872L40.4753 6.756H41.3153V13H40.0553V8.8L36.4993 13H35.7573V6.756ZM43.2632 6.756H44.5092V10.872L47.9812 6.756H48.8212V13H47.5612V8.8L44.0052 13H43.2632V6.756ZM46.0352 5.832C45.7459 5.832 45.4752 5.79467 45.2232 5.72C44.9805 5.636 44.7705 5.51933 44.5932 5.37C44.4159 5.21133 44.2759 5.02 44.1732 4.796C44.0705 4.56267 44.0192 4.29667 44.0192 3.998H45.0412C45.0412 4.278 45.1252 4.50667 45.2932 4.684C45.4705 4.86133 45.7272 4.95 46.0632 4.95C46.3899 4.95 46.6419 4.866 46.8192 4.698C46.9965 4.53 47.0899 4.29667 47.0992 3.998H48.1072C48.0885 4.60467 47.8832 5.062 47.4912 5.37C47.1085 5.678 46.6232 5.832 46.0352 5.832ZM53.8878 12.832L55.4558 10.718C54.5878 10.438 54.1538 9.81267 54.1538 8.842C54.1538 8.15133 54.3731 7.63333 54.8118 7.288C55.2504 6.93333 55.9411 6.756 56.8838 6.756H59.3338V13H58.0878V10.886H56.7998L55.2598 13H53.8878V12.832ZM58.0878 9.92V7.82H56.9258C56.4404 7.82 56.0671 7.88533 55.8058 8.016C55.5444 8.13733 55.4138 8.422 55.4138 8.87C55.4138 9.27133 55.5258 9.54667 55.7498 9.696C55.9738 9.84533 56.3378 9.92 56.8418 9.92H58.0878ZM63.1584 13.112C62.8224 13.112 62.5144 13.0793 62.2344 13.014C61.9637 12.9487 61.7211 12.8647 61.5064 12.762C61.3011 12.65 61.1237 12.5333 60.9744 12.412C60.8344 12.2813 60.7177 12.16 60.6244 12.048L61.4224 11.264C61.5997 11.4787 61.8284 11.656 62.1084 11.796C62.3884 11.936 62.7337 12.006 63.1444 12.006C63.6017 12.006 63.9517 11.9173 64.1944 11.74C64.4371 11.5627 64.5584 11.3247 64.5584 11.026C64.5584 10.774 64.4557 10.5687 64.2504 10.41C64.0451 10.2513 63.7184 10.172 63.2704 10.172H62.3744V9.15H63.1024C63.4477 9.15 63.7231 9.09867 63.9284 8.996C64.1337 8.884 64.2364 8.70667 64.2364 8.464C64.2364 8.24 64.1244 8.06267 63.9004 7.932C63.6857 7.80133 63.4057 7.736 63.0604 7.736C62.7617 7.736 62.4864 7.792 62.2344 7.904C61.9917 8.016 61.7631 8.16533 61.5484 8.352L60.9324 7.484C61.1657 7.26933 61.4597 7.078 61.8144 6.91C62.1691 6.73267 62.6124 6.644 63.1444 6.644C63.8537 6.644 64.4137 6.798 64.8244 7.106C65.2444 7.414 65.4544 7.806 65.4544 8.282C65.4544 8.58067 65.3704 8.842 65.2024 9.066C65.0437 9.28067 64.8244 9.45333 64.5444 9.584C64.9644 9.71467 65.2817 9.92 65.4964 10.2C65.7111 10.4707 65.8184 10.7927 65.8184 11.166C65.8184 11.4367 65.7577 11.6933 65.6364 11.936C65.5151 12.1693 65.3377 12.3747 65.1044 12.552C64.8804 12.7293 64.6051 12.8693 64.2784 12.972C63.9517 13.0653 63.5784 13.112 63.1584 13.112ZM69.7083 8.772C70.5577 8.772 71.2017 8.94 71.6403 9.276C72.079 9.60267 72.2983 10.13 72.2983 10.858C72.2983 11.5673 72.0743 12.104 71.6263 12.468C71.1877 12.8227 70.5017 13 69.5683 13H67.2163V6.756H68.4623V8.772H69.7083ZM73.0823 6.756H74.3283V13H73.0823V6.756ZM69.4003 11.936C69.643 11.936 69.8623 11.922 70.0583 11.894C70.2637 11.866 70.4363 11.8147 70.5763 11.74C70.7257 11.6653 70.8377 11.558 70.9123 11.418C70.987 11.2687 71.0243 11.082 71.0243 10.858C71.0243 10.4567 70.8937 10.186 70.6323 10.046C70.371 9.89667 69.993 9.822 69.4983 9.822H68.4623V11.936H69.4003ZM76.2945 6.756H77.5405V9.164H78.2405L80.1025 6.756H81.4325V6.938L79.2205 9.612L81.9645 12.832V13H80.5365L78.1565 10.172H77.5405V13H76.2945V6.756Z" fill="#2D2D2D"/>
<path d="M55.1349 34.14C54.6309 34.14 54.1735 34.0653 53.7629 33.916C53.3522 33.7667 52.9975 33.5613 52.6989 33.3C52.4095 33.0387 52.1855 32.726 52.0269 32.362C51.8682 31.998 51.7889 31.6013 51.7889 31.172C51.7889 30.556 51.9522 30.0193 52.2789 29.562C52.6149 29.1047 53.1142 28.7873 53.7769 28.61C53.5902 28.5447 53.4082 28.4513 53.2309 28.33C53.0629 28.1993 52.9135 28.05 52.7829 27.882C52.6522 27.7047 52.5449 27.5087 52.4609 27.294C52.3862 27.07 52.3489 26.8227 52.3489 26.552C52.3489 26.1693 52.4142 25.824 52.5449 25.516C52.6849 25.208 52.8762 24.9467 53.1189 24.732C53.3709 24.5173 53.6649 24.354 54.0009 24.242C54.3462 24.1207 54.7242 24.06 55.1349 24.06C55.5455 24.06 55.9189 24.1207 56.2549 24.242C56.6002 24.354 56.8942 24.5173 57.1369 24.732C57.3889 24.9467 57.5802 25.208 57.7109 25.516C57.8509 25.824 57.9209 26.1693 57.9209 26.552C57.9209 26.8227 57.8789 27.07 57.7949 27.294C57.7202 27.5087 57.6129 27.7047 57.4729 27.882C57.3422 28.05 57.1882 28.1993 57.0109 28.33C56.8429 28.4513 56.6702 28.5447 56.4929 28.61C57.1555 28.7873 57.6502 29.1047 57.9769 29.562C58.3129 30.0193 58.4809 30.556 58.4809 31.172C58.4809 31.6013 58.4015 31.998 58.2429 32.362C58.0842 32.726 57.8602 33.0387 57.5709 33.3C57.2815 33.5613 56.9269 33.7667 56.5069 33.916C56.0962 34.0653 55.6389 34.14 55.1349 34.14ZM55.1349 33.006C55.7509 33.006 56.2549 32.838 56.6469 32.502C57.0389 32.1567 57.2349 31.69 57.2349 31.102C57.2349 30.4953 57.0389 30.0287 56.6469 29.702C56.2549 29.3753 55.7509 29.212 55.1349 29.212C54.5189 29.212 54.0149 29.3753 53.6229 29.702C53.2402 30.0287 53.0489 30.4953 53.0489 31.102C53.0489 31.69 53.2402 32.1567 53.6229 32.502C54.0149 32.838 54.5189 33.006 55.1349 33.006ZM55.1349 28.19C55.6389 28.19 56.0262 28.0453 56.2969 27.756C56.5675 27.4573 56.7029 27.098 56.7029 26.678C56.7029 26.2207 56.5675 25.8567 56.2969 25.586C56.0262 25.3153 55.6389 25.18 55.1349 25.18C54.6309 25.18 54.2435 25.3153 53.9729 25.586C53.7115 25.8567 53.5809 26.2207 53.5809 26.678C53.5809 27.098 53.7115 27.4573 53.9729 27.756C54.2435 28.0453 54.6309 28.19 55.1349 28.19ZM60.7207 34.042C60.4687 34.014 60.2773 33.9253 60.1467 33.776C60.0253 33.6267 59.9647 33.4493 59.9647 33.244C59.9647 32.992 60.0487 32.7867 60.2167 32.628C60.394 32.4693 60.5993 32.39 60.8327 32.39C61.1033 32.39 61.3273 32.474 61.5047 32.642C61.682 32.81 61.7707 33.0387 61.7707 33.328C61.7707 33.5707 61.7007 33.832 61.5607 34.112C61.4207 34.4013 61.234 34.77 61.0007 35.218L60.4967 36.24H59.5307L60.7207 34.042ZM63.5796 33.706L66.5896 29.996C66.8976 29.6133 67.1496 29.2773 67.3456 28.988C67.5416 28.6893 67.7003 28.414 67.8216 28.162C67.9429 27.91 68.0269 27.6767 68.0736 27.462C68.1203 27.238 68.1436 27.0093 68.1436 26.776C68.1436 26.2533 67.9989 25.866 67.7096 25.614C67.4203 25.362 67.0423 25.236 66.5756 25.236C65.8103 25.236 65.1243 25.6093 64.5176 26.356L63.6636 25.67C63.8036 25.474 63.9669 25.2827 64.1536 25.096C64.3496 24.9 64.5736 24.732 64.8256 24.592C65.0776 24.4427 65.3529 24.326 65.6516 24.242C65.9596 24.1487 66.2909 24.102 66.6456 24.102C67.0843 24.102 67.4716 24.1673 67.8076 24.298C68.1529 24.4193 68.4376 24.5967 68.6616 24.83C68.8949 25.054 69.0723 25.32 69.1936 25.628C69.3149 25.936 69.3756 26.272 69.3756 26.636C69.3756 26.9253 69.3476 27.21 69.2916 27.49C69.2356 27.77 69.1423 28.064 69.0116 28.372C68.8809 28.6707 68.7036 28.988 68.4796 29.324C68.2649 29.6507 67.9989 30.01 67.6816 30.402L65.6656 32.866H69.5576V34H63.5796V33.706ZM73.7607 28.666C73.4247 28.666 73.112 28.61 72.8227 28.498C72.5427 28.386 72.2953 28.232 72.0807 28.036C71.8753 27.8307 71.712 27.588 71.5907 27.308C71.4787 27.028 71.4227 26.72 71.4227 26.384C71.4227 26.0387 71.4787 25.726 71.5907 25.446C71.712 25.166 71.8753 24.928 72.0807 24.732C72.286 24.5267 72.5333 24.368 72.8227 24.256C73.112 24.144 73.4247 24.088 73.7607 24.088C74.0967 24.088 74.4047 24.144 74.6847 24.256C74.974 24.368 75.2213 24.5267 75.4267 24.732C75.6413 24.928 75.8093 25.166 75.9307 25.446C76.052 25.726 76.1127 26.0387 76.1127 26.384C76.1127 26.72 76.052 27.028 75.9307 27.308C75.8093 27.588 75.6413 27.8307 75.4267 28.036C75.2213 28.232 74.974 28.386 74.6847 28.498C74.4047 28.61 74.0967 28.666 73.7607 28.666ZM73.7607 27.658C74.1527 27.658 74.4653 27.5413 74.6987 27.308C74.932 27.0747 75.0487 26.7667 75.0487 26.384C75.0487 25.992 74.932 25.684 74.6987 25.46C74.4653 25.2267 74.1527 25.11 73.7607 25.11C73.378 25.11 73.07 25.2267 72.8367 25.46C72.6033 25.684 72.4867 25.992 72.4867 26.384C72.4867 26.7667 72.6033 27.0747 72.8367 27.308C73.07 27.5413 73.378 27.658 73.7607 27.658ZM78.8707 34.112C78.5347 34.112 78.222 34.056 77.9327 33.944C77.6527 33.832 77.4053 33.678 77.1907 33.482C76.9853 33.2767 76.822 33.034 76.7007 32.754C76.5887 32.474 76.5327 32.1613 76.5327 31.816C76.5327 31.48 76.5887 31.172 76.7007 30.892C76.822 30.612 76.9853 30.374 77.1907 30.178C77.396 29.9727 77.6433 29.814 77.9327 29.702C78.222 29.59 78.5347 29.534 78.8707 29.534C79.2067 29.534 79.5147 29.59 79.7947 29.702C80.084 29.814 80.3313 29.9727 80.5367 30.178C80.7513 30.374 80.9193 30.612 81.0407 30.892C81.162 31.172 81.2227 31.48 81.2227 31.816C81.2227 32.1613 81.162 32.474 81.0407 32.754C80.9193 33.034 80.7513 33.2767 80.5367 33.482C80.3313 33.678 80.084 33.832 79.7947 33.944C79.5147 34.056 79.2067 34.112 78.8707 34.112ZM78.8707 33.09C79.2627 33.09 79.5707 32.978 79.7947 32.754C80.028 32.5207 80.1447 32.208 80.1447 31.816C80.1447 31.424 80.028 31.116 79.7947 30.892C79.5707 30.6587 79.2627 30.542 78.8707 30.542C78.488 30.542 78.18 30.6587 77.9467 30.892C77.7133 31.1253 77.5967 31.4333 77.5967 31.816C77.5967 32.208 77.7133 32.5207 77.9467 32.754C78.18 32.978 78.488 33.09 78.8707 33.09ZM73.4247 34H72.1367L79.2347 24.2H80.4807L73.4247 34Z" fill="#777777"/>
</svg>
