<svg width="69" height="129" viewBox="0 0 69 129" fill="none" xmlns="http://www.w3.org/2000/svg">
<path d="M0.337372 46.4795C5.74232 15.6435 27.3129 16.5001 27.3129 16.5001C36.6615 15.7366 46.0662 16.6845 55.1016 19.301C47.9223 -1.91585 54.4444 -8.65693 62.1822 -16.6743C64.5329 -19.132 66.7047 -21.7689 68.6797 -24.5632L69 -25V129L68.4414 126.961C60.449 99.9028 32.8574 95.2089 32.8574 95.2089C58.3215 89.5728 60.1861 65.7177 60.1861 65.7177C60.1861 32.9202 36.3074 27.2413 25.0868 36.8518C13.8662 46.4624 16.9629 66.3858 32.8574 54.454C47.8155 43.2246 47.5691 59.5934 47.487 64.8783C47.487 65.2038 47.487 65.4865 47.487 65.7349C47.487 69.7178 41.4495 77.5468 26.5079 75.6538C-4.96902 71.6622 0.337372 46.4795 0.337372 46.4795Z" fill="url(#paint0_linear_291_9525)" fill-opacity="0.1"/>
<defs>
<linearGradient id="paint0_linear_291_9525" x1="34.2444" y1="-39.9204" x2="34.2832" y2="149.167" gradientUnits="userSpaceOnUse">
<stop stop-color="white"/>
<stop offset="0.713427" stop-color="white"/>
<stop offset="0.989758" stop-color="#EFEFEF"/>
</linearGradient>
</defs>
</svg>
