<svg width="113" height="249" viewBox="0 0 113 249" fill="none" xmlns="http://www.w3.org/2000/svg">
<path d="M0.552498 115.574C9.40409 65.7158 44.7297 67.1008 44.7297 67.1008C60.0399 65.8663 75.4418 67.399 90.2388 71.6296C78.4815 37.3244 89.1626 26.4248 101.835 13.4617C105.684 9.48784 109.241 5.22425 112.475 0.706327L113 0V249L112.085 245.704C98.9962 201.953 53.81 194.364 53.81 194.364C95.5121 185.251 98.5657 146.68 98.5657 146.68C98.5657 93.6503 59.46 84.4681 41.0842 100.007C22.7084 115.546 27.7799 147.76 53.81 128.468C78.3066 110.311 77.903 136.778 77.7685 145.323C77.7685 145.849 77.7685 146.306 77.7685 146.708C77.7685 153.148 67.8811 165.806 43.4114 162.745C-8.13769 156.292 0.552498 115.574 0.552498 115.574Z" fill="url(#paint0_linear_39_6188)"/>
<defs>
<linearGradient id="paint0_linear_39_6188" x1="57" y1="210.5" x2="57" y2="-19" gradientUnits="userSpaceOnUse">
<stop stop-color="#01858F"/>
<stop offset="1" stop-color="#017178"/>
</linearGradient>
</defs>
</svg>
