<svg width="131" height="292" viewBox="0 0 131 292" fill="none" xmlns="http://www.w3.org/2000/svg">
<path opacity="0.1" d="M0.640518 135.533C10.9021 77.0644 51.8548 78.6885 51.8548 78.6885C69.6037 77.2408 87.459 79.0382 104.613 83.9993C90.983 43.77 103.365 30.9882 118.056 15.7864C122.519 11.1263 126.642 6.12643 130.392 0.828303L131 0L131 292L129.94 288.135C114.766 236.829 62.3815 227.929 62.3815 227.929C110.726 217.242 114.266 172.01 114.266 172.01C114.266 109.823 68.9315 99.0549 47.6286 117.278C26.3257 135.5 32.205 173.277 62.3815 150.653C90.7802 129.361 90.3124 160.398 90.1564 170.419C90.1564 171.036 90.1564 171.572 90.1564 172.043C90.1564 179.595 78.694 194.439 50.3265 190.85C-9.43394 183.282 0.640518 135.533 0.640518 135.533Z" fill="#DFEAEB"/>
</svg>
