<svg width="38" height="54" viewBox="0 0 38 54" fill="none" xmlns="http://www.w3.org/2000/svg">
<path d="M34.6035 37.5108L33.9179 37.7123C34.1688 36.9008 34.7415 34.2564 32.2416 32.545C29.7779 30.8582 24.7618 26.0002 23.4156 20.9008L24.1318 20.6903C25.0309 20.426 25.4778 19.5027 25.2135 18.6036L25.1537 18.4001C24.8894 17.501 23.9462 16.9863 23.0471 17.2506C23.9462 16.9863 24.4609 16.043 24.1966 15.1439L24.1368 14.9404C23.8725 14.0413 22.997 13.5067 22.0979 13.771L21.1564 14.0477C19.4358 9.74662 18.8002 5.22123 19.0989 2.56607C19.2128 1.55426 19.471 0.734371 19.762 0.0863469L20.0411 0.00433176C20.9402 -0.25996 21.3871 -1.1833 21.1228 -2.08241L21.063 -2.28592C20.7987 -3.18503 19.9232 -3.71965 19.0241 -3.45536L17.0297 -2.86911C16.0109 -4.9787 14.0041 -6.39413 11.7542 -6.70936C11.9611 -7.34658 11.9855 -8.05021 11.7823 -8.74154C11.246 -10.5662 9.33273 -11.6105 7.50785 -11.0741C5.68296 -10.5377 4.63877 -8.62405 5.17507 -6.79958C5.37757 -6.11069 5.77645 -5.5337 6.29273 -5.11017C4.56434 -3.62797 3.638 -1.34724 3.92371 0.983142L1.72579 1.62921C0.826674 1.89351 0.244209 2.85668 0.508501 3.7558L0.568322 3.95931C0.832614 4.85842 1.84364 5.3532 2.74275 5.0889L3.22528 4.94707C3.82071 5.33451 4.48154 5.88424 5.12478 6.67351C6.81277 8.7447 8.72718 12.8942 9.60771 17.4422L8.66627 17.7189C7.76716 17.9832 7.18469 18.9464 7.44898 19.8455L7.5088 20.049C7.7731 20.9481 8.71635 21.4628 9.61547 21.1985C8.71635 21.4628 8.20166 22.4061 8.46595 23.3052L8.52577 23.5087C8.79006 24.4078 9.80109 24.9026 10.7002 24.6383L11.4332 24.4228C13.0609 29.4395 11.4717 36.239 10.3124 38.9909C9.13625 41.7825 11.0487 43.6967 11.6989 44.2433L10.9964 44.4498C10.0973 44.7141 9.51479 45.6773 9.77908 46.5764L10.3175 48.408C10.5614 49.2379 11.373 49.7423 12.2165 49.6033L13.2376 53.077L37.2519 46.0181L36.2308 42.5444C37.0154 42.2048 37.4249 41.3415 37.1809 40.5116L36.6426 38.68C36.3781 37.7811 35.5026 37.2465 34.6035 37.5108Z" fill="#028C97"/>
</svg>
