<svg width="39" height="54" viewBox="0 0 39 54" fill="none" xmlns="http://www.w3.org/2000/svg">
<path d="M29.13 17.1917C31.8984 16.2779 33.4087 13.2908 32.495 10.5224C31.5812 7.75405 28.9304 6.54946 25.6101 6.48155C23.261 6.43338 21.6019 5.57632 20.149 4.2876C18.6961 2.99888 15.837 1.19765 13.1451 2.08613C12.0624 2.44349 9.46964 3.29925 9.46964 3.29925L8.42797 0.143218C-8.98365 14.1312 6.2673 38.737 6.2673 38.737L10.2344 37.4277L11.0923 40.0268L9.90988 40.417C9.08968 40.6877 8.52703 41.6109 8.79774 42.4311L8.85902 42.6167C9.06055 43.2273 9.66083 43.6102 10.2631 43.6646C9.55712 46.996 11.8241 49.2793 12.4668 49.8667L11.4882 50.1897C10.668 50.4604 10.1054 51.3836 10.3761 52.2038L11.4791 55.5455C11.7498 56.3657 12.7118 56.7856 13.4544 56.5405L14.4348 59.5108L38.9405 51.4226L37.9559 48.4394C38.6683 48.1027 39.0193 47.2951 38.7695 46.5381L37.6665 43.1964C37.3958 42.3762 36.6285 41.892 35.8083 42.1627L35.0156 42.4244C35.1825 41.5697 35.5279 38.4242 32.9772 36.1676C33.4287 35.7654 33.5659 35.1392 33.3643 34.5286L33.3031 34.3429C33.0323 33.5227 32.265 33.0385 31.4448 33.3093L30.0281 33.7768L29.1703 31.1778L33.6503 29.6991C27.2781 20.6851 16.2497 18.3548 16.2497 18.3548L23.7094 15.8927C25.0786 17.2708 27.1619 17.8412 29.13 17.1917Z" fill="#028C97"/>
</svg>
