<svg width="119" height="50" viewBox="0 0 119 50" fill="none" xmlns="http://www.w3.org/2000/svg">
<g clip-path="url(#clip0_138_2359)">
<path fill-rule="evenodd" clip-rule="evenodd" d="M46.6328 0.999623C43.9184 -0.00551867 40.4907 -0.388629 36.6328 -0.000377387H35.6328L36.6328 3.99962C35.3615 6.04226 33.7917 8.49755 32.6328 10.9996C32.0093 12.3456 32.0096 14.1153 31.6328 14.9996C31.4411 15.431 30.7386 15.7516 30.6328 15.9996V16.9996L34.6328 19.9996H35.6328C35.8157 19.8702 35.3111 19.2218 35.6328 18.9996C36.2718 18.5553 37.7537 18.5604 38.6328 17.9996C39.4313 17.4795 39.7815 16.4322 40.6328 15.9996C40.8814 15.8748 41.3667 16.083 41.6328 15.9996C41.9509 16.2403 42.4268 16.6616 42.6328 16.9996C42.7845 17.268 42.6551 17.6937 42.6328 17.9996C42.5932 18.7157 42.3334 18.6731 41.6328 19.9996C41.5777 20.1053 41.6923 20.8918 41.6328 20.9996C41.364 21.513 40.9413 21.4971 40.6328 21.9996C39.4585 23.9193 37.7364 25.9683 37.6328 29.9996C37.6328 29.9996 40.5001 31.3884 42.6328 32.9996C46.1117 35.6225 46.624 38.9435 46.6328 38.9996V0.999623Z" fill="#00939C"/>
<path fill-rule="evenodd" clip-rule="evenodd" d="M46.6328 0.999623C43.9184 -0.00551867 40.4907 -0.388629 36.6328 -0.000377387H35.6328L36.6328 3.99962C35.3615 6.04226 33.7917 8.49755 32.6328 10.9996C32.0093 12.3456 32.0096 14.1153 31.6328 14.9996C31.4411 15.431 30.7386 15.7516 30.6328 15.9996V16.9996L34.6328 19.9996H35.6328C35.8157 19.8702 35.3111 19.2218 35.6328 18.9996C36.2718 18.5553 37.7537 18.5604 38.6328 17.9996C39.4313 17.4795 39.7815 16.4322 40.6328 15.9996C40.8814 15.8748 41.3667 16.083 41.6328 15.9996C41.9509 16.2403 42.4268 16.6616 42.6328 16.9996C42.7845 17.268 42.6551 17.6937 42.6328 17.9996C42.5932 18.7157 42.3334 18.6731 41.6328 19.9996C41.5777 20.1053 41.6923 20.8918 41.6328 20.9996C41.364 21.513 40.9413 21.4971 40.6328 21.9996C39.4585 23.9193 37.7364 25.9683 37.6328 29.9996C37.6328 29.9996 40.5001 31.3884 42.6328 32.9996C46.1117 35.6225 46.624 38.9435 46.6328 38.9996V0.999623Z" fill="url(#paint0_linear_138_2359)"/>
<path d="M48.6328 49.9697C48.6328 49.9955 48.6478 50.0213 48.6328 49.9697V49.9697Z" fill="#C0A062"/>
<path d="M48.9766 49.7373C48.9766 49.7631 48.9916 49.7888 48.9766 49.7373V49.7373Z" fill="url(#paint1_linear_138_2359)"/>
<path d="M48.6328 49V48C50.7129 41.321 57.6328 41 57.6328 41C51.0123 39.6088 50.6328 33 50.6328 33C50.6328 24.9044 56.7155 23.6278 59.6328 26C62.5501 28.3722 61.7653 33.9452 57.6328 31C53.7438 28.2282 54.6115 31.6955 54.6328 33C54.6328 32.9387 54.6328 33.0803 54.6328 33C54.6328 33.9831 55.7502 36.4673 59.6328 36C67.8145 35.019 66.6328 29 66.6328 29C65.2276 21.3886 59.6328 21 59.6328 21C57.2022 20.8115 54.9819 21.3542 52.6328 22C54.4994 16.7629 52.6446 14.979 50.6328 13C50.0228 12.3923 49.1476 11.6887 48.6328 11V49Z" fill="#C0A062"/>
<path d="M48.6328 49V48C50.7129 41.321 57.6328 41 57.6328 41C51.0123 39.6088 50.6328 33 50.6328 33C50.6328 24.9044 56.7155 23.6278 59.6328 26C62.5501 28.3722 61.7653 33.9452 57.6328 31C53.7438 28.2282 54.6115 31.6955 54.6328 33C54.6328 32.9387 54.6328 33.0803 54.6328 33C54.6328 33.9831 55.7502 36.4673 59.6328 36C67.8145 35.019 66.6328 29 66.6328 29C65.2276 21.3886 59.6328 21 59.6328 21C57.2022 20.8115 54.9819 21.3542 52.6328 22C54.4994 16.7629 52.6446 14.979 50.6328 13C50.0228 12.3923 49.1476 11.6887 48.6328 11V49Z" fill="url(#paint2_linear_138_2359)"/>
<path d="M4.63281 26L9.63281 32H7.63281L3.63281 27L2.63281 29V32H0.632812V22H2.63281V27L7.63281 22H9.63281L4.63281 26Z" fill="#565656"/>
<path d="M13.6328 32C11.9847 32 10.6328 31.381 10.6328 30C10.6328 28.619 11.7006 28.2245 13.6328 28L15.6328 27C16.2834 26.9252 16.6328 26.6213 16.6328 26C16.6328 25.1905 15.793 25 14.6328 25C13.3989 25 12.7629 25.8299 12.6328 27H10.6328C10.8041 25.4263 12.3818 24 14.6328 24C16.5846 24 18.6328 25.0816 18.6328 27V30V32H17.6328L16.6328 30C16.3596 31.3605 15.4675 32 13.6328 32ZM13.6328 31C15.1682 31 16.6328 30.5283 16.6328 29V27C16.4767 27.3311 16.2205 27.8912 15.6328 28H13.6328C12.6006 28.195 12.6328 29.1451 12.6328 30C12.6328 30.8549 12.4726 31 13.6328 31Z" fill="#565656"/>
<path d="M26.6328 31H19.6328V30L24.6328 25H19.6328V24H26.6328V25L21.6328 30H26.6328V31Z" fill="#565656"/>
<path d="M77.6328 31C74.1082 31 71.6328 29.0002 71.6328 26C71.6328 22.918 74.022 21 77.6328 21C80.8501 21 83.4537 22.664 83.6328 25H81.6328C81.4427 23.1361 79.9855 22 77.6328 22C75.1032 22 73.6328 23.5823 73.6328 26C73.6328 28.4872 75.0612 30 77.6328 30C79.9435 30 81.4272 28.8394 81.6328 27H83.6328C83.4471 29.3074 80.9496 31 77.6328 31Z" fill="#565656"/>
<path d="M88.6328 24C90.4153 24 91.6328 24.9842 91.6328 27V31H90.6328V27C90.6328 25.4061 88.9157 25 87.6328 25C86.3499 25 85.6328 25.387 85.6328 27V31H84.6328V21H85.6328V26H86.6328C86.8986 24.6512 87.284 24 88.6328 24Z" fill="#565656"/>
<path d="M101.633 28H95.6328C95.6328 29.8202 96.109 31 97.6328 31C98.8992 31 100.429 30.1454 100.633 29H101.633C101.4 30.6448 99.6879 32 97.6328 32C95.3039 32 93.6328 30.4218 93.6328 28C93.6328 25.5782 95.2894 24 97.6328 24C99.8979 24 101.633 25.8557 101.633 28C101.645 27.8835 101.635 28.1171 101.633 28ZM97.6328 25C96.2037 25 95.7008 25.444 95.6328 27H100.633C100.64 26.6462 99.7559 26.3281 99.6328 26C99.5098 25.6719 99.8663 25.2488 99.6328 25C99.3993 24.7512 98.9386 25.1288 98.6328 25C98.3271 24.8712 97.9609 24.9878 97.6328 25Z" fill="#565656"/>
<path d="M106.633 32C104.619 32 102.873 30.6219 102.633 29H103.633C103.817 30.2248 105.254 31 106.633 31C107.731 31 108.633 30.812 108.633 30C108.633 29.3307 107.6 29.1472 106.633 29L105.633 28C104.03 27.7948 102.633 27.1065 102.633 26C102.633 24.599 104.804 24 106.633 24C108.58 24 109.475 25.4964 109.633 27H108.633C108.461 25.7619 106.837 25 105.633 25C104.599 25 104.633 25.179 104.633 26C104.633 26.647 104.811 26.884 105.633 27H106.633C108.222 27.2231 109.633 28.657 109.633 30C109.629 31.4545 108.526 32 106.633 32Z" fill="#565656"/>
<path d="M115.633 32C113.628 32 111.871 30.6228 111.633 29H112.633C112.819 30.2254 114.254 31 115.633 31C116.733 31 117.633 30.8125 117.633 30C117.633 29.3304 116.601 29.1473 115.633 29L114.633 28C113.029 27.7946 111.633 27.1071 111.633 26C111.633 24.5982 113.803 24 115.633 24C117.581 24 118.474 25.4955 118.633 27H117.633C117.46 25.7612 115.838 25 114.633 25C113.598 25 113.633 25.1786 113.633 26C113.633 26.6473 113.811 26.8839 114.633 27H115.633C117.222 27.2232 118.633 28.6562 118.633 30C118.631 31.4509 117.527 32 115.633 32Z" fill="#565656"/>
</g>
<defs>
<linearGradient id="paint0_linear_138_2359" x1="38.624" y1="-0.150176" x2="38.624" y2="38.9953" gradientUnits="userSpaceOnUse">
<stop stop-color="#00939C"/>
<stop offset="1" stop-color="#006369"/>
</linearGradient>
<linearGradient id="paint1_linear_138_2359" x1="48.9809" y1="11.0677" x2="48.9809" y2="49.7674" gradientUnits="userSpaceOnUse">
<stop stop-color="#DBC498"/>
<stop offset="1" stop-color="#9C814D"/>
</linearGradient>
<linearGradient id="paint2_linear_138_2359" x1="57.6592" y1="11.0042" x2="57.6592" y2="49.1121" gradientUnits="userSpaceOnUse">
<stop stop-color="#DBC498"/>
<stop offset="1" stop-color="#9C814D"/>
</linearGradient>
<clipPath id="clip0_138_2359">
<rect width="118" height="50" fill="white" transform="translate(0.632812)"/>
</clipPath>
</defs>
</svg>
