<svg width="36" height="36" viewBox="0 0 36 36" fill="none" xmlns="http://www.w3.org/2000/svg">
<g clip-path="url(#clip0_138_2278)">
<g clip-path="url(#clip1_138_2278)">
<g clip-path="url(#clip2_138_2278)">
<path d="M36 18C36 8.05887 27.9411 0 18 0C8.05887 0 0 8.05887 0 18C0 27.9411 8.05887 36 18 36C27.9411 36 36 27.9411 36 18Z" fill="#F5F5F6"/>
<path d="M26 13.7143C26 12.8893 25.0602 12 24.2353 12H12.7647C11.9397 12 11 12.8893 11 13.7143V22.2857C11 23.1106 11.9397 24 12.7647 24H24.2353C25.0602 24 26 23.1106 26 22.2857V13.7143ZM24.2353 13.7143L18.9412 17.1429L12.7647 13.7143H24.2353ZM24.2353 22.2857H12.7647V15.4286L18.9412 18.8571L24.2353 15.4286V22.2857Z" fill="#018A93"/>
<path d="M24.2897 13.7982L24.5737 13.6143H24.2353H12.7647H12.3785L12.7162 13.8017L18.8926 17.2303L18.9451 17.2594L18.9955 17.2268L24.2897 13.7982ZM24.2353 22.3857H24.3353V22.2857V15.4286V15.2447L24.1809 15.3446L18.9372 18.7406L12.8132 15.3411L12.6647 15.2587V15.4286V22.2857V22.3857H12.7647H24.2353ZM24.2353 12.1C24.6142 12.1 25.0318 12.3062 25.3576 12.6198C25.6836 12.9336 25.9 13.3379 25.9 13.7143V22.2857C25.9 22.6621 25.6836 23.0663 25.3576 23.3802C25.0318 23.6938 24.6142 23.9 24.2353 23.9H12.7647C12.3857 23.9 11.9681 23.6938 11.6423 23.3802C11.3164 23.0663 11.1 22.6621 11.1 22.2857V13.7143C11.1 13.3379 11.3164 12.9336 11.6423 12.6198C11.9681 12.3062 12.3857 12.1 12.7647 12.1H24.2353Z" stroke="#F5F5F6" stroke-width="0.2"/>
</g>
</g>
</g>
<defs>
<clipPath id="clip0_138_2278">
<rect width="36" height="36" rx="18" fill="white"/>
</clipPath>
<clipPath id="clip1_138_2278">
<rect width="36" height="36" fill="white"/>
</clipPath>
<clipPath id="clip2_138_2278">
<rect width="36" height="36" fill="white"/>
</clipPath>
</defs>
</svg>
