<svg width="36" height="36" viewBox="0 0 36 36" fill="none" xmlns="http://www.w3.org/2000/svg">
<g clip-path="url(#clip0_504_4999)">
<g clip-path="url(#clip1_504_4999)">
<path d="M36 18C36 8.05887 27.9411 0 18 0C8.05887 0 0 8.05887 0 18C0 27.9411 8.05887 36 18 36C27.9411 36 36 27.9411 36 18Z" fill="#F5F5F6"/>
<path d="M20.8583 20.5757L21.2383 20.1982L20.3558 19.3116L19.9775 19.6891L20.8583 20.5757ZM22.5125 20.0399L24.105 20.9057L24.7008 19.8074L23.1091 18.9424L22.5125 20.0399ZM24.4108 22.6257L23.2275 23.8032L24.1083 24.6891L25.2916 23.5124L24.4108 22.6257ZM22.5058 24.1816C21.2975 24.2949 18.1725 24.1941 14.7875 20.8291L13.9058 21.7149C17.5991 25.3874 21.115 25.5674 22.6225 25.4266L22.5058 24.1816ZM14.7875 20.8291C11.5616 17.6207 11.0266 14.9232 10.96 13.7524L9.71163 13.8232C9.79496 15.2966 10.4575 18.2866 13.9058 21.7149L14.7875 20.8291ZM15.9333 15.6791L16.1725 15.4407L15.2925 14.5549L15.0533 14.7924L15.9333 15.6791ZM16.3625 12.4116L15.3125 11.0082L14.3116 11.7582L15.3616 13.1607L16.3625 12.4116ZM11.7783 10.7024L10.47 12.0024L11.3516 12.8891L12.6591 11.5891L11.7783 10.7024ZM15.4933 15.2357C15.0516 14.7924 15.0516 14.7924 15.0516 14.7941H15.05L15.0475 14.7974C15.0079 14.8373 14.9724 14.8811 14.9416 14.9282C14.8966 14.9949 14.8475 15.0824 14.8058 15.1932C14.7044 15.4793 14.6791 15.7869 14.7325 16.0857C14.8441 16.8066 15.3408 17.7591 16.6125 19.0241L17.4941 18.1374C16.3033 16.9541 16.02 16.2341 15.9675 15.8941C15.9425 15.7324 15.9683 15.6524 15.9758 15.6341C15.9808 15.6229 15.9808 15.6213 15.9758 15.6291C15.9684 15.6406 15.96 15.6514 15.9508 15.6616L15.9425 15.6699L15.9341 15.6774L15.4933 15.2357ZM16.6125 19.0241C17.885 20.2891 18.8425 20.7824 19.5641 20.8924C19.9333 20.9491 20.2308 20.9041 20.4566 20.8199C20.5831 20.7736 20.7013 20.7072 20.8066 20.6232L20.8483 20.5857L20.8541 20.5807L20.8566 20.5782L20.8575 20.5766C20.8575 20.5766 20.8583 20.5757 20.4175 20.1324C19.9758 19.6891 19.9783 19.6882 19.9783 19.6882L19.98 19.6866L19.9816 19.6849L19.9866 19.6807L19.995 19.6724L20.0266 19.6474C20.0344 19.6424 20.0325 19.6429 20.0208 19.6491C20 19.6566 19.9183 19.6824 19.7541 19.6574C19.4091 19.6041 18.6841 19.3207 17.4941 18.1374L16.6125 19.0241ZM15.3125 11.0074C14.4625 9.87405 12.7925 9.69405 11.7783 10.7024L12.6591 11.5891C13.1025 11.1482 13.8891 11.1941 14.3116 11.7582L15.3125 11.0074ZM10.9608 13.7532C10.9441 13.4649 11.0766 13.1632 11.3516 12.8899L10.4691 12.0032C10.0216 12.4482 9.66913 13.0782 9.71163 13.8232L10.9608 13.7532ZM23.2275 23.8032C22.9991 24.0316 22.7525 24.1599 22.5066 24.1824L22.6225 25.4266C23.235 25.3691 23.7358 25.0607 24.1091 24.6899L23.2275 23.8032ZM16.1725 15.4407C16.9933 14.6249 17.0541 13.3357 16.3633 12.4124L15.3625 13.1616C15.6983 13.6107 15.6483 14.1999 15.2916 14.5557L16.1725 15.4407ZM24.1058 20.9066C24.7866 21.2766 24.8925 22.1482 24.4116 22.6266L25.2933 23.5124C26.41 22.4016 26.0658 20.5491 24.7016 19.8082L24.1058 20.9066ZM21.2383 20.1991C21.5583 19.8807 22.0733 19.8024 22.5133 20.0407L23.11 18.9432C22.2066 18.4516 21.0866 18.5874 20.3566 19.3124L21.2383 20.1991Z" fill="#C0A062"/>
</g>
</g>
<defs>
<clipPath id="clip0_504_4999">
<rect width="36" height="36" fill="white"/>
</clipPath>
<clipPath id="clip1_504_4999">
<rect width="36" height="36" fill="white"/>
</clipPath>
</defs>
</svg>
