<svg width="36" height="36" viewBox="0 0 36 36" fill="none" xmlns="http://www.w3.org/2000/svg">
<g clip-path="url(#clip0_138_2286)">
<g clip-path="url(#clip1_138_2286)">
<path d="M36 18C36 8.05887 27.9411 0 18 0C8.05887 0 0 8.05887 0 18C0 27.9411 8.05887 36 18 36C27.9411 36 36 27.9411 36 18Z" fill="#F5F5F6"/>
<path fill-rule="evenodd" clip-rule="evenodd" d="M16.9997 7.00036C15.6481 6.48384 13.9207 5.80086 11.9997 6.00036H10.9997L11.9997 8.00036C11.3666 9.05003 10.5767 10.7146 9.99967 12.0004C9.68919 12.692 9.18726 13.5459 8.99967 14.0004C8.90422 14.2221 9.05233 13.8729 8.99967 14.0004V15.0004L10.9997 16.0004C11.0907 15.9339 11.8395 16.1145 11.9997 16.0004C12.3178 15.772 12.5619 15.2885 12.9997 15.0004C13.3973 14.7331 13.5758 14.2226 13.9997 14.0004C13.8672 14.0432 14.1235 13.9362 13.9997 14.0004C14.1581 14.124 14.8971 14.8267 14.9997 15.0004C15.0108 14.8431 15.0752 15.1383 14.9997 15.0004C14.9799 15.3683 14.3486 15.3187 13.9997 16.0004C13.9722 16.0547 14.0293 16.9449 13.9997 17.0004C13.8658 17.2642 14.1533 16.7421 13.9997 17.0004C13.4149 17.9869 13.0512 19.9288 12.9997 22.0004C12.9997 22.0004 13.9377 22.1725 14.9997 23.0004C16.7319 24.3483 16.9952 25.9715 16.9997 26.0004V7.00036Z" fill="#00939C"/>
<path d="M18 31C19.0282 27.4846 23 27 23 27C19.7274 26.2677 19 23 19 23C19 18.7392 22.558 17.7514 24 19C25.442 20.2485 25.0427 22.55 23 21C21.0775 19.5411 20.9895 22.3134 21 23C21 22.9677 21 23.0423 21 23C21 23.5174 22.0808 24.246 24 24C28.0443 23.4837 27 20 27 20C26.3054 15.994 23 16 23 16C21.7986 15.9008 21.1612 16.6602 20 17C20.9226 14.2437 19.9944 13.0416 19 12C18.6985 11.6801 18.2545 11.3625 18 11V31Z" fill="#C0A062"/>
</g>
</g>
<defs>
<clipPath id="clip0_138_2286">
<rect width="36" height="36" fill="white"/>
</clipPath>
<clipPath id="clip1_138_2286">
<rect width="36" height="36" fill="white"/>
</clipPath>
</defs>
</svg>
