<svg width="15" height="28" viewBox="0 0 15 28" fill="none" xmlns="http://www.w3.org/2000/svg">
<path fill-rule="evenodd" clip-rule="evenodd" d="M6.57194 1.53814C5.61842 1.01475 4.45963 0.838413 3.10332 1.04058L2.65638 1.10685L3.16374 2.9331C2.7168 3.99673 2.20247 5.54893 1.79504 6.8518C1.57583 7.55265 1.38528 8.18835 1.24895 8.64885C1.18079 8.87348 1.12657 9.06554 1.08939 9.1947L1.04601 9.34408L1.03517 9.38339L1.03129 9.39687L0.945312 9.70012L2.20015 11.5084L2.43253 11.2535H2.43718L2.45654 11.2332L2.534 11.1535C2.59829 11.0861 2.68892 10.9884 2.80201 10.8727C3.02586 10.6413 3.32641 10.337 3.63624 10.0449C3.91676 9.77362 4.20742 9.52502 4.50688 9.30028C4.59422 9.23509 4.68516 9.18062 4.77877 9.13742C4.89062 9.26239 4.985 9.41716 5.05684 9.59342C5.1105 9.73299 5.13474 9.89232 5.12656 10.0517C5.11339 10.4246 4.97164 10.8749 4.72609 11.5657L4.66645 11.7342C4.57117 12.0015 4.46505 12.2587 4.35661 12.5204C3.94298 13.52 3.4883 14.6196 3.45189 16.7187C3.45189 16.7187 4.43562 17.2208 5.1862 18.0598C6.40928 19.4255 6.57117 21.1586 6.57349 21.1878L6.57194 1.53814Z" fill="#008189"/>
<path d="M7.53105 27.0542L7.58372 26.7869C8.33817 23.2388 10.9393 22.6233 10.9393 22.6233C8.53802 21.8843 8.36219 18.7563 8.36219 18.7563C8.36219 14.4557 10.6139 13.7111 11.672 14.9713C12.7301 16.2314 12.4381 18.8439 10.9393 17.2793C9.52872 15.8069 9.55196 17.9532 9.5597 18.6462C9.5597 18.6889 9.5597 18.726 9.5597 18.7585C9.5597 19.2808 10.129 20.3074 11.538 20.0592C14.5055 19.538 14.0051 16.2404 14.0051 16.2404C13.4954 12.1971 11.4613 12.3094 11.4613 12.3094C10.5798 12.2093 9.69291 12.3336 8.84088 12.6766C9.51788 9.89459 8.90285 9.01066 8.17319 7.95938C7.95152 7.63711 7.74672 7.29135 7.56048 6.92496L7.53027 6.86768L7.53105 27.0542Z" fill="#008189"/>
</svg>
