<svg width="15" height="11" viewBox="0 0 15 11" fill="none" xmlns="http://www.w3.org/2000/svg">
<path d="M0.28125 0.6875C0.28125 0.513452 0.35039 0.346532 0.473461 0.223461C0.596532 0.10039 0.763452 0.03125 0.9375 0.03125H14.0625C14.2365 0.03125 14.4035 0.10039 14.5265 0.223461C14.6496 0.346532 14.7188 0.513452 14.7188 0.6875C14.7188 0.861548 14.6496 1.02847 14.5265 1.15154C14.4035 1.27461 14.2365 1.34375 14.0625 1.34375H0.9375C0.763452 1.34375 0.596532 1.27461 0.473461 1.15154C0.35039 1.02847 0.28125 0.861548 0.28125 0.6875ZM0.28125 5.5C0.28125 5.32595 0.35039 5.15903 0.473461 5.03596C0.596532 4.91289 0.763452 4.84375 0.9375 4.84375H14.0625C14.2365 4.84375 14.4035 4.91289 14.5265 5.03596C14.6496 5.15903 14.7188 5.32595 14.7188 5.5C14.7188 5.67405 14.6496 5.84097 14.5265 5.96404C14.4035 6.08711 14.2365 6.15625 14.0625 6.15625H0.9375C0.763452 6.15625 0.596532 6.08711 0.473461 5.96404C0.35039 5.84097 0.28125 5.67405 0.28125 5.5ZM0.28125 10.3125C0.28125 10.1385 0.35039 9.97153 0.473461 9.84846C0.596532 9.72539 0.763452 9.65625 0.9375 9.65625H14.0625C14.2365 9.65625 14.4035 9.72539 14.5265 9.84846C14.6496 9.97153 14.7188 10.1385 14.7188 10.3125C14.7188 10.4865 14.6496 10.6535 14.5265 10.7765C14.4035 10.8996 14.2365 10.9688 14.0625 10.9688H0.9375C0.763452 10.9688 0.596532 10.8996 0.473461 10.7765C0.35039 10.6535 0.28125 10.4865 0.28125 10.3125Z" fill="#008189"/>
</svg>
