<svg width="21" height="19" viewBox="0 0 21 19" fill="none" xmlns="http://www.w3.org/2000/svg">
<path d="M20.1085 3.46738C19.8842 3.24312 19.6119 3.13089 19.2913 3.13089H15.8297V1.97713C15.8297 1.4483 15.6417 0.995709 15.265 0.619021C14.8884 0.242459 14.4355 0.0541992 13.9068 0.0541992H6.9838C6.45498 0.0541992 6.00218 0.242417 5.62557 0.619021C5.24893 0.995666 5.06071 1.44826 5.06071 1.97713V3.13093H1.59912C1.27867 3.13093 1.00626 3.24304 0.78184 3.46742C0.557418 3.6918 0.445312 3.96425 0.445312 4.28478V5.82319C0.445312 6.39201 0.611555 6.96496 0.944125 7.54195C1.27661 8.11881 1.72524 8.6398 2.29028 9.10435C2.8551 9.56911 3.54819 9.95977 4.36955 10.2763C5.19096 10.5928 6.05425 10.7712 6.95977 10.8111C7.29638 11.244 7.67686 11.6244 8.10153 11.9528C8.40611 12.2252 8.6163 12.5155 8.73253 12.8244C8.84864 13.1327 8.90673 13.4912 8.90673 13.9C8.90673 14.3327 8.78465 14.6972 8.54015 14.9934C8.2959 15.2902 7.90523 15.4383 7.36841 15.4383C6.76738 15.4383 6.23262 15.6207 5.76382 15.9851C5.29511 16.3499 5.06071 16.8086 5.06071 17.3615V18.1305C5.06071 18.2429 5.0967 18.3351 5.16882 18.4071C5.24097 18.4792 5.33304 18.5152 5.44527 18.5152H15.4453C15.5577 18.5152 15.6496 18.4792 15.7219 18.4071C15.7936 18.3351 15.8297 18.2429 15.8297 18.1305V17.3615C15.8297 16.8086 15.5954 16.35 15.1263 15.9851C14.6575 15.6207 14.1228 15.4383 13.5217 15.4383C12.9851 15.4383 12.5943 15.2901 12.3502 14.9934C12.1059 14.6972 11.984 14.3328 11.984 13.9C11.984 13.4911 12.0419 13.1327 12.158 12.8244C12.2745 12.5155 12.4848 12.2254 12.789 11.9528C13.2138 11.6243 13.5944 11.2437 13.9306 10.8111C14.8365 10.7712 15.6996 10.5928 16.5212 10.2763C17.3422 9.95977 18.0356 9.56911 18.6003 9.10435C19.1653 8.63964 19.614 8.11881 19.9465 7.54195C20.2789 6.96496 20.4452 6.39205 20.4452 5.82319V4.28478C20.4451 3.96442 20.3328 3.69188 20.1085 3.46738ZM3.11955 7.77016C2.36235 7.09714 1.98381 6.44809 1.98381 5.82307V4.66926H5.06067C5.06067 6.34406 5.35703 7.83036 5.95002 9.12839C4.82037 8.89609 3.87684 8.44317 3.11955 7.77016ZM18.9066 5.82319C18.9066 6.44821 18.5283 7.09744 17.7711 7.77041C17.0136 8.44342 16.0701 8.89622 14.9405 9.12851C15.5335 7.83052 15.8298 6.34419 15.8298 4.66938H18.9066V5.82319Z" fill="#008189"/>
</svg>
