<svg width="32" height="32" viewBox="0 0 32 32" fill="none" xmlns="http://www.w3.org/2000/svg">
<rect width="32" height="32" rx="16" transform="matrix(1 0 0 -1 0 32)" fill="url(#paint0_linear_39_7212)"/>
<g clip-path="url(#clip0_39_7212)">
<path d="M22 15.0002H12L15 12.0002C14.9693 12.0683 15.0561 11.9487 15 12.0002C14.9994 12.0743 15.0308 11.9321 15 12.0002C15.0007 11.9261 15.0295 11.0688 15 11.0002C14.9705 10.9316 15.0551 11.0526 15 11.0002C14.945 10.9478 15.0721 11.0283 15 11.0002C14.928 10.9721 15.0779 10.9995 15 11.0002C14.9222 11.0008 15.0716 10.9709 15 11.0002C14.9285 11.0294 14.0541 10.9469 14 11.0002L10 15.0002C9.89009 15.1049 10 15.8521 10 16.0002C9.89009 15.8955 10 16.1482 10 16.0002L14 20.0002C14.1106 20.1019 14.8463 20.0015 15 20.0002C14.8913 20.1037 15.1538 19.9989 15 20.0002C15.1088 19.8967 14.9987 19.1466 15 19.0002C15.0014 18.8538 15.1069 19.1055 15 19.0002L12 16.0002H22C22.1556 16.0002 22.8901 16.1049 23 16.0002C23 16.1482 23.11 15.8955 23 16.0002C23 15.8521 23.11 15.1049 23 15.0002C22.8901 14.8955 22.1556 15.0002 22 15.0002Z" fill="white"/>
</g>
<defs>
<linearGradient id="paint0_linear_39_7212" x1="0" y1="16" x2="57.3578" y2="16.0038" gradientUnits="userSpaceOnUse">
<stop stop-color="#DAC08F"/>
<stop offset="1" stop-color="#A98E45"/>
</linearGradient>
<clipPath id="clip0_39_7212">
<rect width="14" height="14" fill="white" transform="translate(9 9)"/>
</clipPath>
</defs>
</svg>
