<svg width="14" height="16" viewBox="0 0 14 16" fill="none" xmlns="http://www.w3.org/2000/svg">
<path d="M13.3939 8.42409L10.9139 10.9041C10.8011 11.0151 10.649 11.0771 10.4907 11.0764C10.3324 11.0758 10.1808 11.0127 10.0688 10.9007C9.95689 10.7888 9.89371 10.6372 9.89305 10.4789C9.89238 10.3207 9.95429 10.1685 10.0653 10.0557L11.5111 8.60988H5.27969C5.12056 8.60988 4.96795 8.54667 4.85542 8.43415C4.7429 8.32163 4.67969 8.16901 4.67969 8.00988C4.67969 7.85075 4.7429 7.69814 4.85542 7.58562C4.96795 7.4731 5.12056 7.40988 5.27969 7.40988H11.5311L10.0653 5.94408C9.95429 5.83124 9.89238 5.67911 9.89305 5.52083C9.89371 5.36254 9.95689 5.21094 10.0688 5.09903C10.1808 4.98712 10.3324 4.92397 10.4907 4.92334C10.649 4.92272 10.8011 4.98466 10.9139 5.09568L13.3939 7.57568C13.5064 7.6882 13.5696 7.84079 13.5696 7.99988C13.5696 8.15898 13.5064 8.31157 13.3939 8.42409Z" fill="#008189"/>
<path d="M8.10969 15.6873H2.02969C1.60547 15.6869 1.19875 15.5182 0.898785 15.2182C0.598818 14.9182 0.430111 14.5115 0.429688 14.0873V1.9125C0.430111 1.48828 0.598818 1.08156 0.898785 0.781597C1.19875 0.481631 1.60547 0.312924 2.02969 0.3125H8.10969C8.26882 0.3125 8.42143 0.375714 8.53395 0.488236C8.64647 0.600758 8.70969 0.75337 8.70969 0.9125C8.70969 1.07163 8.64647 1.22424 8.53395 1.33676C8.42143 1.44929 8.26882 1.5125 8.10969 1.5125H2.02969C1.9236 1.5125 1.82186 1.55464 1.74684 1.62966C1.67183 1.70467 1.62969 1.80641 1.62969 1.9125V14.0873C1.62969 14.1934 1.67183 14.2951 1.74684 14.3701C1.82186 14.4452 1.9236 14.4873 2.02969 14.4873H8.10969C8.26882 14.4873 8.42143 14.5505 8.53395 14.663C8.64647 14.7756 8.70969 14.9282 8.70969 15.0873C8.70969 15.2464 8.64647 15.399 8.53395 15.5116C8.42143 15.6241 8.26882 15.6873 8.10969 15.6873Z" fill="#008189"/>
</svg>
