<svg width="155" height="100" viewBox="0 0 155 100" fill="none" xmlns="http://www.w3.org/2000/svg">
<path d="M93.9439 0.314627L91.4822 0.570143L94.2767 7.61198C91.815 11.7132 88.9821 17.6983 86.7379 22.722C85.5305 25.4244 84.481 27.8757 83.7301 29.6513C83.3546 30.5174 83.056 31.258 82.8512 31.756L82.6123 32.332L82.5525 32.4836L82.5312 32.5356L82.0576 33.7049L88.9693 40.6774L90.2492 39.6943H90.2748L90.3815 39.6164L90.8081 39.3089C91.1622 39.049 91.6614 38.6723 92.2843 38.2262C93.5173 37.3341 95.1727 36.1604 96.8793 35.0344C98.4244 33.9883 100.025 33.0297 101.675 32.1631C102.156 31.9118 102.657 31.7017 103.172 31.5352C103.788 32.017 104.308 32.6138 104.704 33.2934C104.999 33.8316 105.133 34.446 105.088 35.0604C105.015 36.4982 104.235 38.2349 102.882 40.8983L102.554 41.5479C102.029 42.5786 101.444 43.5704 100.847 44.5794C98.5688 48.4338 96.0644 52.6737 95.8638 60.7679C95.8638 60.7679 101.282 62.7037 105.416 65.9388C112.153 71.205 113.045 77.8874 113.058 78V2.23316C107.797 0.215019 101.414 -0.464912 93.9439 0.314627Z" fill="#00939B"/>
<path d="M153.882 58.7398C151.062 43.3218 139.807 43.75 139.807 43.75C134.93 43.3683 130.023 43.8423 125.309 45.1505C129.055 34.5421 125.652 31.1715 121.615 27.1629C120.388 25.934 119.255 24.6155 118.225 23.2184L118.058 23V100L118.349 98.9807C122.519 85.4514 136.915 83.1045 136.915 83.1045C123.629 80.2864 122.656 68.3589 122.656 68.3589C122.656 51.9601 135.115 49.1206 140.969 53.9259C146.823 58.7312 145.207 68.6929 136.915 62.727C129.11 57.1123 129.239 65.2967 129.282 67.9392C129.282 68.1019 129.282 68.2432 129.282 68.3674C129.282 70.3589 132.432 74.2734 140.227 73.3269C156.65 71.3311 153.882 58.7398 153.882 58.7398Z" fill="#BF9F62"/>
<path d="M37.1185 64H41.0576L31.3402 52.2566L40.4533 44H36.7446L25.362 54.4558V44H22.0576V64H25.362V57.6876L29.1576 54.2571L37.1185 64Z" fill="white"/>
<path d="M54.358 59.8673H54.5575L55.0736 63.6939H58.0576L57.3984 59.5612V54.3401C57.3984 50.7432 54.2148 49 50.3157 49C45.8136 49 43.0595 51.3044 42.7169 54.2551L45.7529 54.3401C46.0088 52.1463 47.7307 50.6284 50.1942 50.6284C52.519 50.6284 54.1845 51.9804 54.1845 53.4983C54.1845 54.676 53.1782 55.0714 51.8901 55.199L48.1297 55.6241C44.2609 56.0493 42.0576 57.5076 42.0576 60.0927C42.0576 62.6777 44.2262 64 47.5355 64C51.2048 64.0042 53.8158 62.4184 54.358 59.8673ZM45.2498 59.7866C45.2498 58.1837 46.5119 57.1973 48.5765 56.8316L51.734 56.3852C52.9093 56.1599 53.7377 55.7092 54.0544 55.1097H54.2279V57.784C54.2279 60.6497 52.0592 62.5034 48.9798 62.5034C46.6724 62.4864 45.2672 61.449 45.2672 59.7908L45.2498 59.7866Z" fill="white"/>
<path d="M73.0576 61.4193H63.3014L72.9505 50.6897V49H60.1401V50.5807H69.7066L60.0576 61.2264V63H73.0576V61.4193Z" fill="white"/>
<path d="M11.8712 90.0987C6.94321 90.0987 3.3288 86.6352 3.3288 81.4163C3.3288 76.3348 6.94321 72.7597 11.8034 72.7597C16.3161 72.7597 19.4305 75.5107 19.7907 79.4292L22.9813 79.2876C22.6466 74.3777 18.1381 71 11.9644 71C5.04491 71 0.0576172 75.1159 0.0576172 81.5837C0.0576172 87.8841 5.0449 92 11.7949 92C18.1508 92 22.6932 88.6524 23.0576 83.7983L20.0619 83.6567C19.6593 87.515 16.2991 90.0987 11.8712 90.0987Z" fill="white"/>
<path d="M34.9146 76.4851C32.0251 76.4851 29.9018 78.1872 29.3496 80.8766H29.1783V71H26.0576V91H29.1698V83.4085C29.1698 80.1745 30.8136 78.3021 33.5576 78.3021C36.3016 78.3021 37.9455 80.1872 37.9455 83.366V90.9915H41.0576V82.9532C41.0576 78.9362 38.7374 76.4851 34.9146 76.4851Z" fill="white"/>
<path d="M52.6908 76C47.7062 76 44.0576 79.2586 44.0576 84.0755C44.0576 88.8923 47.7938 92 52.7477 92C57.1278 92 60.4786 89.6204 60.9735 86.3352L58.2491 86.1887C57.8111 88.475 55.643 90.1221 52.9492 90.1221C49.7079 90.1221 47.3033 87.7425 47.3033 84.1021V83.9867H61.0305C61.0518 83.752 61.0606 83.5164 61.0568 83.2808C61.0568 78.9967 57.4957 76 52.6908 76ZM47.3033 82.8413C47.4478 79.7336 49.5897 77.4384 52.6295 77.4384C53.3281 77.4146 54.0241 77.5357 54.6749 77.7945C55.3256 78.0532 55.9173 78.444 56.4137 78.9429C56.91 79.4418 57.3005 80.0383 57.5611 80.6957C57.8218 81.3531 57.9471 82.0575 57.9294 82.7658L47.3033 82.8413Z" fill="white"/>
<path d="M71.416 82.3592L68.4598 81.9992C66.6981 81.7773 65.7313 81.0028 65.7313 79.7845C65.7313 78.2607 67.2395 77.2727 69.4523 77.2727C72.0304 77.2727 73.8565 78.5998 74.226 80.9233L76.8041 80.7056C76.4647 77.8797 73.762 76 69.5855 76C65.6669 76 62.9127 77.7416 62.9127 80.3706C62.9127 82.4639 64.4165 84.0254 67.854 84.4147L70.8101 84.7999C72.8812 85.0762 74.0499 85.9344 74.0499 87.2071C74.0499 88.731 72.4558 89.6436 70.1012 89.6436C67.145 89.6436 65.0696 88.149 64.6743 85.8507L62.0576 86.1019C62.5689 89.1454 65.6368 91 69.9551 91C74.0198 91 77.0576 89.3966 77.0576 86.6545C77.0619 84.1594 74.819 82.7737 71.416 82.3592Z" fill="white"/>
<path d="M88.4133 82.3592L85.4579 81.9992C83.6968 81.7773 82.7303 81.0028 82.7303 79.7845C82.7303 78.2607 84.238 77.2727 86.4545 77.2727C89.0318 77.2727 90.8531 78.5998 91.2225 80.9233L93.7999 80.7056C93.4605 77.8797 90.7629 76 86.5877 76C82.6659 76 79.9124 77.7416 79.9124 80.3706C79.9124 82.4639 81.4159 84.0254 84.8523 84.4147L87.8076 84.7999C89.8823 85.0762 91.0464 85.9344 91.0464 87.2071C91.0464 88.731 89.4528 89.6436 87.0988 89.6436C84.1435 89.6436 82.0688 88.149 81.6736 85.8507L79.0576 86.1019C79.5688 89.1454 82.6401 91 86.9571 91C91.0164 91 94.0576 89.3966 94.0576 86.6545C94.0662 84.1594 91.8196 82.7737 88.4133 82.3592Z" fill="white"/>
</svg>
