<svg xmlns="http://www.w3.org/2000/svg" xmlns:xlink="http://www.w3.org/1999/xlink" viewBox="0 0 551.28 232.87">
  <defs>
    <style>
      .cls-1 {
        fill: #00939c;
      }

      .cls-1, .cls-2 {
        fill-rule: evenodd;
      }

      .cls-2 {
        fill: url(#Безымянный_градиент_2);
      }

      .cls-3 {
        fill: #c0a062;
      }

      .cls-4 {
        fill: url(#Безымянный_градиент_3);
      }

      .cls-5 {
        fill: url(#Безымянный_градиент_3-2);
      }

      .cls-6 {
        fill: #565656;
      }
    </style>
    <linearGradient id="Безымянный_градиент_2" data-name="Безымянный градиент 2" x1="177.27" y1="2254.87" x2="177.27" y2="2074.77" gradientTransform="matrix(1, 0, 0, -1, 0, 2254.87)" gradientUnits="userSpaceOnUse">
      <stop offset="0" stop-color="#00939c"/>
      <stop offset="1" stop-color="#006369"/>
    </linearGradient>
    <linearGradient id="Безымянный_градиент_3" data-name="Безымянный градиент 3" x1="225.88" y1="2202.24" x2="225.88" y2="2022" gradientTransform="matrix(1, 0, 0, -1, 0, 2254.87)" gradientUnits="userSpaceOnUse">
      <stop offset="0" stop-color="#dbc498"/>
      <stop offset="1" stop-color="#9c814d"/>
    </linearGradient>
    <linearGradient id="Безымянный_градиент_3-2" x1="267.97" y1="2202.24" x2="267.97" y2="2022" xlink:href="#Безымянный_градиент_3"/>
  </defs>
  <title>KC BLACK GRADIENT 1</title>
  <g id="Слой_2" data-name="Слой 2">
    <g id="Слой_1-2" data-name="Слой 1">
      <g>
        <path class="cls-1" d="M213.6,5.16C201.28.5,186.32-1.07,168.81.73l-5.76.59,6.54,16.26c-5.77,9.47-12.41,23.29-17.67,34.89-2.83,6.24-5.29,11.9-7,16-.87,2-1.58,3.71-2.06,4.86l-.55,1.33-.15.35-.05.12L141,77.84l16.2,16.1,3-2.27.06,0,.25-.18.95-.71c.83-.6,2-1.47,3.46-2.5,2.9-2.06,6.78-4.77,10.77-7.37a120.49,120.49,0,0,1,11.24-6.63,23.15,23.15,0,0,1,3.51-1.45,14.56,14.56,0,0,1,3.6,4.06,7.35,7.35,0,0,1,.9,4.08c-.18,3.32-2,7.33-5.18,13.48-.25.49-.5,1-.77,1.5-1.22,2.38-2.6,4.67-4,7-5.33,8.9-11.21,18.69-11.68,37.38,0,0,12.71,4.47,22.39,11.94,15.79,12.16,17.88,27.59,17.92,27.85Z"/>
        <path class="cls-2" d="M213.6,5.16C201.28.5,186.32-1.07,168.81.73l-5.76.59,6.54,16.26c-5.77,9.47-12.41,23.29-17.67,34.89-2.83,6.24-5.29,11.9-7,16-.87,2-1.58,3.71-2.06,4.86l-.55,1.33-.15.35-.05.12L141,77.84l16.2,16.1,3-2.27.06,0,.25-.18.95-.71c.83-.6,2-1.47,3.46-2.5,2.9-2.06,6.78-4.77,10.77-7.37a120.49,120.49,0,0,1,11.24-6.63,23.15,23.15,0,0,1,3.51-1.45,14.56,14.56,0,0,1,3.6,4.06,7.35,7.35,0,0,1,.9,4.08c-.18,3.32-2,7.33-5.18,13.48-.25.49-.5,1-.77,1.5-1.22,2.38-2.6,4.67-4,7-5.33,8.9-11.21,18.69-11.68,37.38,0,0,12.71,4.47,22.39,11.94,15.79,12.16,17.88,27.59,17.92,27.85Z"/>
        <path class="cls-3" d="M225.86,232.73c.07.24,0,.12,0,0Z"/>
        <path class="cls-4" d="M225.86,232.73c.07.24,0,.12,0,0Z"/>
        <path class="cls-3" d="M226,232.34l.67-2.38c9.74-31.59,43.32-37.07,43.32-37.07-31-6.58-33.27-34.43-33.27-34.43,0-38.29,29.07-44.92,42.73-33.7s9.89,34.48-9.46,20.55c-18.21-13.11-17.9,6-17.8,12.17h0c0,.38,0,.71,0,1,0,4.65,7.35,13.79,25.53,11.58,38.31-4.64,31.85-34,31.85-34-6.58-36-32.84-35-32.84-35a97.87,97.87,0,0,0-33.83,3.27c8.74-24.77.8-32.64-8.62-42a83.69,83.69,0,0,1-7.91-9.21l-.38-.51Z"/>
        <path class="cls-5" d="M226,232.34l.67-2.38c9.74-31.59,43.32-37.07,43.32-37.07-31-6.58-33.27-34.43-33.27-34.43,0-38.29,29.07-44.92,42.73-33.7s9.89,34.48-9.46,20.55c-18.21-13.11-17.9,6-17.8,12.17h0c0,.38,0,.71,0,1,0,4.65,7.35,13.79,25.53,11.58,38.31-4.64,31.85-34,31.85-34-6.58-36-32.84-35-32.84-35a97.87,97.87,0,0,0-33.83,3.27c8.74-24.77.8-32.64-8.62-42a83.69,83.69,0,0,1-7.91-9.21l-.38-.51Z"/>
        <path class="cls-6" d="M21.36,120.83,43.7,148H34.65L16.33,125.46,7.6,133.39V148H0V101.72H7.6v24.2l26.19-24.2h8.53Z"/>
        <path class="cls-6" d="M59.2,148.73c-7.6,0-12.63-3.1-12.63-9.19s5.09-9.52,14-10.51l8.66-1c3-.33,5.29-1.26,5.29-4,0-3.57-3.84-6.75-9.19-6.75-5.69,0-9.65,3.57-10.25,8.73l-7-.2c.79-6.94,7.14-12.36,17.52-12.36,9,0,16.33,4.1,16.33,12.56v12.3L83.46,148H76.59l-1.19-9h-.46C73.68,145,67.66,148.73,59.2,148.73Zm3.37-3.57c7.08,0,12.1-4.36,12.1-11.1v-6.29h-.4c-.72,1.46-2.64,2.52-5.35,3l-7.27,1.05c-4.76.86-7.67,3.18-7.67,6.95S57.22,145.16,62.57,145.16Z"/>
        <path class="cls-6" d="M120,148H88.48v-4.23l23.4-25.39H88.68v-3.77h31.07v4l-23.4,25.59H120Z"/>
        <path class="cls-6" d="M358.39,148.39c-15.94,0-27.71-9.59-27.71-24.27,0-15.08,11.77-24.66,28.1-24.66,14.55,0,25.19,7.87,26,19.3l-7.54.33c-.86-9.12-8.2-15.53-18.84-15.53-11.44,0-20,8.33-20,20.16,0,12.17,8.53,20.24,20.16,20.24,10.45,0,18.38-6,19.31-15l7.08.33C384.11,140.58,373.39,148.39,358.39,148.39Z"/>
        <path class="cls-6" d="M412.69,113c8.92,0,14.34,5.75,14.34,15.21v18.84h-7.27V129.15c0-7.48-3.83-11.91-10.25-11.91s-10.24,4.43-10.24,12v17.78H392V100.12h7.28v23.21h.39C401,117,405.94,113,412.69,113Z"/>
        <path class="cls-6" d="M472.16,130.33H440.82v.27c0,8.2,5.49,13.55,12.89,13.55,6.15,0,11.11-3.7,12.1-8.86l6.22.33c-1.13,7.41-8.8,12.77-18.78,12.77-11.31,0-19.84-6.95-19.84-17.86s8.33-18.18,19.71-18.18c11,0,19.11,6.74,19.11,16.4A12.39,12.39,0,0,1,472.16,130.33ZM453,115.59c-6.94,0-11.83,5.16-12.16,12.17l24.27-.2A11.71,11.71,0,0,0,453,115.59Z"/>
        <path class="cls-6" d="M495.3,148.32c-10.05,0-17.19-4.43-18.39-11.7L483,136c.92,5.49,5.75,9.06,12.63,9.06,5.48,0,9.19-2.18,9.19-5.82,0-3-2.71-5.09-7.54-5.75l-6.88-.93c-8-.92-11.5-4.69-11.5-9.65,0-6.28,6.41-10.45,15.54-10.45,9.72,0,16,4.5,16.79,11.24l-6,.53c-.86-5.55-5.09-8.73-11.1-8.73-5.16,0-8.67,2.32-8.67,6,0,2.9,2.25,4.76,6.35,5.28l6.88.86c7.93,1,13.16,4.3,13.16,10.32C511.83,144.48,504.75,148.32,495.3,148.32Z"/>
        <path class="cls-6" d="M534.75,148.32c-10,0-17.19-4.43-18.38-11.7l6.08-.6c.93,5.49,5.75,9.06,12.63,9.06,5.49,0,9.19-2.18,9.19-5.82,0-3-2.71-5.09-7.54-5.75l-6.88-.93c-8-.92-11.5-4.69-11.5-9.65,0-6.28,6.41-10.45,15.54-10.45,9.72,0,16,4.5,16.79,11.24l-6,.53c-.86-5.55-5.1-8.73-11.11-8.73-5.16,0-8.66,2.32-8.66,6,0,2.9,2.24,4.76,6.34,5.28l6.88.86c7.93,1,13.16,4.3,13.16,10.32C551.28,144.48,544.2,148.32,534.75,148.32Z"/>
      </g>
    </g>
  </g>
</svg>
