<svg width="80" height="66" viewBox="0 0 80 66" fill="none" xmlns="http://www.w3.org/2000/svg">
<path fill-rule="evenodd" clip-rule="evenodd" d="M36.0616 1.66408C32.7252 0.341156 28.6738 -0.104564 23.9318 0.406436L22.3719 0.573916L24.143 5.19C22.5804 7.87844 20.7822 11.8018 19.3577 15.0949C18.5913 16.8664 17.9251 18.4732 17.462 19.6372C17.2264 20.205 17.0341 20.6904 16.9041 21.0169L16.7552 21.3944L16.7146 21.4938L16.701 21.5279L16.4004 22.2972L20.7876 26.8679L21.6001 26.2234H21.6163L21.684 26.1723L21.9413 25.9708C22.1661 25.8004 22.4829 25.5534 22.8783 25.261C23.6637 24.6762 24.7144 23.9069 25.795 23.1688C26.7765 22.4842 27.7926 21.8559 28.839 21.2866C29.1445 21.1223 29.4625 20.9846 29.7896 20.8749C30.1806 21.1917 30.5113 21.5827 30.7645 22.0275C30.9509 22.3808 31.0356 22.7831 31.0082 23.1858C30.9595 24.1283 30.4666 25.2667 29.6054 27.0126C29.5377 27.1518 29.47 27.2965 29.3969 27.4385C29.0665 28.1142 28.6927 28.7642 28.3136 29.4258C26.8701 31.9522 25.2778 34.7318 25.1505 40.0374C25.1505 40.0374 28.5926 41.3066 31.214 43.427C35.4902 46.8794 36.0562 51.2598 36.0671 51.3334L36.0616 1.66408Z" fill="#00939C"/>
<path d="M40.0028 63.1332L40.1912 62.4564C42.928 53.4688 52.3632 51.9096 52.3632 51.9096C43.6528 50.0376 43.0148 42.1144 43.0148 42.1144C43.0148 31.2208 51.1832 29.3348 55.0212 32.5268C58.8596 35.7188 57.8004 42.3364 52.3632 38.3732C47.2464 34.6436 47.3336 40.0804 47.3616 41.8356C47.3616 41.9436 47.3616 42.0376 47.3616 42.12C47.3616 43.4432 49.4268 46.0432 54.5352 45.4148C65.2996 44.0944 63.4844 35.7416 63.4844 35.7416C61.6356 25.4996 54.2572 25.7841 54.2572 25.7841C51.0592 25.5305 47.842 25.8453 44.7516 26.7144C47.2072 19.6673 44.9764 17.4283 42.3292 14.7654C41.5268 13.9476 40.784 13.0718 40.1068 12.1451L40 12L40.0028 63.1332Z" fill="#C0A062"/>
</svg>
