<svg width="608" height="297" viewBox="0 0 608 297" fill="none" xmlns="http://www.w3.org/2000/svg">
<mask id="mask0_346_1912" style="mask-type:luminance" maskUnits="userSpaceOnUse" x="0" y="0" width="608" height="297">
<path d="M608 0H0V297H608V0Z" fill="white"/>
</mask>
<g mask="url(#mask0_346_1912)">
<path fill-rule="evenodd" clip-rule="evenodd" d="M488 229.999C489.433 229.156 490.237 227.9 492 227.999C494.866 228.148 496.017 231.355 498 231.999C499.709 232.545 503.072 232.446 505 231.999C504.449 227.784 503.827 223.115 503 218.999C502.78 218.702 503.89 217.446 504 216.999C503.174 215.958 502.568 214.446 504 213.999C502.017 213.156 502.646 212.107 500 212.999C499.339 213.198 498.992 213.892 498 212.999C497.835 212.851 495.056 211.396 495 210.999C494.89 210.553 495.56 210.396 496 209.999C496 209.999 498.725 208.247 499 207.999C499.551 207.454 500.347 205.561 502 206.999C502.331 206.9 502.843 204.859 504 205.999C504.111 205.404 508.174 204.297 509 203.999C510.268 203.553 511.339 204.355 512 204.999C512.992 203.908 513.725 204.594 514 203.999C514.056 203.9 514.733 202.702 516 202.999C516.882 202.652 520.56 201.603 521 201.999C522.213 200.908 523.293 199.958 525 200.999C525.386 201.247 526.89 201.603 527 201.999C527.276 203.14 527.788 203.95 529 203.999C529.607 204.049 530.961 202.603 533 202.999C534.543 203.297 533.513 202.561 535 203.999C535.166 204.198 535.504 205.247 536 204.999C536.992 204.503 537.386 200.991 537 199.999C535.182 199.702 533.378 199.14 532 197.999C531.284 197.305 530.276 195.685 530 193.999C530 193.999 522.607 183.842 522 182.999L521 180.999C520.449 180.305 520.449 179.892 521 178.999C520.064 178.454 520.748 181.429 517 178.999C516.56 178.751 515.221 178.049 515 177.999C512.796 177.255 511.315 177.437 509 175.999L505 173.999C504.119 173.652 502.772 173.346 502 172.999C501.394 172.851 501.166 171.495 501 170.999C500.89 170.702 500.158 171.545 499 170.999C498.504 171.346 494.772 172.503 494 172.999C493.504 173.346 489.056 174.735 489 172.999L486 167.999V166.999C485.945 166.95 485.276 166.9 485 166.999C483.017 167.694 479.662 169.181 479 166.999C478.945 166.851 479.103 165.999 478 165.999C476.237 165.999 475.882 166.09 475 164.999C474.449 164.305 473.103 162.702 472 162.999C471.945 162.999 468.268 167.223 467 163.999C465.127 166.429 464.59 166.437 462 164.999C461.89 165.049 462.221 164.95 462 164.999C462.166 166.933 462.607 174.611 462 175.999C459.41 182.347 443.188 175.396 439 174.999C438.945 181.694 439.008 189.354 440 195.999C440.276 197.933 442.788 199.867 444 201.999C444.717 203.338 444.56 204.611 445 205.999C446.598 206.297 451 207.693 451 212.999C451 213.694 450.331 214.305 450 214.999C451.929 216.636 454.182 218.611 456 219.999C456.331 220.247 458.449 220.859 459 221.999C459.607 223.14 457.945 224.95 458 224.999C459.819 226.239 463.576 225.512 466 226.999C467.543 227.942 465.717 229.355 465 229.999C465.111 230.545 465.284 231.297 466 230.999C466.166 230.9 471.435 228.966 477 230.999C480.858 232.388 479.088 231.098 483 230.999C485.48 230.95 485.906 231.239 488 229.999Z" fill="#F6F1E8"/>
<path fill-rule="evenodd" clip-rule="evenodd" d="M407 75.9997C406.282 75.2512 405.785 71.5985 407 70.9997C407.662 70.6504 408.951 70.349 410 69.9997C408.013 69.0516 409.055 65.4468 409 63.9997C409 61.904 411.215 58.1993 410 57.9997L407 56.9997C405.62 56.8001 404.38 56.4488 403 55.9997C401.178 55.4508 400.692 53.4488 396 52.9997C395.282 52.9498 394.607 53.5985 394 52.9997C393.117 52.0017 392.331 50.1474 392 48.9997C391.834 48.351 392 47.6484 392 46.9997C391.282 46.7003 390.491 47.7502 389 47.9997C387.73 48.1993 386.662 47.8001 386 47.9997C385.227 48.1993 384.546 49.6504 383 49.9997C381.123 50.4488 379.822 50.1993 378 49.9997C376.62 49.85 374.994 47.9977 374 46.9997C374.607 45.5526 374.669 45.7961 375 43.9997C375.166 42.852 375.442 42.7981 375 41.9997C374.779 41.6504 374.497 41.4987 374 40.9997C373.448 40.4009 372.331 39.8999 372 39.9997C371.558 40.1993 371.147 42.5985 368 41.9997C367.338 41.8999 366.552 41.349 366 40.9997C365.558 40.7502 365.055 38.9997 365 38.9997C363.675 38.6504 361.491 39.7003 360 39.9997C359.89 39.9997 358.325 41.7003 357 41.9997C355.841 42.2492 354.497 41.5486 354 40.9997C353.006 39.9019 353.104 38.7981 352 37.9997C351.614 37.7003 349.767 38.5466 348 36.9997C346.178 35.4029 347 35.2492 347 34.9997C346.006 34.5007 342.227 33.5047 343 35.9997L344 36.9997C343.89 37.2991 341.546 39.2452 340 36.9997C339.779 36.7003 340 36.3989 340 35.9997C340 35.8999 340.11 36.0995 340 35.9997C339.338 35.4009 337.669 34.8001 338 34.9997C337.117 36.4468 336.435 35.848 335 34.9997C334.834 34.8999 335.11 34.9498 335 34.9997C333.233 35.8979 331.104 37.4528 330 38.9997H331C332.049 40.2971 334.166 40.856 334 43.9997C333.945 44.6983 334.331 45.4009 334 45.9997C333.669 46.6983 332.607 47.7502 332 47.9997C331.779 48.0496 332.055 47.85 332 47.9997C331.834 49.347 334.263 51.0017 332 51.9997C331.172 52.349 330.828 52.2991 330 51.9997C328.399 53.7462 327.11 53.4009 327 53.9997C326.393 57.0436 324.442 56.2013 324 56.9997C322.289 60.1933 318.085 65.0416 314 60.9997C313.172 60.1514 312.601 59.8999 311 59.9997C310.448 60.0496 310.393 59.353 311 60.9997C311.386 62.0476 311.883 63.0516 311 63.9997C309.509 65.6464 307.662 62.5506 307 62.9997C305.675 63.848 304.104 63.5985 303 62.9997C302.117 62.5007 302.159 62.85 301 62.9997C300.172 63.1494 298.938 63.2991 298 62.9997C296.289 62.4009 297.172 61.5985 298 60.9997C296.73 61.2492 296.994 61.4508 296 61.9997C296 61.9997 293.718 62.848 293 61.9997L292 59.9997C291.062 60.1494 290.386 59.85 290 59.9997C289.393 60.2492 289.614 60.5526 290 61.9997C290.662 64.3949 290.208 64.7522 288 65.9997C287.834 68.6943 288.049 69.5546 287 71.9997C285.178 71.8999 283.374 72.0516 281 72.9997C281.773 73.9977 283.951 75.0017 285 75.9997C284.779 76.4987 283.669 78.6504 284 78.9997C284.497 79.4987 284.497 80.1514 284 80.9997C283.503 81.7482 282.718 82.0496 282 81.9997C282.11 82.5486 282.945 83.2512 283 83.9997C283.938 84.6983 284.724 84.7023 285 85.9997C285.442 87.7462 283.779 89.0516 284 89.9997C284.055 90.2991 285.117 90.351 286 90.9997C286.276 89.8021 286.233 88.0995 288 87.9997C289.27 87.9498 291.675 90.0516 293 90.9997C294.491 91.9977 294.675 93.4508 296 93.9997C296.607 94.2492 298.675 93.8999 300 93.9997C301.38 94.0995 302.172 95.0496 303 94.9997C303.055 94.9997 303.509 92.5506 305 92.9997C306.601 93.4987 308.338 94.6524 309 95.9997C309.442 96.848 308.497 97.5007 308 97.9997C307.779 98.2991 309.062 98.9498 310 98.9997C315.024 95.7562 313.804 98.4468 318 96.9997C318.166 96.3011 318.386 95.4987 318 94.9997C320.76 93.5027 321.074 93.3011 324 93.9997C325.325 93.351 329.724 91.1494 330 90.9997C330.773 90.6504 332.006 90.3011 333 90.9997C334.159 91.7981 334 92.4009 334 92.9997C334 93.2991 334.11 99.1035 334 101L336 102C337.491 101.151 340.344 98.5007 342 98.9997C345.091 99.9478 344.724 101.8 345 102L346 103C347.932 101.752 349.626 100.7 352 101C353.656 101.199 354 102.603 354 104C354 104.299 354.11 105.251 354 106H355C355.773 105.052 357.393 105.399 358 105C358.718 104.401 358.896 102.75 360 103L361 102C361 102 360.669 99.9977 361 98.9997C361.221 98.3011 361.896 97.85 363 97.9997C366.091 98.4488 364.454 97.2971 366 95.9997C367.215 94.9518 367.565 95.349 369 94.9997C368.834 94.4508 368.669 93.5985 369 92.9997C369.662 91.8021 371.62 91.4009 373 91.9997C374.711 92.7482 374.509 91.1534 376 92.9997C378.043 93.1993 379.386 92.9538 379 94.9997C379 95.1494 378.166 94.8999 378 94.9997C378.442 95.848 378 97.4009 378 97.9997C379.27 97.85 381.227 97.2013 382 97.9997C381.945 98.0496 382.055 97.9498 382 97.9997C380.841 95.7542 382.669 96.1494 383 95.9997C383.166 95.8999 386.006 94.2033 387 95.9997C386.945 95.8999 387.11 96.0995 387 95.9997C386.117 95.3011 384.957 93.2472 387 91.9997C388.104 91.3011 390.006 92.4947 391 89.9997C391.442 88.4029 393.73 89.8001 395 89.9997C395.552 90.0995 396.558 89.3989 397 88.9997C396.669 88.351 396.006 87.5985 397 86.9997C397.828 86.5007 402.117 85.0496 403 84.9997C399.577 82.4548 401.798 81.5486 405 80.9997C405.166 80.0516 405.841 79.4987 407 78.9997C406.89 78.4009 406.117 78.3989 407 77.9997C408.877 77.0516 410.393 78.4488 411 77.9997L412 76.9997C411.338 76.85 410.386 76.4488 410 75.9997C409.117 76.3989 407.883 76.8979 407 75.9997Z" fill="#008189"/>
<path fill-rule="evenodd" clip-rule="evenodd" d="M288.999 128C290.323 127.455 293.062 126.564 293.999 128C294.551 126.663 295.117 123.742 295.999 123C296.771 122.356 298.117 123.198 298.999 123C299.44 120.723 299.731 119.832 300.999 118C301.992 116.564 304.062 116.742 304.999 116C305.551 115.554 306.448 113.693 306.999 113C308.268 111.366 309.345 107.742 310.999 107C311.716 106.653 312.503 106.356 312.999 107C313.551 106.307 314.282 105.594 314.999 105C314.503 104.109 314.117 103.742 314.999 103C316.102 102.059 317.51 102.841 318.999 102C319.771 101.356 320.503 101.247 320.999 101C320.999 101 321.668 99.5939 321.999 98.9999C321.723 98.5049 321.771 98.0494 320.999 97.9999L319.999 98.9999C318.234 99.5939 314.826 99.1088 313.999 99.9999H312.999C312.337 100.495 311.992 101.049 310.999 101C309.565 100.901 307.606 100.138 306.999 98.9999C306.558 98.1583 307.503 97.5444 307.999 96.9999C308.054 96.9009 308.11 97.1979 307.999 96.9999C306.069 93.1881 306.378 95.9009 304.999 95.9999C303.455 96.0989 301.992 96.0494 300.999 95.9999C300.007 95.9009 298.543 96.5939 296.999 95.9999C295.179 95.2573 294.268 93.9405 292.999 92.9999C290.959 93.3464 290.551 90.2969 289.999 89.9999C289.668 90.2474 289.157 92.2078 287.999 92.9999C286.731 93.891 286.33 92.1979 285.999 91.9999C285.668 91.8019 283.385 92.6335 282.999 90.9999C282.613 89.2673 284.22 87.891 283.999 86.9999C283.779 86.1088 281.551 85.5246 280.999 82.9999C280.999 81.7623 281.448 81.99 281.999 80.9999C282.33 80.4554 282.503 80.0494 282.999 79.9999C282.503 79.1088 283.613 77.792 283.999 76.9999C281.297 74.5247 279.944 72.4454 279.999 71.9999C280.275 71.5544 283.911 70.0989 286.999 69.9999C288.047 67.4752 287.834 67.1781 287.999 64.9999C290.095 63.4158 290.551 64.9305 289.999 62.9999C288.951 59.3366 290.889 59.4949 290.999 58.9999C291.44 57.5643 290.889 55.683 290.999 53.9999C291.22 50.4356 294.455 50.3365 295.999 48.9999C294.951 48.8019 291.889 49.9305 291.999 47.9999C292.11 45.8712 293.738 45.0494 295.999 44.9999C294.951 43.8118 295.275 40.485 294.999 38.9999C294.172 39.1979 293.606 38.8415 292.999 37.9999C292.282 36.9108 292.779 36.0395 292.999 34.9999C293.165 34.4554 292.613 34.2474 292.999 33.9999C294.599 32.8118 292.11 33.188 291.999 31.9999C291.944 31.4554 291.999 30.7425 291.999 29.9999C291.117 29.5049 290.282 27.9405 290.999 26.9999C291.716 26.0593 294.676 24.9504 295.999 24.9999C295.999 24.9504 295.999 25.0494 295.999 24.9999C295.227 25.0989 294.716 24.5939 293.999 23.9999C292.786 23.0098 293.393 22.2375 293.999 20.9999C293.282 19.0693 292.11 17.9801 291.999 15.9999C290.896 16.0494 290.165 15.99 289.999 14.9999C289.944 15.1484 290.11 14.8514 289.999 14.9999C288.4 16.9801 287.213 16.4454 285.999 15.9999C285.227 15.7029 286.268 16.1979 284.999 15.9999C285.165 16.4949 285.716 16.6534 284.999 16.9999C284.062 17.4454 283.496 17.1979 282.999 16.9999C282.779 16.9009 282.268 16.3564 280.999 16.9999C281.054 17.4454 281.22 17.6534 280.999 17.9999C281.496 18.7425 281.716 20.2573 280.999 20.9999C279.896 22.1385 279.661 21.9009 278.999 21.9999C277.234 22.2969 278.157 20.891 276.999 19.9999C276.668 19.7524 276.102 19.4059 274.999 19.9999C274.007 20.5444 273.378 21.2474 271.999 20.9999C271.117 20.8514 266.606 21.8019 265.999 21.9999H264.999C264.889 22.0989 262.11 23.0494 261.999 22.9999C261.337 22.9504 261.661 23.0989 260.999 22.9999C260.172 23.1979 259.44 22.9504 258.999 22.9999C258.613 23.1979 258.33 22.9504 257.999 22.9999C256.841 23.0989 257.661 23.7524 256.999 23.9999H255.999C252.966 25.0395 252.157 23.8019 250.999 23.9999C250.613 24.1484 250.385 25.1484 249.999 24.9999C249.944 25.4454 250.275 24.7029 249.999 24.9999C248.841 26.3365 247.22 25.9999 246.999 25.9999C245.841 26.0989 245.606 25.9504 244.999 25.9999C244.944 25.9999 244.999 25.9999 244.999 25.9999C244.723 26.3959 244.33 26.9504 243.999 26.9999C243.723 27.1979 243.165 26.9504 242.999 26.9999C242.944 27.0494 243.44 27.7524 242.999 27.9999C242.558 28.2474 242.44 27.5049 241.999 27.9999C241.779 28.3464 241.275 28.9009 240.999 28.9999C241.33 29.4949 241.771 29.4554 240.999 29.9999C240.117 30.5939 238.496 30.1979 237.999 29.9999C237.448 29.8019 236.999 28.693 236.999 27.9999C236.779 27.9999 236.275 27.9999 235.999 27.9999C235.779 27.9999 236.165 27.9009 235.999 27.9999C235.668 28.1484 235.22 28.0494 234.999 27.9999C233.014 28.4949 233.882 28.1088 232.999 28.9999C232.337 29.6435 230.826 29.6435 229.999 28.9999C229.779 28.8019 229.496 29.5444 228.999 28.9999C228.337 29.0989 228.33 28.5939 227.999 27.9999C227.944 28.1484 227.054 27.9009 226.999 27.9999C226.723 28.792 226.937 29.3464 225.999 28.9999C225.834 28.9504 225.11 29.0989 224.999 28.9999C224.062 28.1088 223.22 28.2375 222.999 26.9999C222.944 26.9999 222.716 27.0989 221.999 26.9999C221.889 27.0989 222.11 26.9009 221.999 26.9999C222.771 27.7425 222.385 28.2078 221.999 28.9999C221.779 29.3959 221.496 29.9504 220.999 29.9999C222.268 30.7425 221.102 32.3069 219.999 32.9999C219.117 33.5444 219.882 33.8019 218.999 33.9999C218.999 34.1484 218.999 34.8514 218.999 34.9999C219.44 35.0494 219.613 34.5544 219.999 34.9999H220.999C221.551 34.9999 221.503 34.8514 221.999 34.9999C222.606 34.7524 222.069 34.9999 223.999 34.9999C224.771 34.9999 225.668 35.3069 225.999 35.9999C226.385 36.7425 227.047 37.5544 225.999 37.9999C225.172 38.3464 223.599 40.2375 221.999 38.9999C221.889 38.9009 222.11 39.0989 221.999 38.9999C221.889 38.9999 222.054 39.0494 221.999 38.9999C221.889 39.7425 220.496 39.5544 219.999 39.9999C219.999 40.1979 219.999 40.6534 219.999 40.9999C220.33 41.1979 221.558 40.9999 221.999 40.9999C224.867 40.9009 224.503 42.0494 224.999 41.9999C224.834 41.9999 225.054 41.9999 224.999 41.9999C225.22 41.9999 224.889 43.4454 224.999 42.9999C224.999 42.9999 225.062 42.3464 225.999 41.9999C226.937 41.6534 227.613 41.6039 227.999 41.9999C228.33 42.1979 228.503 42.0098 228.999 42.9999C229.275 43.5444 229.337 43.7524 229.999 43.9999C231.763 44.6435 231.069 43.2573 232.999 43.9999C233.275 44.0989 234.668 44.1583 234.999 44.9999C235.385 46.1385 235.385 46.4158 234.999 47.9999C234.723 48.99 233.606 48.7029 232.999 48.9999C231.345 49.792 230.826 49.792 229.999 48.9999C229.779 49.1484 222.826 49.0989 221.999 48.9999C221.007 48.9009 220.606 48.5939 219.999 47.9999C219.393 48.4949 219.33 48.6534 218.999 48.9999C218.889 49.1484 219.11 48.9009 218.999 48.9999C219.054 49.891 215.992 51.8019 214.999 51.9999C215.11 53.6335 214.268 52.8019 212.999 52.9999L213.999 54.9999C214.11 55.3464 213.889 53.9999 213.999 53.9999C214.992 53.8019 215.944 54.3069 215.999 54.9999V56.9999H216.999C219.205 57.7425 216.573 58.4158 218.999 59.9999C219.551 60.3959 219.385 61.5049 218.999 61.9999C218.889 62.0989 217.054 62.9999 216.999 62.9999C216.558 63.1979 215.054 63.9504 214.999 63.9999C213.565 65.9305 212.496 64.8019 211.999 64.9999C210.951 65.3959 210.11 65.9009 209.999 65.9999L206.999 66.9999C206.337 67.7425 207.143 68.9009 203.999 68.9999H202.999C202.889 68.6534 202.944 69.3959 202.999 68.9999V69.9999C202.999 69.9504 203.944 70.0494 203.999 69.9999C204.385 69.8514 204.613 68.9999 204.999 68.9999C206.985 68.8514 208.117 70.8514 208.999 70.9999C209.33 71.0494 210.779 70.4653 210.999 71.9999C211.22 73.5345 210.599 73.3069 208.999 73.9999C208.779 73.9009 209.165 74.0989 208.999 73.9999C209.054 73.8514 210.779 74.9504 210.999 74.9999C211.661 75.1979 216.172 74.1088 216.999 74.9999C216.999 74.9999 217.054 75.5049 216.999 75.9999C216.834 77.089 217.896 77.9504 218.999 77.9999C219.716 78.2474 224.558 78.3069 224.999 78.9999L225.999 80.9999C226.165 81.1979 226.448 81.6534 226.999 81.9999C227.33 81.9999 227.834 82.0494 227.999 81.9999C228.606 81.8514 228.951 80.5049 229.999 80.9999C229.999 80.9999 231.889 82.7524 231.999 82.9999C232.33 82.9999 231.999 83.9504 231.999 83.9999V84.9999C232.716 84.2573 232.951 83.6534 233.999 83.9999C234.551 84.1979 235.889 85.7029 235.999 85.9999V86.9999C236.11 87.6434 236.668 87.2078 236.999 87.9999C237.661 89.584 238.054 89.9108 237.999 90.9999C237.999 92.2375 237.779 92.0593 237.999 92.9999C238.33 94.485 239.503 95.7623 239.999 96.9999C240.275 97.5444 241.999 100.901 241.999 101C242.275 101.693 242.889 101.802 242.999 102C244.102 103.733 243.455 103.168 244.999 105C245.33 105.445 245.834 106.158 245.999 107C246.11 107.198 247.275 107.465 246.999 109C246.889 109.544 246.44 110.554 245.999 111C245.007 111.99 243.826 110.742 242.999 110C242.999 110 242.385 111.604 241.999 112C242.33 112.841 241.771 113.406 240.999 114C240.448 114.445 240.165 114.554 239.999 115C239.337 116.436 238.385 116.762 237.999 118C238.054 118.693 238.503 118.356 238.999 119C240.212 120.485 242.047 123.109 240.999 124C240.668 124.297 239.786 126.812 240.999 128L242.999 129C243.771 129.594 243.172 129.802 243.999 130C244.44 130.099 244.723 130.198 244.999 130C246.212 129.01 246.731 129.059 247.999 130C248.937 130.693 250.433 130.673 248.999 133V134C248.779 133.901 248.834 134.495 248.999 134C249.826 134.396 252.393 135.505 252.999 136C254.323 136.99 257.904 138.178 259.999 141C260.496 141.643 260.834 142.257 260.999 143C261.11 143.693 261.393 143.356 261.999 144C262.771 143.356 264.007 142.346 264.999 142C264.448 140.96 262.731 140.089 263.999 139C265.157 138.059 266.621 138.049 267.999 138C267.668 137.604 267.723 137.297 267.999 137C267.448 136.653 266.172 135.841 266.999 135C268.157 133.762 270.117 134.148 270.999 134C270.723 134 271.33 133.95 270.999 134C271.165 134 271.999 134 271.999 134C272.385 133.802 271.834 132.99 271.999 132C272.165 130.812 271.621 128.851 272.999 129C274.654 129.198 283.503 131.297 283.999 131C284.22 130.802 284.668 131.148 284.999 131C286.764 130.257 287.786 128.495 288.999 128Z" fill="#F6F1E8"/>
<path fill-rule="evenodd" clip-rule="evenodd" d="M134 172C135.922 174.078 146.176 175.564 147 177C147.714 178.237 147.506 180.059 148 181C148.275 181.445 149.055 181.861 149 183C149 184.088 149.616 182.861 150 184C150.439 185.385 151.561 186.466 152 188L154 203L171 198C171.879 197.752 172.957 196.643 174 196C175.812 194.861 177.243 193.653 179 194C179.329 191.872 179.902 192.326 181 190C181.439 189.01 181.341 188.593 182 188C182 188 186.451 186.94 187 186C189.471 183.278 191.639 179.87 194 177C195.208 175.713 200.847 169.495 202 169C202.824 168.703 204.012 167.901 205 168C204.396 165.921 205.561 164.029 206 162C206.384 160.218 209.572 161.802 211 162C217.424 162.247 214.98 163.027 218 156C218.659 154.466 218.133 152.237 220 151C221.428 150.059 221.298 149.752 223 150C223.769 150.099 228.286 150.099 229 150C230.812 149.802 232.957 151.614 234 153L235 155C235.769 156.583 234.957 156 236 156C237.812 155.95 240.561 160.268 241 162C241.275 163.088 240.737 162.802 242 163C242.934 163.148 243.286 163.604 244 164C248.723 160.09 253.893 157.414 259 154C261.251 152.515 262.023 151.633 264 150L262 148C260.847 147.158 261.977 145.732 260 144C258.243 142.466 259.361 142.117 257 139C255.462 136.971 250.691 136.237 248 135C246.078 134.109 245.451 132.583 246 131C246.384 129.812 247.208 130.89 246 130C245.396 130.643 244.714 131.198 244 131C242.407 130.653 242.153 129.791 241 129L239 128C237.847 126.812 237.945 125.099 238 125C238.22 123.218 238.165 121.396 238 121C237.725 120.158 236.769 119.989 236 119C235.012 117.812 235.561 117.484 236 116C236.824 114.317 237.353 112.385 239 111C239.055 110.208 238.012 109.742 239 109L242 107C243.098 106.109 243.231 107.307 244 108C244.165 107.158 243.165 106.643 243 106C242.78 105.01 242.659 105.989 242 105C241.725 104.554 241.11 103.94 241 103C240.945 102.703 240.275 100.099 240 99.9996C239.176 99.0099 238.549 99.0884 238 97.9996C237.725 97.5048 236.055 94.1481 236 93.9996C235.506 92.515 235.22 90.4348 235 88.9996C233.133 85.3375 233.373 84.4058 232 84.9996C231.176 85.346 230.549 85.445 230 84.9996C229.89 85.0986 229.055 84.1481 229 83.9996C228.671 83.3563 228.835 83.8409 229 82.9996C229.055 82.7027 229.11 82.1481 229 81.9996C229 81.9996 229.055 81.9996 229 81.9996C227.957 82.643 227.329 81.9501 227 81.9996C226.78 82.0986 226.275 82.9501 226 82.9996L225 84.9996C224.616 86.5337 224.22 88.416 224 89.9996C223.78 91.7317 223.757 91.2078 222 91.9996L221 92.9996L218 93.9996C215.2 95.1378 216.537 93.4553 215 93.9996C212.858 94.7419 212.043 94.8017 211 94.9996H209C207.682 94.9501 205.769 94.7914 205 93.9996L204 92.9996C203.066 92.0594 203.055 91.9399 203 90.9996C202.506 90.9007 202.22 90.6532 202 90.9996C201.616 91.544 201.275 92.2573 201 92.9996C200.451 94.3358 200.329 95.4058 200 95.9996C199.89 96.2471 199.439 95.7027 199 95.9996C197.792 96.6925 196.263 96.4058 195 96.9996C193.353 97.7914 193 97.6327 193 95.9996C193 95.8017 192.945 95.2471 193 94.9996C192.78 94.8512 191.384 94.9996 191 94.9996C189.627 94.9996 190.087 94.544 188 93.9996C187.451 93.8512 186.439 93.9501 186 93.9996C184.133 94.2966 183.702 94.3153 182 90.9996C181.945 90.9007 182.22 91.9996 182 91.9996C179.199 92.0491 179.275 89.7914 179 88.9996C178.89 88.9996 176.263 84.614 175 85.9996C174.945 86.0986 175.604 85.7522 175 85.9996C174.835 86.0491 172.22 86.1976 172 85.9996C171.506 86.346 171.439 86.3955 171 85.9996C170.78 85.9996 170.329 86.1976 170 85.9996C167.474 86.7419 170.691 88.7624 168 89.9996C168.11 90.1481 166.384 90.1481 166 89.9996C166 89.9996 165.11 89.8017 165 89.9996C164.725 90.445 165.043 89.9996 164 89.9996C161.968 89.9996 161.043 89.9399 160 88.9996C159.78 88.8017 160 86.9996 160 86.9996C159.671 86.6532 159.945 87.2471 160 86.9996C159.78 86.7522 159.11 86.2471 159 85.9996C158.451 86.7419 157.714 87.1481 157 86.9996C157 86.9501 155.329 87.0491 155 86.9996C155.165 88.1378 153.275 88.9007 153 88.9996C152.176 89.2966 151.439 88.0491 151 87.9996C150.78 87.9501 151.22 88.0491 151 87.9996C150.561 88.1481 149.098 88.8512 148 88.9996C147.835 89.7914 147.879 89.9501 147 89.9996C146.451 89.9996 145.439 90.2471 145 89.9996V90.9996C145.055 91.3955 144.22 92.5542 144 92.9996C143.725 93.5935 141.934 94.7522 141 94.9996C140.341 95.1481 139.988 95.8017 139 95.9996C138.176 96.1481 139.153 96.4058 138 96.9996C136.737 97.6925 134.769 96.0986 134 95.9996C133.89 95.9996 131.439 95.3955 131 94.9996C130.451 94.5542 128.659 92.346 128 91.9996C126.133 91.0099 126.702 89.5542 125 89.9996H124C123.286 90.643 123.494 90.3955 123 89.9996C122.89 90.2966 122.055 90.7522 122 90.9996C121.945 91.346 122.78 91.5542 123 91.9996C125.032 95.6617 122.824 94.5645 122 95.9996C121.671 96.544 120.769 97.1481 120 96.9996C119.506 98.3853 119.812 99.4655 118 101C118.988 101.692 119 101.515 119 103C119 103.445 118.945 103.851 119 104C119.714 104.247 119.616 104.604 120 105C122.087 105.94 121.769 106.169 121 108C120.121 110.128 120.373 110.872 119 113C120.538 113.643 120.142 115.802 118 116C117.89 116 113.329 118.672 113 116C111.902 116.049 111.988 116.198 111 116C109.627 115.752 110.483 115.554 109 116C108.835 116.445 108.769 116.455 108 117C108.055 117.643 107.22 121.208 107 122C108.208 122.742 110.286 122.604 111 123C111.769 123.495 112.275 125.762 112 127C112.494 127.94 113.879 128.208 113 129C113.439 129.643 112.89 130.01 113 131C112.506 130.752 113 131.099 113 131C113.165 131.049 117.945 133 118 133C118.879 133.247 118.506 133.643 119 133C119.329 132.257 118.78 131.593 119 131C119.275 130.307 121.231 130.049 122 130C123.428 129.901 122.561 130.356 123 131C123.384 131.495 125.121 131.307 126 132C126.549 132.445 126.78 133.01 127 134C127.165 134.841 125.671 139.653 126 140C127.593 141.732 127 142.07 127 144C127.055 146.326 127.847 144.822 129 147C130.043 149.078 129.11 151.317 129 153C128.945 154.781 129.439 157.317 129 159C127.572 164.641 129.353 165.525 131 168C132.263 169.93 132.737 170.663 134 172Z" fill="#F6F1E8"/>
<path fill-rule="evenodd" clip-rule="evenodd" d="M107 119C105.456 118.258 106.787 115.901 108 116C108.331 115.06 108.732 115.593 110 115C111.158 114.456 111.677 115.049 113 115C114.158 114.951 115.559 114.961 116 116L118 115C116.952 114.209 117.448 112.89 118 112C119.599 109.478 119.669 108.791 120 108C120.331 107.11 119.772 107.297 119 107C118.504 106.753 119.11 106.346 119 106C118.283 105.654 118 105.286 118 104C118 101.972 118.22 103.148 118 103C117.669 102.753 117.165 102.396 117 102C116.614 100.862 117.945 99.3462 118 99C118 99 118 99.1484 118 99C118.165 98.0603 118.945 98.2473 119 98C119.441 97.357 119 97.3957 119 97C118.779 96.7033 118.22 96.2967 118 96C117.338 94.9614 118 94.0495 118 94C118 93.4065 118.173 92.2365 119 91H117C115.456 90.8516 115.441 89.0989 115 89C114.283 88.357 113.614 86.9397 114 86C113.504 85.8022 112.165 85.544 112 85C110.952 84.8022 111.441 84.9505 111 85C109.842 85.3462 109.606 83.8516 109 84C108.283 84.1978 108.22 84.3462 108 84C107.393 84.0989 105.945 83.6924 106 83C105.338 82.6043 105.724 81.643 106 81C105.779 80.8022 105.11 80.3957 105 80C104.559 79.9505 104.275 79.544 104 79C103.448 78.8516 103.716 78.2473 103 78C102.559 78.643 101.551 78.3957 101 78C100.559 78.4451 99.6062 79.1978 98.9998 79C98.5036 79.2473 97.6062 78.9011 96.9998 79C95.9522 79.1978 96.2754 79 95.9998 79C95.5587 79.1484 95.1652 79.4451 94.9998 79C94.6138 79.2967 93.4408 79.1484 92.9998 79C90.5739 80.3354 89.4408 77.6924 88.9998 77C88.5036 76.6043 89.0549 76.2967 88.9998 76C88.8895 75.5549 87.11 75.1375 86.9998 74C86.5587 74.1978 86.3306 74.0495 85.9998 74C85.7241 74.3957 85.4408 74.8022 84.9998 75C84.6138 75.2473 84.5511 75.0495 83.9998 75C83.669 75.0495 83.0473 75.4946 81.9998 75C81.3933 74.7033 81.6614 75.0495 80.9998 75L79.9998 76C80.2754 76.4451 81.2203 76.5054 80.9998 77C80.7792 77.544 79.3857 77.9011 78.9998 78C77.6214 78.6924 77.3781 80.0278 75.9998 78C73.6842 78.9892 74.764 78.9011 72.9998 79C70.0778 79.0989 69.7944 75 71.9998 75C70.7317 74.357 71.4884 75.1978 69.9998 75C69.8895 75 69.1652 75.0495 68.9998 75C69.11 75.1978 66.6062 75.2967 65.9998 75C65.8895 76.7805 64.0397 77.3957 61.9998 77C61.5036 76.9011 62.0549 76.3462 61.9998 76C61.8895 76.0989 60.9446 76.9011 60.9998 77C61.496 77.643 61.9922 78.7527 60.9998 79C60.7241 79.4946 59.6614 79.9505 58.9998 80C58.8344 79.7033 58.8895 80.2967 58.9998 80C59.6614 81.2859 58.1576 81.4065 56.9998 82C55.9522 82.544 54.2678 82.6538 52.9998 83C52.3933 83.0989 50.496 84.5549 49.9998 85C48.5112 86.2365 48.8192 86.1484 46.9998 86C46.6138 85.9505 44.1652 85.9505 43.9998 86C44.11 86.5935 44.3857 87.6538 43.9998 88C44.6062 88.643 45.3306 90.0603 44.9998 91C44.6138 92.0386 42.11 91.8022 41.9998 92C41.283 93.0386 40.9922 92.4065 39.9998 93L37.9998 95C37.3382 95.8902 36.2203 95.7527 35.9998 96C35.8344 96.3462 35.7165 97 34.9998 97C34.3382 97 34.4408 96.2967 33.9998 96C33.669 96.8408 33.283 96.8733 33.9998 99C34.4408 100.385 33.8344 100.615 33.9998 102C34.11 103.039 35.6614 103.318 34.9998 105C38.2526 105.989 36.5511 108.505 35.9998 109C35.5587 109.297 34.3306 109.802 33.9998 110C33.9998 110 30.3306 111.852 29.9998 112C29.9998 112.692 28.8268 113.297 27.9998 113C27.8895 112.951 28.11 112.148 27.9998 112C27.6138 111.951 27.2754 112.198 26.9998 112C26.4484 112.049 25.4408 111.297 24.9998 111C24.283 110.555 24.9446 110.198 24.9998 110C24.3382 109.703 23.11 107.544 22.9998 107C22.8895 106.456 24.4884 106.396 22.9998 106C22.1176 105.753 22.3306 105.396 21.9998 105C21.7792 104.753 20.9998 105.198 20.9998 105C20.3933 104.505 21.496 103.346 20.9998 103C20.3933 102.555 19.3857 102.593 18.9998 102C18.9998 102 18.2754 101.94 17.9998 101C17.1728 100.654 16.496 99.643 15.9998 99C15.9446 98.9011 17.0473 98.8022 15.9998 99C15.669 99.0989 15.496 100.505 14.9998 101C15.0549 101.247 15.1652 100.753 14.9998 101C14.669 101.495 13.5511 102 12.9998 102C13.2203 102.198 13.9446 102.703 13.9998 103C14.1652 103.544 13.4408 103.703 12.9998 104C13.4408 104.495 14.0549 105.159 13.9998 106C13.8895 107.632 11.764 110.456 9.99977 111C9.17277 111.247 7.7165 110.951 6.99977 111C6.8895 111.593 6.99977 112.407 6.99977 113C7.16517 117.253 6.16517 114.983 5.99977 118C5.77923 119.929 4.17277 120.456 4.99977 121C5.8819 121.593 7.2279 122.407 7.99977 123C9.21272 123.94 9.5511 124.417 8.99977 126C8.66897 126.89 7.77163 128.555 6.99977 129C6.99977 129.593 5.32296 127.994 3.99977 132C3.33817 133.978 2.66136 134.417 1.99977 136C1.5587 137.039 1.11003 138.011 0.999767 139C0.944633 139.445 2.22791 138.654 2.99977 139C7.90662 141.127 9.3933 140.714 9.99977 142L19.9998 143C24.3553 143.593 28.6443 144.308 32.9998 145C34.5435 145.247 40.1252 146.407 41.9998 147C43.3781 146.06 44.5815 146.049 47.9998 146C49.3781 145.258 50.0702 145.099 51.9998 145C52.1652 145 53.7792 143.198 53.9998 143C54.496 142.555 55.3382 142.346 55.9998 142C60.0796 139.774 68.2507 134.434 71.9998 133C74.4807 132.06 75.5188 132.753 77.9998 133C80.4256 133.247 79.669 133.467 79.9998 135C80.2754 136.088 85.7241 136.852 85.9998 137C87.1024 137.593 89.7241 137.049 89.9998 137C89.669 135.516 90.5036 135.731 90.9998 134C91.1652 133.407 90.669 133.346 90.9998 133C90.9998 133 92.9446 131.544 92.9998 131C93.11 129.121 92.6842 126.89 94.9998 126C96.1576 125.555 96.9998 126 96.9998 126C97.8268 126.049 100.448 127.247 101 127C101.331 126.852 102.448 126.099 103 126C103.165 125.357 103.118 125.495 104 125C106.646 123.467 105.173 122.83 106 121C106.22 120.505 106.614 119.989 107 119Z" fill="#F6F1E8"/>
<path fill-rule="evenodd" clip-rule="evenodd" d="M104 128C103.067 128 102.768 127.95 102 128C100.903 128.05 100.097 128.05 99 128C98.3416 128 96.5487 128.249 96 128C95.6708 129.495 95 128.259 95 131C95 132.595 94.9877 132.701 94 133C92.6282 133.449 93.6036 134.754 93 136C92.6708 136.648 94.2923 139.05 91 139C89.8477 139 89.8107 139.847 88 139C87.8903 138.95 80.0549 137 80 137C78.1344 136.95 79.1097 135.249 79 135C78.8354 134.601 78.439 134.05 78 134C75.8052 133.801 75.5364 133.402 74 134C73.561 134.199 71.6585 135.701 71 136C68.6405 136.997 66.1399 137.804 64 139C62.4087 139.897 61.6461 141.103 60 142C57.3662 143.395 57.1948 143.807 55 146C53.8477 147.545 53.3046 146.601 51 147C50.4513 147.1 49.4266 148.15 48 148C44.8724 148.1 44.0425 147.904 43 149C42.561 149.449 33.9754 146.249 32 146C28.2139 145.352 23.841 145.498 20 145C17.0918 144.601 13.9082 144.15 11 144C11.0549 144.449 11.1646 144.601 11 145C11.6036 145.598 11.3292 146.904 11 148H10C10.9328 149.096 12.2072 150.455 11 152L13 153C14.8656 154.146 13 152 13 152C12.7805 150.804 13.4087 150.053 15 151L19 152H21C23.14 151.801 23.2441 151.505 25 153C27.5789 155.243 27.5734 155.156 29 157C29.0549 157.1 28.7805 157.701 29 158C29.2195 158.399 28.3539 159.15 30 159C30.9328 158.9 32.2318 158.203 33 159C34.4266 160.445 33.6159 162.754 34 164L35 166C36.0974 168.691 35.9026 168.306 37 170C37.6036 170.947 38.8903 171.405 39 173C39.0549 173.897 37.3841 174.85 37 175C36.7256 175.15 35.5913 175.598 34 175C33.1769 174.701 32.1646 174.997 32 174C31.8903 174 32 173.85 32 174C32.8779 174.249 33.1221 175.452 34 176C35.5913 176.648 35.2318 177.751 36 178C36 178 37.2195 178.9 37 179C37.439 179.199 38.3964 179.053 39 180C39.7133 180.199 41.1646 179.897 41 179C40.6159 178.452 41.6159 176.449 42 176C43.262 174.605 43.3539 176.199 45 176C45.3292 175.801 47.6159 175.551 48 176C48.9877 175.701 49.5185 176.797 51 176C51.2744 175.452 53.4513 173.897 54 173C54.3292 172.452 59 170 59 170C60.2072 169.601 62.5062 169.449 63 169C63.1646 168.85 65 167 65 167C65.9876 166.302 68.3964 166.648 69 166C70.6461 164.306 72.793 165.95 74 166C75.4266 166.05 74.3964 166 75 166C75.3841 166 75.6159 165.801 76 166C76 165.95 78.6159 165.904 79 167C78.8903 167 79.2318 168.502 80 169C80.0549 168.95 81 169 81 169C81.1097 168.95 83.6708 168.801 84 169C84.7682 169.449 84.2195 169.551 84 170C84.9877 170.648 84.1893 169.502 86 170C86.3292 170.1 87.7805 170.199 88 170C88.6584 169.103 87.6708 168.847 88 168C88.5487 166.654 89.2867 166.95 90 167C91.5913 167.15 91.2318 167.801 92 168C92.6036 167.85 93.4513 167.9 94 168C94.7133 168.15 94.5062 168.199 95 168C96.7559 167.252 97.1893 168.252 99 169C99.9328 169.349 99.7805 170.651 100 171C101.043 172.395 98.8052 171.206 101 173C101.11 172.9 102.055 173.701 102 174C102 174.15 102.439 175.302 102 176C101.671 176.548 101.384 177 101 177C100.232 177.199 99.0123 177.455 100 179C100.329 179.299 100.219 179.601 100 180C101.152 181.495 101.604 183.306 101 185C100.671 185.947 100.165 186.153 100 187C100.768 187.05 101.464 186.751 103 187H107C107.494 186.95 108.671 185.399 109 185C109.823 183.904 110.835 183.246 111 182C111.219 180.754 111.202 180.249 114 180C114.604 179.95 115.464 179.352 117 180C117.713 180.299 119.177 181.1 120 181C122.03 180.801 120.708 180.797 124 180H127C127.878 180 130.287 180.648 131 180C131.11 180.1 132.835 178.199 133 178C133.878 176.605 133.793 176.007 135 178L137 180C140.018 183.289 143.848 184.551 145 185C146.043 185.349 145.683 185.199 147 185C147.494 184.9 147.726 184.85 148 185C147.781 184.203 148 183.748 148 183C146.738 182.053 146.439 181.545 146 180C145.616 178.605 145.219 179 145 179C140.281 177.605 135.567 176.339 132 173C130.134 171.256 127.988 168.04 127 165C126.177 162.608 126.726 159.997 127 159C127.604 156.707 127.616 154.243 128 152C128.384 150.007 128.591 148.395 127 147C125.409 145.605 125.781 145.94 126 143C126.11 141.156 124.616 141.545 125 140C125.11 139.601 126 135 126 135L125 134C123.903 133.85 123.768 133.047 123 132C122.945 132.05 122.11 132.95 122 133C121.89 133.548 122.165 133.203 122 134C121.671 135.645 121.085 135.997 119 135C118.506 134.751 113 133 113 133C111.738 132.452 111.726 131.648 112 131C111.451 130.153 111.232 129.698 112 129C111.835 128.751 110.232 127.096 111 126C110.89 124.854 110.317 125 109 125C108.342 124.9 107.604 124.349 107 124C106.616 124.399 105.768 124.551 105 125C105.274 125.349 106.11 125.452 106 126C105.781 126.997 104.439 127 104 127V128Z" fill="#F6F1E8"/>
<path fill-rule="evenodd" clip-rule="evenodd" d="M125 182C121.386 182.841 121.971 181.802 120 182C118.795 182.099 116.095 181.445 115 181C114.343 180.703 115.095 181.951 114 182C112.138 182.148 112.986 181.17 112 183C111.178 184.583 109.136 187.802 107 188H102C100.795 187.802 101.205 188.148 99.9999 188C99.507 189.632 95.0546 193.901 94.9999 194C94.726 195.187 93.8903 195.714 93.9999 197C94.0546 197.346 94.8903 196.951 94.9999 197C96.0403 197.198 102.055 199.763 102 201C101.945 201.89 101.821 202.247 101 202C99.1379 202.94 93.9165 203.039 91.9999 202C89.9736 200.912 86.2999 200.456 83.9998 201C83.7808 201.049 80.9998 202 80.9998 202C77.1665 201.06 79.8475 200.813 76.9998 202C76.6165 202.148 74.4927 202.198 73.9998 202C73.3427 202.692 71.9998 206 71.9998 206C71.9998 206 73.4783 207.159 71.9998 208C70.9594 208.594 69.1499 208.802 67.9998 209C68.0546 209.594 67.9998 210.951 67.9998 211C67.9998 211.049 72.3976 212.032 72.9998 215C74.5332 214.753 79.257 220.781 73.9998 219C73.3427 219.297 72.9998 219 72.9998 219C72.4524 219.099 72.2189 218.346 71.9998 218C71.8903 218.049 72.1094 217.951 71.9998 218C71.726 218.247 71.4237 218.802 69.9998 219C67.0974 219.346 64.9998 217 64.9998 217C64.8903 216.555 65.5475 216.099 64.9998 216C64.8903 216.148 64.2737 216.852 63.9998 217C62.9046 216.951 58.7118 216.049 57.9998 216C57.9451 216.099 58.0546 215.951 57.9998 216C58.0546 216.89 56.726 218.269 56.9998 220C56.9998 220.099 56.8903 220.753 56.9998 221C57.4379 221.099 58.0546 221 57.9998 221C58.5475 221.396 60.9451 222 60.9998 222C65.8737 222.692 68.5213 231.389 69.9998 235C72.0261 234.703 73.1094 239.665 72.9998 241C72.8903 242.731 73.6021 242.318 72.9998 244C74.3688 244.148 77.1236 242.961 77.9998 244C77.9998 244 80.726 250.357 80.9998 251C81.8213 250.505 83.0141 250.099 83.9998 250C85.0951 249.802 86.7808 250.604 86.9998 251C92.8047 247.587 94.588 254.114 92.9999 260C92.9451 260.148 92.0546 262.951 91.9999 263C91.6165 263.692 90.438 264.357 89.9999 265C88.4117 267.424 90.6713 267.675 90.9999 270L93.9999 267C94.2189 266.802 96.9999 265 96.9999 265C97.7665 264.456 98.6856 264.692 99.9999 264C100.986 263.505 101.671 263.148 102 263C104.136 261.961 105.262 261.445 108 261C109.533 260.753 114.686 260.456 116 261C117.369 261.544 117.905 262.308 119 263C120.752 264.237 124.521 266.269 126 268C126.493 268.544 126.617 269.406 127 270C127.821 271.335 126.959 271.011 128 272C128.602 272.594 131.178 277.665 132 279C141.583 281.572 143.055 281.237 143 280C142.781 262.244 143.259 230.763 142 209C142 208.406 141.069 207.198 142 207C143.533 206.604 144.412 206.445 146 206C147.259 205.654 148.795 205.346 150 205C150.657 204.802 151.288 204.198 152 204L150 189C149.178 188.11 149 187.445 149 187C148.89 185.417 145.424 186.495 144 186C143.562 185.852 138.055 184.049 138 184C136.85 182.912 134.547 179.791 134 179C133.562 179.544 132.493 180.505 132 181C132 181 129.971 180.901 128 181C126.138 181.049 127.04 180.654 126 181L125 182Z" fill="#F6F1E8"/>
<path fill-rule="evenodd" clip-rule="evenodd" d="M328.999 38.9997C330.316 37.1738 331.86 35.0854 333.999 33.9997C335.37 33.3088 336.834 35.049 336.999 34.9997C337.548 34.9503 336.408 33.901 337.999 33.9997C339.37 34.0984 341.066 35.1608 341.999 35.9997C342.657 34.9634 343.518 33.1477 344.999 32.9997C346.645 32.8023 347.682 33.3088 348.999 33.9997C349.877 34.4932 350.109 36.4075 349.999 36.9997C349.944 37.2464 349.999 36.9503 349.999 36.9997C350.986 38.3815 352.298 37.0127 353.999 37.9997C358.333 40.5658 354.501 42.9113 358.999 39.9997C360.809 38.3712 363.64 38.4075 365.999 38.9997C367.37 39.3451 366.889 40.9503 366.999 40.9997C367.712 41.3451 369.176 41.1477 369.999 40.9997C370.493 40.901 370.286 40.2464 370.999 39.9997C370.999 39.9997 374.353 39.1738 375.999 40.9997C376.932 41.9867 376.999 42.8647 376.999 43.9997C376.725 45.8256 375.695 48.1608 377.999 48.9997C379.535 49.5425 381.573 49.3451 382.999 48.9997C383.712 48.8023 384.573 47.3945 385.999 46.9997C387.37 46.6049 388.176 48.0984 388.999 47.9997C389.548 47.901 390.396 47.0984 390.999 46.9997C391.986 46.8023 393.45 46.9634 393.999 47.9997C394.164 48.3451 393.999 48.5062 393.999 48.9997C393.944 51.3684 395.147 53.0984 397.999 52.9997C399.041 52.9503 400.012 53.6542 400.999 53.9997C401.767 54.2464 404.67 55.901 404.999 55.9997C403.573 54.4205 402.408 48.7269 403.999 46.9997C404.054 46.901 404.999 46.049 404.999 45.9997C402.969 45.0621 403.712 43.9243 402.999 41.9997C402.066 41.0621 399.45 40.2828 399.999 38.9997C399.066 38.3582 398.493 38.4308 397.999 36.9997C397.78 36.3582 398.408 33.9997 399.999 33.9997C400.328 32.9634 399.573 32.3451 400.999 31.9997C401.109 31.9503 406.164 29.888 405.999 28.9997C406.054 26.2855 400.974 32.1217 398.999 29.9997C398.725 29.7036 395.48 30.2074 393.999 26.9997C390.379 26.8516 385.797 25.1087 382.999 21.9997C382.341 21.3088 380.877 23.8023 379.999 23.9997C379.396 24.1477 378.548 24.7529 377.999 24.9997C378.164 25.7893 377.932 26.8516 376.999 26.9997C375.902 27.1971 371.615 27.7762 371.999 25.9997C371.725 26.2958 371.218 25.9997 370.999 25.9997C370.231 26.1477 370.164 25.7529 369.999 25.9997C369.78 26.3451 369.602 26.8023 368.999 26.9997C368.231 27.2464 367.328 26.6906 366.999 25.9997C366.286 24.3712 365.822 23.6282 364.999 21.9997C364.286 20.6179 367.286 20.4569 367.999 20.9997C368.438 20.901 368.164 20.6906 367.999 19.9997C367.78 19.0621 367.834 17.9373 367.999 16.9997C368.164 16.2101 368.066 16.2464 368.999 15.9997C368.78 15.901 367.712 15.5425 366.999 14.9997C366.505 14.6049 364.054 10.4438 363.999 9.99969C363.999 9.6049 363.67 9.29578 363.999 8.99969C363.615 8.21011 364.341 7.6412 364.999 6.99969C364.066 6.65425 364.218 6.14773 363.999 5.99969C363.396 5.6049 362.328 4.64122 361.999 3.99969C361.834 3.99969 362.164 3.04904 361.999 2.99969C361.505 3.73992 360.248 4.93732 357.999 3.99969C357.45 5.43081 357.864 5.6049 355.999 5.99969C355.67 6.04904 355.425 7.44383 353.999 6.99969C352.847 6.65425 349.712 5.64122 348.999 4.99969C348.505 4.55555 347.999 3.04904 347.999 2.99969C347.78 2.80229 347.383 3.09839 346.999 2.99969C346.56 2.85164 346.218 3.09839 345.999 2.99969C345.999 2.55555 343.109 2.99969 342.999 2.99969C342.176 3.09839 341.657 2.24643 340.999 1.99969L338.999 2.99969C338.231 3.14773 338.438 2.73992 337.999 1.99969C337.889 1.99969 337.383 1.09839 336.999 0.999688C336.834 0.752943 337.054 1.39448 336.999 0.999688C337.438 1.69057 336.822 3.4075 335.999 3.99969C335.012 4.73992 334.602 4.23341 333.999 2.99969C332.573 2.55555 332.7 3.66727 330.999 4.99969C330.725 5.19708 323.957 4.96336 324.999 5.99969C325.218 6.19708 326.492 6.86468 325.999 7.99969C325.56 9.03601 324.712 9.3088 323.999 9.99969C323.725 10.2958 323.029 12.6282 320.999 10.9997C320.67 10.7036 318.999 9.99969 318.999 9.99969C317.902 10.3451 319.59 11.4569 317.999 11.9997C316.847 12.3451 314.096 13.4932 312.999 12.9997C312.78 12.901 296.657 15.7036 295.999 15.9997C295.231 16.2958 294.822 16.7529 293.999 16.9997C293.944 18.036 295.438 22.8153 294.999 23.9997C296.151 24.049 297.657 27.0621 296.999 27.9997C296.231 29.036 295.438 27.9997 294.999 27.9997C294.615 27.9503 292.109 28.7529 291.999 28.9997C291.944 29.4932 294.218 29.0257 293.999 30.9997C293.45 33.023 296.151 31.5453 294.999 34.9997C294.725 35.7893 294.109 36.6542 293.999 36.9997C292.957 40.8982 295.012 36.3842 295.999 38.9997C298.577 45.7111 294.763 39.7687 297.999 44.9997C298.493 45.7893 297.932 46.5062 296.999 46.9997C295.737 47.6412 294.657 47.8516 293.999 47.9997H292.999V48.9997C294.206 49.049 298.054 47.6309 297.999 49.9997C297.889 53.2074 292.615 52.0881 292.999 54.9997C292.999 55.1477 293.164 57.8647 292.999 58.9997C293.273 58.9997 293.78 59.6049 293.999 59.9997C295.59 62.6645 295.725 61.1477 295.999 60.9997C297.316 60.1608 299.396 60.8023 299.999 60.9997C300.986 61.2958 301.164 62.1114 300.999 62.9997C301.767 62.901 303.341 62.7529 303.999 62.9997C303.999 62.9997 305.67 63.049 305.999 62.9997C305.999 62.9997 307.012 63.1477 307.999 62.9997C308.822 62.8516 309.834 64.1477 309.999 63.9997C310.383 63.5555 307.391 59.2958 311.999 58.9997C316.278 58.7036 315.682 61.9503 316.999 61.9997H317.999C319.535 61.1608 319.066 60.9373 319.999 59.9997C321.041 58.3218 322.56 57.5919 322.999 56.9997C323.054 56.9503 323.176 56.2958 323.999 55.9997C324.438 55.8516 324.615 55.9997 324.999 55.9997C325.602 55.9997 325.889 55.5425 325.999 54.9997C326.273 53.7166 329.628 51.4568 330.999 51.9997C330.396 51.0621 329.834 50.1841 329.999 48.9997C330.164 47.5686 331.944 47.0984 331.999 46.9997C332.328 46.2595 332.383 45.7399 331.999 44.9997C331.505 43.914 329.932 42.8256 328.999 40.9997C328.725 40.4568 328.615 39.5425 328.999 38.9997Z" fill="#F6F1E8"/>
<path fill-rule="evenodd" clip-rule="evenodd" d="M411 74C413.202 75.7762 415.385 75.3718 415 77C414.615 78.4309 414.817 78.3454 413 78C413.055 77.8026 411.918 79.7401 409 79C408.725 78.9507 408.275 79 408 79C408.385 81.0723 405.78 81.3092 406 82C407.486 82.3454 408.569 82.3586 410 83C410.551 83.2467 411.165 86.7533 411 87C410.339 88.0361 411.33 86.7172 411 88C410.78 88.8388 411 89.0625 411 90C411 90.9868 411.597 91.5066 410 92C409.945 92.0493 409.11 91.9013 409 92C408.449 92.5921 407.688 95.7894 410 95C411.321 94.5559 410.954 94.4934 412 94C413.486 93.2599 414.734 93.852 416 94C417.652 94.1974 418.954 93.3718 420 95C420.385 95.5921 420.44 95.4573 420 96C420.991 95.7533 422.284 96.3092 423 97C423.33 97.3454 422.67 98.0987 423 98C424.707 97.5559 425.174 98.1744 426 100C426.275 100.691 426.33 100.408 426 101C426.551 101.099 427.835 101.803 428 102C428.606 102.691 427.22 103.556 427 104C426.339 104.937 425.165 104.901 425 105C422.523 106.036 423.119 105.766 424 107C424.826 105.668 425.293 105.543 427 105C427.385 104.901 427.56 105.099 428 105C428.881 103.47 429.578 102.852 432 103C432.495 103.049 432.56 103 433 103C433.385 101.816 435.339 102.655 436 103C436.551 103.296 436.89 103.296 437 103C437.44 102.211 438.615 102.247 439 102C442.413 100.076 442.615 103.049 443 103C443 103 445.284 101.197 446 101C447.597 100.507 448.284 100.556 449 101C449.275 100.359 447.679 99.9868 449 99C449.826 98.4079 450 98.1348 450 97C450 96.4573 450.67 95.296 451 95C452.211 93.8652 451.302 94.1974 454 94C455.597 93.9013 456.459 93.6678 458 95L459 96C461.587 95.6546 463.064 96.4079 464 97C466.642 98.6776 465.835 98.9639 466 100C466.275 101.579 464.615 100.865 465 102C465.771 101.704 474.624 106.345 476 106C479.413 105.063 481.707 103.355 480 100C479.56 99.1119 477.56 97.9868 478 97C478.385 96.0625 479 95 479 95C478.449 93.7172 466.532 87.5163 470 85C472.477 83.6185 472.972 83.6908 476 83C478.477 81.9639 477.183 82.1842 479 81C479.22 80.852 480.229 81.296 481 81C481.33 80.4079 480.78 79.3947 481 79C481.33 78.6053 482.238 77.0132 484 78C484.606 77.5066 487.945 75.0493 488 75C487.615 74.2106 487.725 72.7894 488 72C486.348 69.385 483.817 65.615 482 63C480.293 60.4837 479.541 54.4802 478 53C477.394 52.4079 476.321 54.2335 475 53C474.394 52.4079 473.551 50.9375 473 50C472.394 49.0132 471.771 47.9375 471 47L468 44C465.688 41.0396 457.404 35.7631 453 33C451.073 31.7665 447.991 29.7762 447 28C446.78 27.5559 446.11 26.5427 446 26C445.945 25.7533 444.018 24.1842 446 23C446.991 22.4079 447.679 24.0493 449 24C449.826 24 451.275 23.5789 451 22C450.945 21.6053 451.835 21.1974 452 21H451C449.514 22.3322 448.385 21.704 448 22C447.284 22.4934 447.101 22.0493 446 22H444C444.11 22.3454 444.275 22.7533 444 23C442.624 24.5295 440.037 24.5559 438 25C436.954 25.1974 436.881 25.6546 436 26C434.073 26.7894 433.321 26.3454 432 26C432.165 26.296 433 27.0625 433 28C433 29.0855 431.551 29.7533 431 30C430.229 30.3454 429.936 30.6546 429 31C428.119 31.296 427.156 32.4079 426 33C424.569 33.7401 424.551 32.8388 424 32C423.89 31.852 423.551 31.6053 423 32C422.945 32.0493 420.532 35.7894 418 35C416.624 34.5559 418 34.8026 418 35C418.33 35.148 418 35.6546 418 36C417.945 36.5427 417.44 38.5559 417 39C416.174 39.8388 414.771 39.3454 414 39C413.394 38.704 412.89 38.3454 413 38C412.505 37.4079 412.762 37.4441 411 37C408.688 36.1612 409.037 36.704 407 37C404.853 37.296 404.597 37.8652 403 39C404.431 40.4309 402.899 40.8652 404 42C404.991 42.9868 407.275 44.0132 407 45C406.615 46.4309 405.716 45.5691 405 47C405.055 48.2335 405.11 48.9639 405 50C405.165 50.5427 405.339 54.704 406 55L410 56C413.964 56.9375 411 63.9639 411 65C411 65.5427 409.945 69 410 69C411.817 68.9507 412 70 412 70C412.11 71.6282 409.431 72.7533 408 73C407.67 73.5427 407.945 73.7665 408 75C408.11 76.5295 409.348 73.6678 411 75V74Z" fill="#F6F1E8"/>
<path fill-rule="evenodd" clip-rule="evenodd" d="M547 150C546.337 151.586 547.111 153.868 547 156C546.945 157.289 546.221 157.15 546 163C547.216 163.297 546.894 164.05 548 164C548.829 163.95 549.503 164.256 550 165C550.055 165.099 551.729 166.554 553 167C554.161 167.446 557.618 167.802 559 168C562.482 168.545 559.02 168.05 563 168H566C568.432 166.761 569.729 168.81 571 170C572.05 170.992 571.005 170.901 572 171C572.055 170.157 573.005 170.05 574 170C574.166 169.703 576.281 167.05 577 167C577.608 166.95 580.503 166.851 581 167C581.332 166.058 581.226 164.744 582 164C582.442 163.554 582.558 163.95 583 164C582.779 158.993 583.327 162.718 582 159C581.447 157.513 582.387 157.239 582 156C581.668 155.008 581.276 155.239 581 154C580.668 152.761 580.779 150.14 581 149C581.166 148.256 581.779 144.545 582 144L583 143C583 142.95 582.668 142.446 583 142C584.714 139.918 592.457 136.414 595 138C595.553 137.901 596.447 137.496 597 137C596.668 135.761 598.171 134.892 599 134C599 134 599.166 130.744 599 130C598.724 128.86 598.171 128.744 599 128C599.553 127.504 599.945 127.397 600 127C600.166 126.008 601.563 124.356 603 125C603.995 125.446 604.342 125 606 125C606.387 125 607.055 125.198 607 125C605.839 124.356 606.106 124.05 605 124C600.302 123.703 601.317 119.339 598 118C596.618 117.455 596.447 115.992 597 115C594.844 116.537 594.327 116.909 593 118C594.492 121.57 576.608 117.222 576 114C575.889 113.356 574.055 112.892 574 112C571.568 111.603 573 110.388 573 109C573 106.918 569.216 107.586 568 106C567.834 105.802 568.055 105.099 568 105C566.452 104.95 563.161 105.091 562 104C559.9 102.067 561.709 99.0822 559 97C557.95 96.2068 559.216 96.0411 558 95C557.171 94.3059 556.281 94.4873 557 93L555 91C554.945 90.9504 553.774 91.3386 553 90C552.779 89.653 550.884 90.347 550 90C548.286 89.3555 546.553 89.4958 546 89C545.503 90.0907 544.884 90.2563 544 91C543.226 91.6445 541.774 90.6445 541 90C540.724 94.8585 530.658 94.3882 529 93C528.668 92.7025 528.553 93 528 93C527.171 93 527.166 92.8513 527 93C526.337 93.6445 523.884 93.9504 523 94C523.166 94.4958 523.834 94.5538 524 95C524.276 95.7437 525.106 97.0665 524 99C523.724 99.4462 523.889 99.3059 524 100C524.166 100.892 524.995 101.306 524 102C522.286 103.14 519.824 103.455 518 104C519.99 105.041 518.724 107.752 519 108C520.05 108.992 522.397 108.314 524 110C525.327 111.388 522.945 112.851 523 113C523.055 113.149 524.503 113.653 525 114C527.156 115.438 529.834 116.273 530 119C530 119 530 119.198 530 119C531.161 119.892 532.618 120.554 534 121C534.553 120.802 535.281 120.603 536 121C537.327 121.744 538.281 122.761 539 124C539.94 125.636 539.06 128.207 540 129C541.327 130.091 544.789 129.207 547 130C548.382 130.496 547 132 547 132C547 132.099 546.724 135.058 547 136C547.055 136.248 547 136.802 547 137C549.211 138.289 553.055 138.025 553 141C552.945 144.867 548.161 147.125 547 150Z" fill="#F6F1E8"/>
<path fill-rule="evenodd" clip-rule="evenodd" d="M457 132C456.561 131.852 455.262 133.099 454 133C452.628 132.852 449.067 130.381 450 129C450.713 127.964 451.902 127.543 453 127C451.463 125.717 449.439 123.345 449 123C447.299 121.619 446.165 119.924 446 118C451.323 116.865 453.256 117.749 456 114C456.329 113.507 456.11 110.493 456 110C455.78 109.063 455.738 108.691 457 108C457.439 107.753 457.671 107.901 458 108C459.043 107.309 460.341 106.543 461 106C461.549 105.605 463.616 104.444 464 104C464.329 103.605 462.848 101.825 464 100C464.384 99.3586 463.89 99.2467 464 99C464.055 98.852 461.329 97.148 461 97C460.506 96.704 458.988 97.888 458 97C457.945 97.0493 456.274 95.148 456 95C455.177 94.6053 453.384 94.8027 453 95C452.341 95.3947 452.22 96.5066 452 97C452 97 451.274 98.408 451 99C450.561 99.888 451.372 102.211 450 103C449.067 103.543 448.659 102.444 448 102C447.396 101.605 446.823 101.753 446 102C445.287 102.197 445.22 102.605 445 103C444.671 103.543 444.988 103.852 444 104C442.408 104.197 441.768 102.951 441 103C440.561 103 439.317 103.704 438 104C436.408 104.345 435.549 104.691 435 104C434.341 104.937 430.384 104.556 430 105C429.78 105.296 429.384 105.852 429 106C428.232 106.296 426.329 106.26 426 107C425.561 107.987 425.262 108.049 424 108C422.299 107.901 421.561 106.48 422 105C422.384 103.717 423.902 102.493 425 102C423.902 101.26 423.506 100.641 424 100C423.945 99.9013 424.055 100.099 424 100C423.835 99.6547 425.482 99.6053 424 100C423.122 100.247 421.713 98.6907 421 98C420.451 98.5427 419.823 99.148 419 99C417.408 98.6547 417.177 96.184 418 95C417.122 95.148 415.878 95.592 415 95C414.067 95.4934 413.549 95.0987 413 95C412.78 95 411.11 96 411 96C409.628 96.444 409.152 95.888 408 95C406.408 93.7173 406.969 90.3453 409 90C409.22 90 409 89.3947 409 89C408.287 88.408 408.726 87.4934 409 87C408.945 86.408 408.396 86.0854 409 85C408.671 84.4573 408.78 84.6414 409 84C407.463 83.408 403.756 82.3947 402 82C402 82.296 402.329 82.7533 402 83C404.031 83.148 404.713 84.26 404 85C402.408 86.5787 402.183 87.852 399 88C398.726 88 398.22 87.9507 398 88C398.439 88.888 398 90 398 90C397.122 90.8387 395.317 91.1973 394 91H392C391.78 91.3947 391.439 90.9013 391 91C391 91.5427 391.659 92.556 391 93C389.683 93.8387 387.768 93.2106 387 94C387.549 94.1973 387.89 94.3093 388 95C388.22 96.0854 387.22 96.6547 387 97C386.287 97.9867 385.933 97.4934 385 97C384.835 96.9013 385.549 95.3586 385 96C384.726 96.296 384.494 96.8027 384 97C384.384 97.8387 383.933 98.704 383 99C383 99.0987 383.055 98.852 383 99C382.726 99.8387 382.494 100.099 382 100C380.738 99.852 380.329 99.1973 380 99H378C377.561 99.9867 376.482 100 375 100C374.177 100 374 99.6414 374 99C374 98.0626 376 97.0987 376 97V96C374.573 96.0493 373.463 95.036 375 94C374.506 93.852 374.274 93.3453 374 93C373.122 93.296 372.933 93.3947 372 93C371.835 92.9013 371.055 92.7533 371 93C370.945 93.3947 371.634 95.3586 369 96C367.957 96.2467 367.768 96.3093 367 97C366.835 97.148 367.055 96.852 367 97C366.835 97.6414 365.933 98.556 365 99C363.957 99.4934 364.098 99.148 363 99C362.616 99.296 362.671 98.964 363 100C363.329 101.135 362.988 102.309 362 103C361.232 103.592 360.933 105.296 360 105H359C358.177 105.543 356.713 105.753 356 106C356 106.099 356.055 106.852 356 107C355.671 108.233 354.372 107.395 353 107L351 106C351.11 105.359 352.22 103.543 352 103C351.835 102.605 350.549 102 350 102C348.848 102.049 346.384 103.704 346 104C345.287 103.753 344.713 103.247 344 103C344 103 343.329 102.529 343 101C342.89 100.457 341.494 100.148 341 100C340.835 99.9507 339.22 100.901 339 101L336 103L331 101L332 92C332 91.6053 331.494 92 331 92C330.561 92 330.11 91.9507 330 92L324 95H321C320.835 94.9507 320.274 94.9013 320 95C320.11 95.2467 320.055 95.6547 320 96C320.329 96.0987 320.726 95.704 321 96C321.11 96.0987 321.89 95.8027 322 96C322.055 96.148 322 96.852 322 97C323.427 97.3947 324.305 98.7173 322 100C321.89 100.099 322.055 99.9507 322 100C321.89 100.444 321.384 100.556 321 101C320.122 101.987 320.098 101.753 319 102C318.89 102.049 318.494 102.803 318 103C317.78 103.099 317.768 102.901 317 103C316.506 103.049 315.22 103.803 315 104C314.341 104.543 315.89 103.852 316 104C316.329 104.543 316.604 104.457 316 105C315.067 105.789 313.768 107.112 313 108C313.439 108.937 313.287 109.161 314 110L316 111C316.11 111.247 320.165 118.52 320 120C319.945 120.395 320 120.753 320 121H326C326.165 121.148 331.067 127.901 332 128C332.933 128.099 336.396 127.852 337 128C337.549 128.148 339.902 130.161 341 131C342.207 130.655 343.957 130.543 345 130C345 130 344.793 129.296 346 129C348.634 128.309 351.311 127.345 354 127C354.549 125.372 356.439 120.628 356 119C354.354 113.129 356.122 116.013 357 117H360C360.22 117.493 361.848 119.655 363 120C363.768 120.197 364.573 120.444 366 120C369.128 119.063 371.957 117.991 373 121C373.055 121.197 372.585 121.049 375 121H377C377.055 121.395 377.78 124.951 378 125C379.866 125.296 380 127 380 127C380 127 379.713 129.816 379 131C378.451 131.888 379.22 134.767 379 136C378.945 136.345 377.878 137.211 377 138L378 142C378 142 377.78 144.632 378 147L376 150C375.341 150.641 374.945 151.605 375 152C375.329 153.973 374.494 154 374 154C373.506 154 371.537 154.135 370 153C369.396 155.812 367.408 164.446 369 179L370 187C383.336 187.049 396.719 186.951 410 187C415.708 179.254 427.518 172.803 438 173C442.226 173.641 455.53 176.395 458 176C463.653 175.211 460.89 172.216 461 166C460.122 166.197 458.768 165.395 458 165C457.671 165.987 457.537 167.099 456 167C455.067 166.951 453.604 166.493 453 166C448.61 162.448 451.835 162.233 452 161C452.165 159.668 451.036 157.605 454 158C454.329 158.049 454.713 156.184 454 155C453.177 153.619 453.177 153.677 454 152C454.768 150.471 456.969 147.036 459 146C455.982 146.197 456.098 145.579 455 144C454.945 143.112 455.671 142.641 456 142C456.11 141.556 454.439 141.951 454 142C453.89 142 452.384 141.247 452 141C450.463 139.717 451.067 138.444 452 138C455.293 137.507 460.787 133.431 457 132Z" fill="#F6F1E8"/>
<path fill-rule="evenodd" clip-rule="evenodd" d="M189 186.999C187.224 188.779 183.554 188.517 182 189.999C180.89 192.421 181.555 193.577 181 195.999C193.431 204.798 205.624 210.114 218 219.999C219.221 220.593 218.778 221.653 219 221.999C219.61 222.889 231.834 237.95 232 237.999C232.277 238.098 251.169 233.653 253 233.999C257.662 234.939 264.005 234.851 269 234.999L275 232.999C276.776 232.159 279.223 231.429 280 233.999C280.721 236.421 282.058 236.368 284 237.999C285.498 239.285 286.723 241.357 287 241.999C287.999 244.323 288.778 247.479 289 249.999L293 247.999C294.054 247.505 294.612 248.258 295 248.999C295.277 249.444 294 256.973 294 258.999C298.884 258.999 302.393 252.866 306 249.999C306 249.999 315.28 245.285 317 243.999C316.501 242.961 316.889 238.593 317 237.999C317.111 237.209 317.612 237.543 318 236.999C319.054 235.467 317.67 231.615 321 232.999C320.889 231.517 319.723 231.037 320 229.999C320.555 228.319 321.112 228.543 322 227.999C321.723 227.357 322.166 228.049 322 227.999C320.835 227.901 318.555 225.889 318 224.999C316.002 221.935 317.664 223.631 315 221.999C313.779 221.258 312.168 221.383 313 219.999C313 215.205 314.499 209.794 314 204.999C311.003 205.247 310.498 203.395 309 202.999C308.057 202.752 307.667 203.087 308 201.999C311.885 190.779 307.501 191.174 308 188.999C308 188.999 307.945 186.345 308 185.999C300.674 186.345 293.381 185.79 286 184.999C285.112 184.901 283.11 182.494 282 181.999C280.335 181.209 278.888 178.703 278 178.999C277.501 179.197 276.666 179.247 276 178.999C273.947 178.258 269.442 175.988 267 174.999C265.502 174.406 260.165 171.06 259 171.999C255.837 174.52 248.166 165.999 248 165.999C244.781 166.049 239.832 165.064 239 161.999C238.889 161.555 238.054 157.95 237 157.999C236.168 157.999 234.387 158.866 233 155.999C232.279 154.615 230.998 151.802 229 151.999C228.112 152.098 223.943 152.148 223 151.999C222.223 151.901 223.276 152.159 222 152.999C220.946 153.691 220.61 155.566 220 156.999C219.057 159.224 217.719 164.258 215 164.999C213.613 165.395 209.498 164.494 208 163.999C207.501 165.878 207.168 167.467 208 168.999C208.444 169.79 207.777 169.703 207 169.999C206.001 170.395 203.555 169.802 203 169.999C201.335 172.174 199.776 174.022 198 175.999C195.725 178.372 194.942 179.38 193 181.999C191.724 183.779 190.554 185.467 189 186.999Z" fill="#F6F1E8"/>
<path fill-rule="evenodd" clip-rule="evenodd" d="M419.999 219C421.326 218.754 421.949 219.359 422.999 220C423.994 220 425.115 221.409 425.999 222C428.21 223.282 431.939 225.437 430.999 228C429.728 231.598 429.657 231.782 427.999 234C427.17 235.085 426.718 234.261 425.999 235C426.055 235.049 429.834 236.902 429.999 237C431.381 237.444 431.889 237.261 431.999 238C432.165 239.282 430.165 240.571 429.999 242V245C430.165 245.542 436.762 246.719 433.999 248C438.42 246.965 443.678 250.676 445.999 249C446.939 248.31 447.502 249.099 447.999 249C450.763 248.557 450.457 248.099 452.999 248C453.055 248 456.834 247.951 456.999 248C457.828 248.148 457.944 249 457.999 249C458.22 249.099 459.723 249.099 459.999 249C460.552 248.803 461.391 248.902 461.999 249C462.773 249.197 462.894 248.951 463.999 249C464.441 249 464.502 248.852 464.999 249C467.099 249.641 473.452 250.641 474.999 250C475.884 249.507 477.613 248.916 477.999 250C478.331 250.148 483.889 252 483.999 252C484.884 251.902 487.668 251.704 487.999 252C488.607 252.542 488.055 253.359 487.999 254C487.889 253.902 487.999 254.197 487.999 254C488.11 254.148 487.999 254.902 487.999 255C488.884 255.444 490.613 256.162 490.999 257C490.723 256.803 491.22 257.444 490.999 257L491.999 258L492.999 259C493.884 258.212 493.728 257.852 494.999 258C495.828 258.049 495.778 258.951 495.999 259C496.276 259.049 496.778 259.049 496.999 259C497.552 258.704 498.502 258.704 498.999 259C500.602 259.937 499.286 260.557 500.999 261C500.889 260.902 501.11 261.049 500.999 261C501.11 261.099 500.889 261.852 500.999 262C501.11 262.296 501.999 262.951 501.999 263C501.999 261.867 501.331 261.049 500.999 261C500.06 260.902 501.668 258.394 501.999 258C500.894 256.768 500.452 255.085 501.999 254C502.165 253.902 501.999 253.197 501.999 253C502.055 252.852 501.944 252.099 501.999 252C501.557 250.521 505.115 250 505.999 250C505.115 249.458 504.11 248.986 503.999 248C503.889 247.014 507.005 245.394 507.999 245C509.215 244.458 509.999 245 509.999 245C509.944 245 510.055 244.951 509.999 245V244C509.447 243.31 507.447 243.331 507.999 242C508.11 241.754 508.778 241.394 508.999 241C509.386 240.31 509.331 239.789 508.999 239V238C508.557 236.423 507.773 234.479 506.999 233C506.889 232.852 507.055 233.148 506.999 233C505.618 233.345 504.436 232.951 502.999 233C498.965 233.247 497.818 233.267 494.999 231C492.568 229.029 491.928 229.324 488.999 231C485.905 232.775 485.37 232.902 481.999 233C481.447 233.641 480.034 233.43 475.999 232C471.247 230.275 468.055 232 467.999 232C467.999 232 466.27 232.838 464.999 232C463.728 231.212 462.999 229 462.999 229L463.999 228C461.955 227.261 459.155 227.43 456.999 226C455.397 224.867 457.276 222.542 456.999 222C456.889 221.803 455.276 222.197 454.999 222C453.507 220.916 452.381 219.183 450.999 218C449.12 216.472 448.391 216.056 448.999 213C449.994 208.071 444.999 207 444.999 207C443.341 206.951 442.718 203.232 441.999 202C440.894 200.029 438.386 198.662 437.999 196C437.005 189.198 436.944 181.851 436.999 175C432.358 174.212 416.299 178.812 409.999 190C406.794 195.668 413.155 203.529 410.999 209C411.441 209.247 415.999 212 415.999 212C417.049 212.247 417.447 213.014 417.999 214C418.718 215.232 416.96 217.472 419.999 219Z" fill="#F6F1E8"/>
<path fill-rule="evenodd" clip-rule="evenodd" d="M349 225C349 225.547 344.823 237.41 343 239C344.05 239.646 344.829 240.758 344 242C345.768 243.839 349.514 242.36 352 244C353.16 244.745 352.669 245.553 353 246C354.381 247.441 353.503 247.205 354 248C354.829 249.292 355.829 252.46 355 254C357.928 256.186 358.508 256.503 360 257C361.823 258.54 361.95 260.752 363 261C363.387 258.963 366.95 255.149 368 255C369.436 253.062 368.636 251.851 373 252C375.596 252.099 372.741 252.795 376 252C377.215 251.652 376.453 252.199 378 252C378.608 251.901 378.282 251.752 379 252C379.994 252.348 379.779 251.801 380 252C381.16 252.696 382.779 252.95 383 253C385.928 253.199 385.453 253.304 387 254C388.602 254.696 388.95 254.354 390 255C390 255.248 391.558 255.553 392 256C392.11 256.099 392.945 257 393 257C393.939 258.342 398.84 257.95 400 258H401C400.779 256.957 400.669 256.093 401 255L402 253C402.166 253.05 401.183 248.143 404 247C404.939 246.602 406.564 245.702 408 246C408.276 245.602 408.006 243.95 409 244C411.265 244.149 411.171 244.242 412 243C412.552 242.602 412.613 242.851 413 243H415C416.602 242.901 415.227 244 416 244C417.105 243.652 421.779 246.46 422 248C425.37 247.453 435.503 254.329 436 251C434.508 250.602 432.779 250.242 433 249C433.055 248.752 433.055 248.447 433 248C432.337 247.404 432.829 248.298 432 248C430.232 247.404 429.497 245.988 429 244C428.669 242.559 428.171 242.491 429 241C429.387 240.304 430.613 239.447 431 239C429.011 238.702 425.718 237.938 425 236C424.227 233.913 426.227 234.043 427 233C427.773 232.006 429.829 227.193 429 226C428.116 224.758 425.713 224.292 424 223C423.006 223.099 422.884 222.497 422 222C420.564 223.093 419.663 220.298 419 220C417.398 219.354 416.448 216.342 417 215C417.11 215.199 417.166 214.602 417 215C416.613 214.354 416.663 214.199 416 214C415.613 213.901 414.552 213.398 414 213C412.84 212.155 408.724 210.944 409 210C411.044 204.286 404.691 198.689 409 189H370C368.895 189 368.608 189.099 368 189H338C338.829 190.093 338.785 190.155 340 191C342.431 192.64 341.613 195.261 342 197C342.829 200.528 344.95 205.323 346 209C347.16 213.224 348.834 221.025 349 225Z" fill="#F6F1E8"/>
<path fill-rule="evenodd" clip-rule="evenodd" d="M293.999 261C293.999 261.793 294.197 263.347 292.999 263C293.053 264.636 292.434 264.265 291.999 266C291.237 268.974 292.188 270.297 295.999 270C297.414 269.901 298.692 269.455 299.999 270C301.687 270.694 300.618 281.017 300.999 283C304.81 283.297 309.188 284 312.999 284C316.157 284.099 320.91 283.431 321.999 287C325.211 285.711 323.815 291.108 322.999 292C324.36 293.735 328.944 298.461 328.999 294C328.999 292.86 328.44 289.248 330.999 289C333.721 288.157 333.104 280.784 340.999 279C342.088 276.67 348.603 272.397 350.999 272C353.177 269.869 356.801 264.257 357.999 265C358.761 265.446 359.781 266.405 359.999 267C360.38 266.058 361.747 262.901 362.999 263C362.944 262.653 363.271 263.446 362.999 263C362.4 262.752 362.271 262.644 361.999 262C360.855 259.026 360.761 260.834 359.999 259C359.509 257.761 359.924 258.793 358.999 258C357.529 258.297 353.053 253.297 352.999 253C352.781 252.108 352.999 250 352.999 250C352.672 249.108 351.454 248.991 351.999 248C351.291 247.504 350.89 246.892 350.999 246C350.563 244.216 342.019 245.064 342.999 241C341.855 240.95 341.89 239.991 341.999 239C342.217 237.563 342.781 238.248 342.999 238C343.707 237.009 345.835 228.496 345.999 228C346.325 226.91 347.291 225.595 347.999 225C347.999 224.901 346.999 225.099 346.999 225C346.89 222.571 345.088 209.577 343.999 207C342.855 204.224 339.672 197.181 339.999 195C340.271 192.918 337.578 191.032 335.999 189H309.999C310.053 189.05 310.835 190.554 310.999 191C311.652 192.834 311.414 200.067 309.999 202C310.38 202.198 311.999 204 311.999 204C312.053 204 312.781 204 312.999 204C314.033 203.901 314.835 203.711 314.999 205C315.652 210.155 314.999 214.845 314.999 220C314.999 221.586 317.365 220.729 318.999 224C319.598 224.793 319.91 225.802 320.999 226C322.36 226.644 324.85 227.662 322.999 229C320.44 230.834 325.082 235.009 320.999 236C320.727 236.05 320.162 235.099 319.999 235C320.271 237.825 319.489 236.91 318.999 238C317.474 241.222 319.523 243.216 317.999 245C316.638 246.636 310.592 249.035 306.999 253C303.297 257.163 297.32 260.455 293.999 261Z" fill="#F6F1E8"/>
<path fill-rule="evenodd" clip-rule="evenodd" d="M503 173L508 175C510.144 175.745 509.318 175.255 513 176C513.824 176.149 514.176 176.752 515 177C516.154 177.397 517.121 178.801 518 179C520.199 179.547 521.571 177.205 523 178C523.934 178.497 523.605 179.006 523 180C522.67 180.547 522.615 181.304 523 182C523.165 181.901 531.89 192.516 532 195C532.715 193.36 534.56 190.391 535 189C535.275 188.205 534.89 186.994 535 186C535.33 183.317 538.285 180.683 539 178C539.605 175.068 540.45 172.236 541 170C541.385 168.311 542.89 167.292 543 166C543.055 165.056 542.901 163.497 544 163C544.165 160.565 544.45 156.994 545 156C545.989 154.261 544.066 151.286 545 149C546.374 145.671 550.945 143.782 551 141C551 139.559 546.924 139.292 545 138C544.231 137.453 545.055 136.298 545 136C544.725 134.857 544.945 131.696 545 131C542.966 130.553 540.759 131.441 539 130C537.186 128.509 537.66 126.292 537 125C536.505 124.106 535.934 122.547 535 122C534.56 122.149 533.605 123.199 533 123C531.296 122.453 529.374 121.093 528 120C527.066 119.304 528.165 118.547 528 118C527.615 116.658 525.374 115.944 524 115C523.285 114.503 520.78 114.342 521 113C521.605 109.721 525.025 111.882 517 109C515.296 108.354 517.22 105.596 517 105C516.945 104.95 515.495 104.596 515 104C513.461 102.211 517.846 101.199 519 101C520.429 100.752 522.275 101.292 522 100C521.56 97.9628 523 97.3478 523 97C523 96.9006 522.11 97.1987 522 97C521.285 96.056 521.33 95.1428 521 94C520.34 93.9503 519.275 94.0434 519 93C518.835 92.3044 519.67 91.3478 520 91C519.285 90.8013 518.45 89.5962 519 89C518.011 89 515.209 90.6397 514 89C512.846 87.41 514.78 86.1428 515 85C513.736 85.0994 510.484 83.4472 509 83C509.055 84.8881 507.924 84.5962 506 84C505.945 84 506 84.9503 506 85C506.934 85.5962 508.638 89 506 89C504.406 89.7453 502.484 91.8013 501 92C501 92.5466 500.154 94.3975 499 94C498.67 93.9006 491.144 78.534 489 76C488.725 76.2981 488.385 76.8509 488 77C486.351 77.4969 483.704 81.8384 482 80L481 81C481 81 480.979 82.8447 479 82C477.296 83.2422 478.913 82.7578 476 84C474.516 84.5962 473.199 84.3106 471 86C474.902 89.5278 482.044 92.7704 481 96H480C478.736 97.6397 482.769 99.671 482 103C481.45 105.335 480.979 105.559 479 107C478.231 107.547 475.989 108.248 475 108C471.812 107.255 468.913 105.795 466 105C465.615 104.901 465.165 105.298 465 105C464.56 106.59 458.209 110.248 457 110C458.429 116.807 454.376 118.758 448 120C448.11 120.596 448.395 121.503 449 122L456 128C455.066 128.596 452.055 129.304 452 130C451.945 130.348 453.176 132.447 454 132C458.067 129.814 461.518 132.926 458 137C456.076 139.236 455.308 138.404 453 139C452.285 142.18 455.571 140.808 457 142C457.824 142.696 458.089 145 456 145C456.66 146.093 455.406 145.348 457 145C457.879 144.801 460.165 145.808 460 147C459.945 147.348 460.385 147.801 460 148C458.461 148.795 454.395 153.957 455 155C456.264 157.137 456.154 157.814 455 160C454.615 160.795 453.715 161.05 453 161C453.055 161.894 452.879 163.354 452 164C452.495 164.596 453.516 165.453 455 166C456.704 166.596 455.231 166.59 456 165C456.715 163.559 457.791 164.354 459 165C459.715 165.348 459.945 165.199 460 165C460.824 163.658 461.395 164.298 462 164C462.934 163.553 463.011 163.453 464 164C464.66 164.397 464.011 165.192 465 164C465.66 163.155 466.34 163.248 467 163C468.154 162.603 468.505 164.149 469 164C469.605 163.752 470.516 162.397 472 162C474.638 161.255 475.736 163.46 477 165C477.11 165.149 477.78 165 478 165C479.484 165 479.725 165.509 480 167C480.879 166.801 481.505 167.149 482 167C483.649 166.503 482.626 166.497 484 166C484.769 165.702 486.121 165.503 487 166C488.044 166.596 487.725 167.553 488 168C488.44 168.795 490.285 170.907 491 172C493.199 171.354 495.801 170.547 498 170C498.055 169.95 498.846 168.907 500 170C500.715 170.696 500.615 169.95 501 170C502.539 170.099 502.45 170.957 503 172C502.89 171.752 503.11 172.248 503 172V173Z" fill="#F6F1E8"/>
<path fill-rule="evenodd" clip-rule="evenodd" d="M326 123H320C319.945 122.162 319.89 121.529 320 120C320.055 119.211 316.879 113.578 316 112C315.341 111.951 314.549 112.641 314 112C313.231 111.112 313.439 109.986 313 109C312.451 109.049 311.275 108.493 311 108C310.121 109.381 309.044 112.619 308 114C306.682 115.726 307.802 115.816 305 117C303.572 117.592 303.714 118.063 303 119C302.286 119.986 301.275 119.964 301 121C300.945 121.296 301.055 121.655 301 122C301.055 122.395 301.714 122.704 301 123C298.583 123.986 298.252 122.611 296 127C295.286 128.381 294.824 129.803 294 130C292.627 130.345 292.33 128.986 292 128C292 128.148 291.934 127.753 291 128H290C290 128.099 289.11 130.901 289 131C288.725 131.296 287.044 131.408 286 132C285.67 132.345 284.714 132.049 284 132C280.814 131.852 277.186 130.493 274 130C273.78 131.331 273.769 134.655 273 135C272.232 135.345 271.275 134.951 271 135C270.725 135.049 270.275 135 270 135C270.494 135.395 271.275 135.507 271 136C271.824 136.493 272.154 137.359 271 138C269.242 139.036 266.824 138.31 266 139C265.835 139.148 266.835 139.753 267 140C268.868 142.86 266.439 142.704 266 143L264 145L265 147C265.494 147.345 267.945 149.26 268 150C268 150.789 267.33 150.704 267 151C264.913 152.726 263.362 153.471 261 155C258.473 156.677 258.021 157.422 255 159C253.132 159.986 252.703 160.915 251 162C250.835 162.099 250.923 161.964 249 163C247.956 163.542 247.879 164.211 247 165C250.241 164.359 248.814 164.238 252 167C254.362 169.071 253.253 168.225 256 170C257.868 171.184 257.341 170.493 258 170C259.923 168.422 262.572 171.507 264 172C263.89 171.901 264.22 172.099 264 172C264 172 267.066 172.605 268 173C270.362 173.986 275.352 177.408 277 178C278.044 178.395 277.649 175.647 281 179C282.208 180.233 281.462 180.211 283 181C283.604 181.345 284.506 181.605 285 182C285.11 182.099 285.506 182.605 286 183C286.439 183.296 286.78 183 287 183C290.955 183.395 294.045 183.852 298 184C300.197 184.099 299.814 184.197 303 184C304.373 183.951 307.561 183.951 308 184C308.494 184.099 310.165 186.359 310 187H349C355.812 187 362.188 187 369 187L368 179C366.187 161.888 368.67 152.233 369 151C368.945 150.162 368.924 146.463 372 151C372.439 151.641 373.286 151.951 374 152C373.78 150.323 377.055 148.148 377 148C376.231 145.682 376.67 142.986 377 142L375 138L378 136C378.11 134.964 377.176 132.331 378 131C378.439 130.31 378.945 127.641 379 127C377.737 126.803 377.22 124.233 377 123C376.011 123 375.044 123.345 374 123C372.901 122.605 372.22 121.395 372 121C371.451 120.112 369.923 121.458 368 122C366.242 122.542 364.428 122.395 363 122C361.462 121.556 360.494 120.036 360 119H359C359.934 121.762 357.22 128.408 357 129C354.089 129.395 350.472 129.31 348 130C347.835 130.049 348 130.901 348 131C347.835 131.444 347.549 131.704 347 132C345.627 132.69 343.648 132.458 342 133L337 130H333C331.517 129.803 327.208 124.331 326 123Z" fill="#F6F1E8"/>
</g>
</svg>
