<svg width="16" height="16" viewBox="0 0 16 16" fill="none" xmlns="http://www.w3.org/2000/svg">
<path d="M1.33413 7.33404H13.0581L9.52946 3.80537C9.46579 3.74387 9.415 3.67031 9.38006 3.58897C9.34512 3.50764 9.32673 3.42016 9.32596 3.33164C9.32519 3.24312 9.34206 3.15533 9.37558 3.0734C9.4091 2.99147 9.4586 2.91704 9.5212 2.85444C9.58379 2.79185 9.65823 2.74234 9.74016 2.70882C9.82209 2.6753 9.90987 2.65844 9.99839 2.6592C10.0869 2.65997 10.1744 2.67836 10.2557 2.7133C10.3371 2.74824 10.4106 2.79903 10.4721 2.86271L15.1388 7.52937C15.2638 7.65439 15.334 7.82393 15.334 8.00071C15.334 8.17748 15.2638 8.34702 15.1388 8.47204L10.4721 13.1387C10.3464 13.2601 10.178 13.3273 10.0032 13.3258C9.82839 13.3243 9.66119 13.2542 9.53758 13.1306C9.41398 13.007 9.34386 12.8398 9.34234 12.665C9.34083 12.4902 9.40802 12.3218 9.52946 12.196L13.0581 8.66737H1.33413C1.15732 8.66737 0.987745 8.59713 0.862721 8.47211C0.737697 8.34709 0.667459 8.17752 0.667459 8.00071C0.667459 7.82389 0.737697 7.65433 0.862721 7.5293C0.987745 7.40428 1.15732 7.33404 1.33413 7.33404Z" fill="#008189"/>
</svg>
