<svg width="20" height="20" viewBox="0 0 20 20" fill="none" xmlns="http://www.w3.org/2000/svg">
<path d="M16.3939 10.4241L13.9139 12.9041C13.8011 13.0151 13.649 13.0771 13.4907 13.0764C13.3324 13.0758 13.1808 13.0127 13.0688 12.9007C12.9569 12.7888 12.8937 12.6372 12.893 12.4789C12.8924 12.3207 12.9543 12.1685 13.0653 12.0557L14.5111 10.6099H8.27969C8.12056 10.6099 7.96795 10.5467 7.85542 10.4341C7.7429 10.3216 7.67969 10.169 7.67969 10.0099C7.67969 9.85075 7.7429 9.69814 7.85542 9.58562C7.96795 9.4731 8.12056 9.40988 8.27969 9.40988H14.5311L13.0653 7.94408C12.9543 7.83124 12.8924 7.67911 12.893 7.52083C12.8937 7.36254 12.9569 7.21094 13.0688 7.09903C13.1808 6.98712 13.3324 6.92397 13.4907 6.92334C13.649 6.92272 13.8011 6.98466 13.9139 7.09568L16.3939 9.57568C16.5064 9.6882 16.5696 9.84079 16.5696 9.99988C16.5696 10.159 16.5064 10.3116 16.3939 10.4241Z" fill="#008189"/>
<path d="M11.1097 17.6873H5.02969C4.60547 17.6869 4.19875 17.5182 3.89878 17.2182C3.59882 16.9182 3.43011 16.5115 3.42969 16.0873V3.9125C3.43011 3.48828 3.59882 3.08156 3.89878 2.7816C4.19875 2.48163 4.60547 2.31292 5.02969 2.3125H11.1097C11.2688 2.3125 11.4214 2.37571 11.534 2.48824C11.6465 2.60076 11.7097 2.75337 11.7097 2.9125C11.7097 3.07163 11.6465 3.22424 11.534 3.33676C11.4214 3.44929 11.2688 3.5125 11.1097 3.5125H5.02969C4.9236 3.5125 4.82186 3.55464 4.74684 3.62966C4.67183 3.70467 4.62969 3.80641 4.62969 3.9125V16.0873C4.62969 16.1934 4.67183 16.2951 4.74684 16.3701C4.82186 16.4452 4.9236 16.4873 5.02969 16.4873H11.1097C11.2688 16.4873 11.4214 16.5505 11.534 16.663C11.6465 16.7756 11.7097 16.9282 11.7097 17.0873C11.7097 17.2464 11.6465 17.399 11.534 17.5116C11.4214 17.6241 11.2688 17.6873 11.1097 17.6873Z" fill="#008189"/>
</svg>
