<svg width="32" height="33" viewBox="0 0 32 33" fill="none" xmlns="http://www.w3.org/2000/svg">
<rect x="32" y="32.5" width="32" height="32" rx="16" transform="rotate(-180 32 32.5)" fill="#00939C"/>
<path fill-rule="evenodd" clip-rule="evenodd" d="M20.9756 16.809C21.0575 16.727 21.1035 16.6158 21.1035 16.4998C21.1035 16.3839 21.0575 16.2727 20.9756 16.1907L17.4756 12.6907C17.4355 12.6477 17.3872 12.6132 17.3335 12.5893C17.2799 12.5654 17.2219 12.5525 17.1632 12.5515C17.1045 12.5504 17.0461 12.5613 16.9916 12.5833C16.9372 12.6053 16.8877 12.638 16.8461 12.6796C16.8046 12.7211 16.7718 12.7706 16.7498 12.8251C16.7278 12.8795 16.717 12.9379 16.7181 12.9966C16.7191 13.0554 16.7319 13.1133 16.7559 13.167C16.7798 13.2206 16.8142 13.2689 16.8572 13.309L19.6106 16.0623H11.3331C11.217 16.0623 11.1058 16.1084 11.0237 16.1905C10.9417 16.2725 10.8956 16.3838 10.8956 16.4998C10.8956 16.6159 10.9417 16.7271 11.0237 16.8092C11.1058 16.8912 11.217 16.9373 11.3331 16.9373H19.6106L16.8572 19.6907C16.8142 19.7307 16.7798 19.779 16.7559 19.8327C16.7319 19.8863 16.7191 19.9443 16.7181 20.003C16.717 20.0618 16.7278 20.1201 16.7498 20.1746C16.7718 20.2291 16.8046 20.2786 16.8461 20.3201C16.8877 20.3616 16.9372 20.3944 16.9916 20.4164C17.0461 20.4384 17.1045 20.4492 17.1632 20.4482C17.2219 20.4471 17.2799 20.4343 17.3335 20.4104C17.3872 20.3865 17.4355 20.352 17.4756 20.309L20.9756 16.809Z" fill="white"/>
</svg>
