<svg width="32" height="33" viewBox="0 0 32 33" fill="none" xmlns="http://www.w3.org/2000/svg">
<rect width="32" height="32" rx="16" transform="matrix(1 0 0 -1 0 32.5)" fill="#00939C"/>
<path fill-rule="evenodd" clip-rule="evenodd" d="M11.0244 16.809C10.9425 16.727 10.8965 16.6158 10.8965 16.4998C10.8965 16.3839 10.9425 16.2727 11.0244 16.1907L14.5244 12.6907C14.5645 12.6477 14.6128 12.6132 14.6665 12.5893C14.7201 12.5654 14.7781 12.5525 14.8368 12.5515C14.8955 12.5504 14.9539 12.5613 15.0084 12.5833C15.0628 12.6053 15.1123 12.638 15.1539 12.6796C15.1954 12.7211 15.2282 12.7706 15.2502 12.8251C15.2722 12.8795 15.283 12.9379 15.2819 12.9966C15.2809 13.0554 15.2681 13.1133 15.2441 13.167C15.2202 13.2206 15.1858 13.2689 15.1428 13.309L12.3894 16.0623H20.6669C20.783 16.0623 20.8942 16.1084 20.9763 16.1905C21.0583 16.2725 21.1044 16.3838 21.1044 16.4998C21.1044 16.6159 21.0583 16.7271 20.9763 16.8092C20.8942 16.8912 20.783 16.9373 20.6669 16.9373H12.3894L15.1428 19.6907C15.1858 19.7307 15.2202 19.779 15.2441 19.8327C15.2681 19.8863 15.2809 19.9443 15.2819 20.003C15.283 20.0618 15.2722 20.1201 15.2502 20.1746C15.2282 20.2291 15.1954 20.2786 15.1539 20.3201C15.1123 20.3616 15.0628 20.3944 15.0084 20.4164C14.9539 20.4384 14.8955 20.4492 14.8368 20.4482C14.7781 20.4471 14.7201 20.4343 14.6665 20.4104C14.6128 20.3865 14.5645 20.352 14.5244 20.309L11.0244 16.809Z" fill="white"/>
</svg>
