<svg width="76" height="22" viewBox="0 0 76 22" fill="none" xmlns="http://www.w3.org/2000/svg">
<path d="M10.893 7.55909L9.42318 14.4306H7.64537L9.11532 7.55909H10.893ZM18.372 11.9961L19.3077 9.41572L19.8462 11.9961H18.372ZM20.3562 14.4306H22L20.5639 7.55909H19.0476C18.7059 7.55909 18.4178 7.75723 18.2903 8.06277L15.6229 14.4306H17.4899L17.8605 13.4044H20.1409L20.3562 14.4306ZM15.7155 12.1873C15.7232 10.3738 13.2085 10.2733 13.2253 9.46302C13.2307 9.21681 13.4656 8.95454 13.9791 8.88746C14.2336 8.8547 14.9361 8.82812 15.7323 9.19502L16.0437 7.73729C15.6161 7.58258 15.0657 7.43359 14.3809 7.43359C12.6235 7.43359 11.3872 8.36709 11.3773 9.70489C11.3661 10.6942 12.2604 11.2458 12.9329 11.5753C13.6262 11.912 13.8585 12.128 13.8551 12.4289C13.8503 12.8899 13.3023 13.0941 12.792 13.1018C11.8977 13.1157 11.3793 12.8601 10.9662 12.6675L10.6435 14.1739C11.0596 14.3643 11.8262 14.53 12.6199 14.5385C14.4883 14.5385 15.7099 13.616 15.7155 12.1873ZM8.35276 7.55909L5.47237 14.4306H3.59349L2.17594 8.94666C2.09001 8.60942 2.01505 8.48547 1.7537 8.34298C1.32621 8.11084 0.620526 7.89369 0 7.75862L0.0420386 7.55909H3.06693C3.45223 7.55909 3.79889 7.81549 3.88714 8.25936L4.63594 12.236L6.48515 7.55909H8.35276Z" fill="#1434CB"/>
<path d="M34.0032 19.4648V18.3319C34.0099 18.2366 33.9961 18.141 33.9629 18.0514C33.9297 17.9618 33.8778 17.8804 33.8106 17.8125C33.7434 17.7446 33.6625 17.6918 33.5733 17.6576C33.4841 17.6234 33.3886 17.6087 33.2933 17.6143C33.1685 17.6062 33.0438 17.6317 32.9322 17.6881C32.8206 17.7446 32.7262 17.83 32.6588 17.9353C32.5974 17.8331 32.5096 17.7493 32.4046 17.6929C32.2996 17.6364 32.1813 17.6092 32.0621 17.6143C31.9583 17.6091 31.8549 17.6311 31.7621 17.6781C31.6694 17.7252 31.5905 17.7956 31.5334 17.8825V17.6597H31.1406V19.4648H31.5372V18.464C31.5286 18.4023 31.5338 18.3394 31.5524 18.2799C31.571 18.2204 31.6026 18.1657 31.6448 18.1199C31.6871 18.074 31.739 18.0381 31.7967 18.0147C31.8545 17.9913 31.9168 17.9809 31.979 17.9844C32.2396 17.9844 32.3718 18.1544 32.3718 18.4603V19.4648H32.7683V18.464C32.7604 18.4024 32.7661 18.3398 32.7849 18.2805C32.8038 18.2213 32.8354 18.167 32.8775 18.1212C32.9196 18.0755 32.9712 18.0396 33.0287 18.016C33.0862 17.9923 33.1481 17.9816 33.2102 17.9844C33.4783 17.9844 33.6067 18.1544 33.6067 18.4603V19.4648H34.0032ZM39.872 17.6597H39.23V17.1121H38.8335V17.6597H38.4671V18.0184H38.8335V18.8417C38.8335 19.2609 38.9959 19.5102 39.4604 19.5102C39.6339 19.5107 39.8041 19.4623 39.9513 19.3704L39.838 19.0343C39.7327 19.0971 39.6132 19.1322 39.4906 19.1363C39.2942 19.1363 39.23 19.0154 39.23 18.8342V18.0184H39.872V17.6597ZM43.2218 17.6143C43.1261 17.6115 43.0313 17.6346 42.9476 17.6811C42.8638 17.7276 42.7942 17.7959 42.746 17.8787V17.6597H42.357V19.4648H42.7497V18.4527C42.7497 18.1544 42.8781 17.9882 43.135 17.9882C43.219 17.9871 43.3024 18.0025 43.3804 18.0335L43.5013 17.6634C43.4116 17.6313 43.3171 17.6147 43.2218 17.6143ZM38.1575 17.8031C37.9352 17.671 37.6795 17.6054 37.421 17.6143C36.9641 17.6143 36.6695 17.8334 36.6695 18.1921C36.6695 18.4867 36.8885 18.668 37.2926 18.7246L37.4777 18.7511C37.6929 18.7812 37.7949 18.8379 37.7949 18.9399C37.7949 19.0796 37.6514 19.1589 37.3833 19.1589C37.1676 19.1651 36.9561 19.0986 36.7828 18.9701L36.5978 19.276C36.8265 19.4358 37.1006 19.5179 37.3795 19.5102C37.9007 19.5102 38.2028 19.2647 38.2028 18.921C38.2028 18.6038 37.9649 18.4376 37.5721 18.3809L37.3871 18.3545C37.2171 18.3319 37.0812 18.2979 37.0812 18.1771C37.0812 18.0449 37.2095 17.9655 37.4248 17.9655C37.6225 17.9685 37.8162 18.0218 37.9875 18.1204L38.1575 17.8031ZM48.6789 17.6143C48.5832 17.6115 48.4884 17.6346 48.4047 17.6811C48.3209 17.7276 48.2513 17.7959 48.2031 17.8787V17.6597H47.8141V19.4648H48.2068V18.4527C48.2068 18.1544 48.3353 17.9882 48.5921 17.9882C48.6761 17.987 48.7595 18.0024 48.8376 18.0335L48.9584 17.6634C48.8687 17.6313 48.7742 17.6147 48.6789 17.6143ZM43.6183 18.5622C43.6131 18.6894 43.6346 18.8162 43.6813 18.9346C43.7281 19.053 43.7991 19.1603 43.8898 19.2496C43.9805 19.3389 44.0889 19.4082 44.208 19.4531C44.3271 19.4979 44.4543 19.5174 44.5814 19.5102C44.8172 19.522 45.0489 19.4452 45.2309 19.2949L45.0421 18.9776C44.9063 19.0812 44.7408 19.1381 44.57 19.14C44.4229 19.1311 44.2846 19.0663 44.1836 18.959C44.0825 18.8516 44.0262 18.7097 44.0262 18.5622C44.0262 18.4148 44.0825 18.2729 44.1836 18.1655C44.2846 18.0581 44.4229 17.9934 44.57 17.9844C44.7408 17.9864 44.9063 18.0433 45.0421 18.1468L45.2309 17.8296C45.0489 17.6793 44.8172 17.6025 44.5814 17.6143C44.4543 17.6071 44.3271 17.6266 44.208 17.6714C44.0889 17.7163 43.9805 17.7856 43.8898 17.8749C43.7991 17.9642 43.7281 18.0714 43.6814 18.1898C43.6346 18.3082 43.6131 18.435 43.6183 18.5622ZM47.2967 18.5622V17.6597H46.9039V17.8787C46.8369 17.7923 46.7502 17.7232 46.6509 17.6772C46.5517 17.6312 46.4429 17.6097 46.3337 17.6143C46.0903 17.6263 45.8609 17.7313 45.6928 17.9078C45.5248 18.0843 45.4311 18.3186 45.4311 18.5622C45.4311 18.8059 45.5248 19.0402 45.6928 19.2167C45.8609 19.3932 46.0903 19.4982 46.3337 19.5102C46.4429 19.5148 46.5517 19.4933 46.6509 19.4473C46.7502 19.4013 46.8369 19.3322 46.9039 19.2458V19.4648H47.2967V18.5622ZM45.8352 18.5622C45.8413 18.4557 45.8784 18.3533 45.942 18.2676C46.0056 18.1819 46.0929 18.1168 46.1931 18.0801C46.2933 18.0434 46.402 18.0369 46.5059 18.0613C46.6098 18.0857 46.7042 18.14 46.7776 18.2174C46.851 18.2949 46.9002 18.3921 46.919 18.4971C46.9377 18.6022 46.9254 18.7104 46.8834 18.8085C46.8414 18.9066 46.7717 18.9902 46.6827 19.0492C46.5938 19.1081 46.4895 19.1397 46.3828 19.14C46.308 19.141 46.2338 19.1266 46.1649 19.0975C46.096 19.0684 46.0339 19.0254 45.9824 18.9711C45.931 18.9168 45.8913 18.8524 45.866 18.7821C45.8406 18.7117 45.8302 18.6368 45.8352 18.5622ZM41.0956 17.6143C40.8507 17.6272 40.6203 17.7345 40.4527 17.9136C40.2851 18.0927 40.1935 18.3297 40.1969 18.575C40.2003 18.8202 40.2986 19.0546 40.4711 19.229C40.6436 19.4033 40.8769 19.5041 41.1221 19.5102C41.3915 19.5196 41.655 19.4295 41.8623 19.2571L41.6697 18.9663C41.5205 19.0859 41.3358 19.1523 41.1447 19.1551C41.0149 19.1661 40.886 19.126 40.7852 19.0436C40.6844 18.9611 40.6197 18.8426 40.6047 18.7133H41.9454C41.9491 18.6642 41.9529 18.6151 41.9529 18.5622C41.9491 17.9995 41.6017 17.6143 41.0956 17.6143ZM41.0881 17.9655C41.2067 17.9632 41.3214 18.008 41.4071 18.0902C41.4927 18.1723 41.5423 18.285 41.545 18.4036H40.6084C40.6153 18.2824 40.6694 18.1687 40.759 18.0869C40.8486 18.005 40.9667 17.9615 41.0881 17.9655ZM50.9411 18.5622V16.9346H50.5483V17.8787C50.4813 17.7923 50.3945 17.7232 50.2953 17.6772C50.1961 17.6312 50.0873 17.6097 49.9781 17.6143C49.7347 17.6263 49.5052 17.7313 49.3372 17.9078C49.1692 18.0843 49.0754 18.3186 49.0754 18.5622C49.0754 18.8059 49.1692 19.0402 49.3372 19.2167C49.5052 19.3932 49.7347 19.4982 49.9781 19.5102C50.0873 19.5148 50.1961 19.4933 50.2953 19.4473C50.3945 19.4013 50.4813 19.3322 50.5483 19.2458V19.4648H50.9411V18.5622ZM51.5958 19.2032C51.6202 19.2031 51.6444 19.2079 51.6668 19.2173C51.6885 19.2263 51.7082 19.2394 51.7249 19.2558C51.7415 19.2721 51.7548 19.2916 51.764 19.313C51.7735 19.3349 51.7783 19.3586 51.7783 19.3826C51.7783 19.4065 51.7735 19.4302 51.764 19.4522C51.7547 19.4735 51.7414 19.4928 51.7249 19.5091C51.7081 19.5255 51.6884 19.5386 51.6668 19.5478C51.6444 19.5574 51.6202 19.5623 51.5958 19.5621C51.5599 19.5624 51.5246 19.5522 51.4945 19.5327C51.4643 19.5131 51.4406 19.4851 51.4263 19.4522C51.4169 19.4302 51.412 19.4065 51.412 19.3826C51.412 19.3586 51.4169 19.3349 51.4263 19.313C51.4355 19.2916 51.4487 19.2722 51.4652 19.2558C51.4819 19.2393 51.5017 19.2262 51.5235 19.2173C51.5464 19.2078 51.571 19.203 51.5958 19.2032ZM51.5958 19.5225C51.6144 19.5226 51.6328 19.5189 51.6499 19.5115C51.6663 19.5044 51.6812 19.4942 51.6939 19.4816C51.7199 19.4553 51.7346 19.4197 51.7346 19.3826C51.7346 19.3456 51.7199 19.31 51.6939 19.2837C51.6813 19.2711 51.6663 19.261 51.6499 19.254C51.6328 19.2468 51.6144 19.2431 51.5958 19.2432C51.5769 19.2431 51.5581 19.2468 51.5406 19.254C51.5239 19.2609 51.5088 19.271 51.496 19.2837C51.4699 19.31 51.4553 19.3456 51.4553 19.3826C51.4553 19.4197 51.4699 19.4553 51.496 19.4816C51.5088 19.4943 51.524 19.5045 51.5406 19.5115C51.5581 19.5189 51.5768 19.5226 51.5958 19.5225ZM51.6064 19.2986C51.624 19.2975 51.6415 19.3026 51.6559 19.313C51.6616 19.3177 51.6661 19.3236 51.6691 19.3304C51.6721 19.3371 51.6735 19.3445 51.6732 19.3519C51.6734 19.3582 51.6723 19.3645 51.6699 19.3704C51.6675 19.3762 51.6639 19.3815 51.6594 19.3859C51.6484 19.3956 51.6346 19.4014 51.62 19.4024L51.6745 19.4653H51.6319L51.5813 19.4029H51.565V19.4653H51.5294V19.2986H51.6064ZM51.565 19.3299V19.3743H51.6059C51.6138 19.3747 51.6216 19.3728 51.6284 19.3688C51.6311 19.3669 51.6333 19.3644 51.6348 19.3614C51.6363 19.3585 51.6369 19.3552 51.6367 19.3519C51.6369 19.3486 51.6362 19.3454 51.6348 19.3425C51.6333 19.3396 51.6311 19.3371 51.6284 19.3353C51.6216 19.3314 51.6138 19.3295 51.6059 19.3299H51.565ZM49.4796 18.5622C49.4857 18.4557 49.5228 18.3533 49.5864 18.2676C49.65 18.182 49.7373 18.1168 49.8375 18.0801C49.9377 18.0435 50.0464 18.037 50.1503 18.0614C50.2542 18.0858 50.3486 18.14 50.422 18.2175C50.4954 18.2949 50.5445 18.3922 50.5633 18.4972C50.5821 18.6022 50.5697 18.7104 50.5278 18.8085C50.4858 18.9066 50.416 18.9903 50.327 19.0492C50.2381 19.1081 50.1338 19.1397 50.0271 19.14C49.9524 19.141 49.8782 19.1266 49.8093 19.0975C49.7404 19.0684 49.6782 19.0253 49.6268 18.9711C49.5753 18.9168 49.5357 18.8524 49.5104 18.782C49.485 18.7117 49.4745 18.6368 49.4796 18.5622ZM36.2163 18.5622V17.6597H35.8235V17.8787C35.7565 17.7923 35.6698 17.7232 35.5705 17.6772C35.4713 17.6312 35.3625 17.6097 35.2533 17.6143C35.0099 17.6263 34.7805 17.7313 34.6124 17.9078C34.4444 18.0843 34.3507 18.3186 34.3507 18.5622C34.3507 18.8059 34.4444 19.0402 34.6124 19.2167C34.7805 19.3932 35.0099 19.4982 35.2533 19.5102C35.3625 19.5148 35.4713 19.4933 35.5705 19.4473C35.6698 19.4013 35.7565 19.3322 35.8235 19.2458V19.4648H36.2163V18.5622ZM34.7548 18.5622C34.7609 18.4557 34.7981 18.3533 34.8617 18.2676C34.9253 18.182 35.0125 18.1168 35.1127 18.0801C35.2129 18.0435 35.3217 18.037 35.4255 18.0614C35.5294 18.0858 35.6239 18.14 35.6972 18.2175C35.7706 18.2949 35.8197 18.3922 35.8385 18.4972C35.8573 18.6022 35.845 18.7104 35.803 18.8085C35.761 18.9066 35.6912 18.9903 35.6023 19.0492C35.5133 19.1081 35.4091 19.1397 35.3024 19.14C35.2276 19.141 35.1534 19.1266 35.0845 19.0975C35.0156 19.0684 34.9535 19.0253 34.902 18.9711C34.8506 18.9168 34.811 18.8524 34.7856 18.782C34.7603 18.7117 34.7498 18.6368 34.7548 18.5622Z" fill="#231F20"/>
<path d="M43.9743 3.90234H38.0254V14.5926H43.9743V3.90234Z" fill="#FF5F00"/>
<path d="M38.4034 9.24794C38.4025 8.21839 38.6358 7.20212 39.0857 6.27606C39.5356 5.35 40.1902 4.53843 41.0001 3.90279C39.9972 3.11444 38.7927 2.62419 37.5243 2.48805C36.2559 2.35191 34.9747 2.57538 33.8273 3.13293C32.6799 3.69047 31.7125 4.55959 31.0357 5.64094C30.3589 6.72229 30 7.97225 30 9.24794C30 10.5236 30.3589 11.7736 31.0357 12.8549C31.7125 13.9363 32.6799 14.8054 33.8273 15.363C34.9747 15.9205 36.2559 16.144 37.5243 16.0078C38.7927 15.8717 39.9972 15.3814 41.0001 14.5931C40.1902 13.9575 39.5356 13.1459 39.0857 12.2198C38.6358 11.2938 38.4025 10.2775 38.4034 9.24794Z" fill="#EB001B"/>
<path d="M51.9998 9.24794C51.9998 10.5236 51.641 11.7736 50.9642 12.8549C50.2874 13.9363 49.3201 14.8054 48.1727 15.3629C47.0253 15.9205 45.7442 16.144 44.4758 16.0078C43.2074 15.8717 42.0029 15.3814 41 14.5931C41.8092 13.9568 42.4634 13.1451 42.9132 12.2192C43.363 11.2933 43.5967 10.2773 43.5967 9.24794C43.5967 8.21855 43.363 7.2026 42.9132 6.27668C42.4634 5.35077 41.8092 4.53907 41 3.90279C42.0029 3.11444 43.2074 2.62418 44.4758 2.48805C45.7442 2.35191 47.0253 2.57539 48.1727 3.13294C49.3201 3.69048 50.2874 4.55961 50.9642 5.64096C51.641 6.72231 51.9998 7.97226 51.9998 9.24794Z" fill="#F79E1B"/>
<path d="M51.3513 13.4612V13.2423H51.4396V13.1977H51.2148V13.2423H51.3031V13.4612H51.3513ZM51.7877 13.4612V13.1973H51.7188L51.6396 13.3788L51.5603 13.1973H51.4914V13.4612H51.54V13.2621L51.6143 13.4337H51.6648L51.7391 13.2617V13.4612H51.7877Z" fill="#F79E1B"/>
<path d="M70.3502 3.56401C69.7825 4.23576 68.8743 4.76559 67.966 4.6899C67.8524 3.78162 68.2971 2.81657 68.8175 2.22051C69.3852 1.52983 70.3786 1.03785 71.1828 1C71.2774 1.94613 70.9084 2.87333 70.3502 3.56401ZM71.1733 4.86967C69.8582 4.79397 68.7323 5.61711 68.1079 5.61711C67.474 5.61711 66.5184 4.90751 65.4777 4.92643C64.1247 4.94536 62.8663 5.71172 62.1757 6.93223C60.7565 9.37324 61.8067 12.9874 63.1786 14.9743C63.8503 15.9583 64.6545 17.0369 65.7142 16.999C66.7171 16.9612 67.1145 16.3462 68.3255 16.3462C69.546 16.3462 69.8961 16.999 70.9557 16.9801C72.0532 16.9612 72.7439 15.9961 73.4157 15.0122C74.182 13.8957 74.4943 12.8077 74.5132 12.7509C74.4943 12.732 72.3939 11.9278 72.3749 9.50569C72.356 7.48098 74.0307 6.51593 74.1063 6.45916C73.1602 5.05889 71.6843 4.90751 71.1733 4.86967Z" fill="black"/>
</svg>
