<svg width="44" height="44" viewBox="0 0 44 44" fill="none" xmlns="http://www.w3.org/2000/svg">
<path d="M44 22C44 9.84974 34.1503 0 22 0C9.84974 0 0 9.84974 0 22C0 34.1503 9.84974 44 22 44C34.1503 44 44 34.1503 44 22Z" fill="#F5F5F6"/>
<path d="M17.3349 27.8293L17.3324 27.8292H17.2997C16.8828 27.8292 16.5334 28.1322 16.5334 28.5167V29.2039V29.2539H16.5834H27.4166H27.4666V29.2039V28.5167C27.4666 28.1322 27.1172 27.8292 26.7002 27.8292H26.6847L26.6823 27.8293M17.3349 27.8293L17.3364 27.8293C17.337 27.8294 17.3361 27.8293 17.3349 27.8293ZM17.3349 27.8293L17.3371 27.8292H26.68L26.6823 27.8293M26.6823 27.8293C26.681 27.8293 26.6801 27.8294 26.6807 27.8293L26.6823 27.8293ZM28.9081 29.2039V29.2539H28.9581H30.2293C30.6328 29.2539 30.95 29.5449 30.95 29.8923V32.594C30.95 32.9415 30.6328 33.2325 30.2293 33.2325H13.7707C13.3672 33.2325 13.05 32.9415 13.05 32.594V29.8923C13.05 29.5449 13.3672 29.2539 13.7707 29.2539H15.042H15.092V29.2039V28.5167C15.092 27.6296 15.7582 26.8735 16.6767 26.6326L16.7074 26.6245L16.7132 26.5932L18.0832 19.1054L18.094 19.0464H18.034H17.4196C17.0162 19.0464 16.6989 18.7554 16.6989 18.4079V16.0274V16.0024L16.6789 15.9874L13.7458 13.791C13.5827 13.6688 13.4902 13.49 13.4902 13.3034V10.5075C13.4902 10.1588 13.8089 9.8542 14.2109 9.8542H17.3707C17.7727 9.8542 18.0914 10.1588 18.0914 10.5075V11.1767V11.2267H18.1414H19.5906H19.6406V11.1767V10.4724C19.6406 10.1268 19.9558 9.8542 20.3613 9.8542H23.6C24.0055 9.8542 24.3207 10.1268 24.3207 10.4724V11.2118V11.2618H24.3707H25.8079H25.8579V11.2118V10.5075C25.8579 10.1588 26.1766 9.8542 26.5786 9.8542H29.7659C30.168 9.8542 30.4867 10.1588 30.4867 10.5075V13.1174C30.4867 13.2952 30.4028 13.4662 30.2531 13.5879L27.3196 15.9718L27.3012 15.9868V16.0106V18.4079C27.3012 18.7554 26.984 19.0464 26.5805 19.0464H25.9832H25.9232L25.934 19.1054L27.3049 26.5977L27.3106 26.6288L27.3411 26.637C28.2504 26.8829 28.9081 27.6353 28.9081 28.5167V29.2039ZM17.67 15.0578L17.6833 15.0678H17.7H26.2823H26.3L26.3138 15.0566L29.0267 12.8519L29.0452 12.8369V12.8131V11.196V11.146H28.9952H27.3493H27.2993V11.196V11.9002C27.2993 12.2476 26.9821 12.5386 26.5786 12.5386H23.6C23.1965 12.5386 22.8793 12.2476 22.8793 11.9002V11.1609V11.1109H22.8293H21.132H21.082V11.1609V11.8651C21.082 12.2126 20.7647 12.5036 20.3613 12.5036H17.3707C16.9672 12.5036 16.65 12.2126 16.65 11.8651V11.196V11.146H16.6H14.9816H14.9316V11.196V12.9821V13.0072L14.9517 13.0222L17.67 15.0578ZM18.1403 17.7195V17.7695H18.1903H25.8097H25.8597V17.7195V16.3946V16.3446H25.8097H18.1903H18.1403V16.3946V17.7195ZM25.7764 26.5524H25.8364L25.8256 26.4934L24.4705 19.0874L24.463 19.0464H24.4213H19.5959H19.5542L19.5467 19.0874L18.1917 26.4934L18.1809 26.5524H18.2408H25.7764ZM14.4914 31.9056V31.9556H14.5414H29.4086H29.4586H29.4586L29.4586 31.9056H29.5086V30.5808V30.5308H29.4586H14.5414H14.4914V30.5808V31.9056Z" fill="#008189" stroke="#F5F5F6" stroke-width="0.1"/>
</svg>
