<svg width="45" height="44" viewBox="0 0 45 44" fill="none" xmlns="http://www.w3.org/2000/svg">
<g clip-path="url(#clip0_39_6205)">
<g clip-path="url(#clip1_39_6205)">
<g clip-path="url(#clip2_39_6205)">
<path d="M44.5 22C44.5 9.84974 34.6503 0 22.5 0C10.3497 0 0.5 9.84974 0.5 22C0.5 34.1503 10.3497 44 22.5 44C34.6503 44 44.5 34.1503 44.5 22Z" fill="#F5F5F6"/>
<path d="M22 34C28.616 34 34 28.616 34 22C34 15.384 28.6161 10 22 10C15.3839 10 10 15.384 10 22C10 28.616 15.384 34 22 34ZM22 11.6C27.736 11.6 32.4 16.264 32.4 22C32.4 27.736 27.736 32.4 22 32.4C16.264 32.4 11.6 27.736 11.6 22C11.6 16.264 16.264 11.6 22 11.6Z" fill="#008189"/>
<path d="M25.4992 25.8248C25.6472 25.9448 25.8232 26.0008 25.9992 26.0008C26.2352 26.0008 26.4672 25.8968 26.6232 25.7008C26.8992 25.3568 26.8431 24.8528 26.4992 24.5768L22.7992 21.6168V15.6008C22.7992 15.1608 22.4392 14.8008 21.9992 14.8008C21.5592 14.8008 21.1992 15.1608 21.1992 15.6008V22.0008C21.1992 22.2448 21.3112 22.4728 21.4992 22.6248L25.4992 25.8248Z" fill="#008189"/>
</g>
</g>
</g>
<defs>
<clipPath id="clip0_39_6205">
<rect x="0.5" width="44" height="44" rx="22" fill="white"/>
</clipPath>
<clipPath id="clip1_39_6205">
<rect width="44" height="44" fill="white" transform="translate(0.5)"/>
</clipPath>
<clipPath id="clip2_39_6205">
<rect width="44" height="44" fill="white" transform="translate(0.5)"/>
</clipPath>
</defs>
</svg>
