<svg width="45" height="44" viewBox="0 0 45 44" fill="none" xmlns="http://www.w3.org/2000/svg">
<g clip-path="url(#clip0_39_6217)">
<g clip-path="url(#clip1_39_6217)">
<g clip-path="url(#clip2_39_6217)">
<path d="M44.5 22C44.5 9.84974 34.6503 0 22.5 0C10.3497 0 0.5 9.84974 0.5 22C0.5 34.1503 10.3497 44 22.5 44C34.6503 44 44.5 34.1503 44.5 22Z" fill="#F5F5F6"/>
<g clip-path="url(#clip3_39_6217)">
<path d="M30.2758 13.4169C28.6501 10.6925 25.6671 9 22.4912 9C20.8647 9 19.2628 9.44279 17.8588 10.2804C13.5709 12.8389 12.1639 18.409 14.7224 22.6971L21.84 34.6259C21.9785 34.858 22.2288 35.0001 22.4991 35.0001C22.7694 35.0001 23.0198 34.858 23.1582 34.6259L30.2765 22.6955C31.9795 19.827 31.979 16.2717 30.2758 13.4169ZM28.9576 21.9105L22.4992 32.7347L16.0406 21.9105C13.9158 18.3493 15.0843 13.7234 18.6454 11.5986C19.8116 10.9028 21.1414 10.5349 22.4913 10.5349C25.1296 10.5349 27.6075 11.9406 28.9577 14.2034C30.3722 16.5743 30.3719 19.528 28.9576 21.9105Z" fill="#008189"/>
<path d="M22.4995 13.5117C20.0314 13.5117 18.0234 15.5198 18.0234 17.988C18.0234 20.4561 20.0314 22.4641 22.4995 22.4641C24.9677 22.4641 26.9757 20.4561 26.9757 17.988C26.9757 15.5198 24.9677 13.5117 22.4995 13.5117ZM22.4995 20.9291C20.8778 20.9291 19.5585 19.6097 19.5585 17.988C19.5585 16.3662 20.8778 15.0468 22.4995 15.0468C24.1213 15.0468 25.4408 16.3662 25.4408 17.988C25.4408 19.6097 24.1213 20.9291 22.4995 20.9291Z" fill="#008189"/>
</g>
</g>
</g>
</g>
<defs>
<clipPath id="clip0_39_6217">
<rect x="0.5" width="44" height="44" rx="22" fill="white"/>
</clipPath>
<clipPath id="clip1_39_6217">
<rect width="44" height="44" fill="white" transform="translate(0.5)"/>
</clipPath>
<clipPath id="clip2_39_6217">
<rect width="44" height="44" fill="white" transform="translate(0.5)"/>
</clipPath>
<clipPath id="clip3_39_6217">
<rect width="26" height="26" fill="white" transform="translate(9.5 9)"/>
</clipPath>
</defs>
</svg>
