<svg width="44" height="44" viewBox="0 0 44 44" fill="none" xmlns="http://www.w3.org/2000/svg">
<path d="M44 22C44 9.84974 34.1503 0 22 0C9.84974 0 0 9.84974 0 22C0 34.1503 9.84974 44 22 44C34.1503 44 44 34.1503 44 22Z" fill="#F5F5F6"/>
<g clip-path="url(#clip0_34_1648)">
<path d="M25.3636 14.748V12.8017C25.3636 9.06543 10 9.06543 10 12.8017V24.1852C10 25.654 12.3911 26.5696 15.2677 26.8952C14.2155 27.3489 13.5455 27.9618 13.5455 28.7386V32.1537C13.5455 34.0219 17.41 34.9995 21.2273 34.9995C25.0446 34.9995 28.9091 34.0218 28.9091 32.1537V30.4367C32.5241 30.3412 36.0001 29.372 36.0001 27.6003V17.3552C36 14.9964 29.8788 14.1285 25.3636 14.748ZM17.6818 11.1359C21.8875 11.1359 24.1818 12.2617 24.1818 12.8404C24.1818 13.4192 21.8874 14.545 17.6818 14.545C13.4763 14.545 11.1819 13.4192 11.1819 12.8404C11.1818 12.2617 13.4762 11.1359 17.6818 11.1359ZM11.1818 14.4215C12.6157 15.2513 15.1555 15.6814 17.6818 15.6814C20.2081 15.6814 22.748 15.2513 24.1818 14.4215V14.9862C22.1283 15.4241 20.6364 16.2238 20.6364 17.3859V17.7221C19.7103 17.8649 18.7106 17.9541 17.6818 17.9541C13.4762 17.9541 11.1819 16.8283 11.1819 16.2495L11.1818 14.4215ZM21.8182 25.7852C21.9306 25.8502 22.0476 25.9134 22.1732 25.9735C22.0549 25.9688 21.9369 25.9641 21.8182 25.9612V25.7852ZM11.1818 17.8306C12.6157 18.6604 15.1555 19.0905 17.6818 19.0905C18.7047 19.0905 19.6989 19.0021 20.6363 18.8675V21.6994C19.7102 21.8422 18.7106 21.9314 17.6818 21.9314C13.4762 21.9314 11.1818 20.8056 11.1818 20.2268V17.8306ZM11.1818 24.2041V21.8079C12.6157 22.6377 15.1555 23.0678 17.6818 23.0678C18.7047 23.0678 19.6989 22.9794 20.6363 22.8448V25.6767C19.7102 25.8195 18.7106 25.9086 17.6818 25.9086C13.4762 25.9086 11.1818 24.7828 11.1818 24.2041ZM27.7273 32.1586C27.7273 32.7374 25.4329 33.8632 21.2273 33.8632C17.0217 33.8632 14.7273 32.7374 14.7273 32.1586V30.3306C16.1611 31.1604 18.7009 31.5904 21.2272 31.5904C23.6455 31.5904 26.0794 31.1974 27.541 30.4362C27.6024 30.4384 27.6656 30.4387 27.7272 30.4405V32.1586H27.7273ZM21.2273 30.4541C17.0217 30.4541 14.7273 29.3283 14.7273 28.7495C14.7273 28.1708 17.0217 27.045 21.2273 27.045C25.4329 27.045 27.7273 28.1708 27.7273 28.7495C27.7273 29.3283 25.4329 30.4541 21.2273 30.4541ZM34.8182 27.6132C34.8182 28.1631 32.7244 29.1956 28.9091 29.298V28.7495C28.9091 28.0396 28.3504 27.4659 27.4492 27.0262C27.7381 27.0374 28.028 27.045 28.3182 27.045C30.8445 27.045 33.3843 26.615 34.8181 25.7852V27.6132H34.8182ZM34.8182 24.2041C34.8182 24.7828 32.5238 25.9086 28.3182 25.9086C24.1126 25.9086 21.8182 24.7828 21.8182 24.2041V22.3761C23.252 23.2059 25.7919 23.6359 28.3182 23.6359C30.8445 23.6359 33.3844 23.2059 34.8182 22.3761V24.2041ZM34.8182 20.795C34.8182 21.3738 32.5238 22.4996 28.3182 22.4996C24.1126 22.4996 21.8182 21.3738 21.8182 20.795V18.967C23.252 19.7968 25.7919 20.2268 28.3182 20.2268C30.8445 20.2268 33.3844 19.7968 34.8182 18.967V20.795ZM28.3182 19.0905C24.1126 19.0905 21.8182 17.9647 21.8182 17.3859C21.8182 16.8072 24.1126 15.6814 28.3182 15.6814C32.5238 15.6814 34.8182 16.8072 34.8182 17.3859C34.8182 17.9647 32.5238 19.0905 28.3182 19.0905Z" fill="#008189"/>
</g>
<defs>
<clipPath id="clip0_34_1648">
<rect width="26" height="25" fill="white" transform="translate(10 10)"/>
</clipPath>
</defs>
</svg>
