<svg width="45" height="44" viewBox="0 0 45 44" fill="none" xmlns="http://www.w3.org/2000/svg">
<path d="M44.5 22C44.5 9.84974 34.6503 0 22.5 0C10.3497 0 0.5 9.84974 0.5 22C0.5 34.1503 10.3497 44 22.5 44C34.6503 44 44.5 34.1503 44.5 22Z" fill="#F5F5F6"/>
<path d="M17.8349 27.8298L17.8324 27.8297H17.7997C17.3828 27.8297 17.0334 28.1327 17.0334 28.5172V29.2044V29.2544H17.0834H27.9166H27.9666V29.2044V28.5172C27.9666 28.1327 27.6172 27.8297 27.2002 27.8297H27.1847L27.1823 27.8298M17.8349 27.8298L17.8364 27.8298C17.837 27.8298 17.8361 27.8298 17.8349 27.8298ZM17.8349 27.8298L17.8371 27.8297H27.18L27.1823 27.8298M27.1823 27.8298C27.181 27.8298 27.1801 27.8298 27.1807 27.8298L27.1823 27.8298ZM29.4081 29.2044V29.2544H29.4581H30.7293C31.1328 29.2544 31.45 29.5454 31.45 29.8928V32.5945C31.45 32.9419 31.1328 33.2329 30.7293 33.2329H14.2707C13.8672 33.2329 13.55 32.9419 13.55 32.5945V29.8928C13.55 29.5454 13.8672 29.2544 14.2707 29.2544H15.542H15.592V29.2044V28.5172C15.592 27.6301 16.2582 26.874 17.1767 26.6331L17.2074 26.625L17.2132 26.5937L18.5832 19.1059L18.594 19.0469H18.534H17.9196C17.5162 19.0469 17.1989 18.7559 17.1989 18.4084V16.0279V16.0029L17.1789 15.9879L14.2458 13.7914C14.0827 13.6693 13.9902 13.4905 13.9902 13.3039V10.508C13.9902 10.1593 14.3089 9.85469 14.7109 9.85469H17.8707C18.2727 9.85469 18.5914 10.1593 18.5914 10.508V11.1772V11.2272H18.6414H20.0906H20.1406V11.1772V10.4729C20.1406 10.1273 20.4558 9.85469 20.8613 9.85469H24.1C24.5055 9.85469 24.8207 10.1273 24.8207 10.4729V11.2123V11.2623H24.8707H26.3079H26.3579V11.2123V10.508C26.3579 10.1593 26.6766 9.85469 27.0786 9.85469H30.2659C30.668 9.85469 30.9867 10.1593 30.9867 10.508V13.1179C30.9867 13.2957 30.9028 13.4667 30.7531 13.5884L27.8196 15.9723L27.8012 15.9873V16.0111V18.4084C27.8012 18.7559 27.484 19.0469 27.0805 19.0469H26.4832H26.4232L26.434 19.1059L27.8049 26.5982L27.8106 26.6293L27.8411 26.6375C28.7504 26.8834 29.4081 27.6358 29.4081 28.5172V29.2044ZM18.17 15.0583L18.1833 15.0683H18.2H26.7823H26.8L26.8138 15.0571L29.5267 12.8524L29.5452 12.8374V12.8136V11.1965V11.1465H29.4952H27.8493H27.7993V11.1965V11.9007C27.7993 12.2481 27.4821 12.5391 27.0786 12.5391H24.1C23.6965 12.5391 23.3793 12.2481 23.3793 11.9007V11.1614V11.1114H23.3293H21.632H21.582V11.1614V11.8656C21.582 12.213 21.2647 12.5041 20.8613 12.5041H17.8707C17.4672 12.5041 17.15 12.213 17.15 11.8656V11.1965V11.1465H17.1H15.4816H15.4316V11.1965V12.9826V13.0076L15.4517 13.0226L18.17 15.0583ZM18.6403 17.72V17.77H18.6903H26.3097H26.3597V17.72V16.3951V16.3451H26.3097H18.6903H18.6403V16.3951V17.72ZM26.2764 26.5529H26.3364L26.3256 26.4939L24.9705 19.0879L24.963 19.0469H24.9213H20.0959H20.0542L20.0467 19.0879L18.6917 26.4939L18.6809 26.5529H18.7408H26.2764ZM14.9914 31.9061V31.9561H15.0414H29.9086H29.9586H29.9586L29.9586 31.9061H30.0086V30.5813V30.5313H29.9586H15.0414H14.9914V30.5813V31.9061Z" fill="#008189" stroke="#F5F5F6" stroke-width="0.1"/>
</svg>
