<svg width="45" height="44" viewBox="0 0 45 44" fill="none" xmlns="http://www.w3.org/2000/svg">
<path d="M44.5 22C44.5 9.84974 34.6503 0 22.5 0C10.3497 0 0.5 9.84974 0.5 22C0.5 34.1503 10.3497 44 22.5 44C34.6503 44 44.5 34.1503 44.5 22Z" fill="#F5F5F6"/>
<g clip-path="url(#clip0_39_6229)">
<path d="M25.8636 14.7485V12.8022C25.8636 9.06592 10.5 9.06592 10.5 12.8022V24.1857C10.5 25.6545 12.8911 26.5701 15.7677 26.8956C14.7155 27.3494 14.0455 27.9623 14.0455 28.7391V32.1542C14.0455 34.0223 17.91 35 21.7273 35C25.5446 35 29.4091 34.0223 29.4091 32.1542V30.4372C33.0241 30.3416 36.5001 29.3725 36.5001 27.6008V17.3557C36.5 14.9969 30.3788 14.129 25.8636 14.7485ZM18.1818 11.1364C22.3875 11.1364 24.6818 12.2622 24.6818 12.8409C24.6818 13.4197 22.3874 14.5455 18.1818 14.5455C13.9763 14.5455 11.6819 13.4197 11.6819 12.8409C11.6818 12.2622 13.9762 11.1364 18.1818 11.1364ZM11.6818 14.422C13.1157 15.2518 15.6555 15.6819 18.1818 15.6819C20.7081 15.6819 23.248 15.2518 24.6818 14.422V14.9867C22.6283 15.4246 21.1364 16.2243 21.1364 17.3864V17.7226C20.2103 17.8654 19.2106 17.9545 18.1818 17.9545C13.9762 17.9545 11.6819 16.8287 11.6819 16.25L11.6818 14.422ZM22.3182 25.7857C22.4306 25.8507 22.5476 25.9139 22.6732 25.974C22.5549 25.9693 22.4369 25.9646 22.3182 25.9617V25.7857ZM11.6818 17.8311C13.1157 18.6609 15.6555 19.0909 18.1818 19.0909C19.2047 19.0909 20.1989 19.0026 21.1363 18.868V21.6999C20.2102 21.8427 19.2106 21.9318 18.1818 21.9318C13.9762 21.9318 11.6818 20.806 11.6818 20.2273V17.8311ZM11.6818 24.2046V21.8084C13.1157 22.6382 15.6555 23.0682 18.1818 23.0682C19.2047 23.0682 20.1989 22.9799 21.1363 22.8453V25.6772C20.2102 25.82 19.2106 25.9091 18.1818 25.9091C13.9762 25.9091 11.6818 24.7833 11.6818 24.2046ZM28.2273 32.1591C28.2273 32.7379 25.9329 33.8637 21.7273 33.8637C17.5217 33.8637 15.2273 32.7379 15.2273 32.1591V30.3311C16.6611 31.1609 19.2009 31.5909 21.7272 31.5909C24.1455 31.5909 26.5794 31.1979 28.041 30.4367C28.1024 30.4389 28.1656 30.4392 28.2272 30.441V32.1591H28.2273ZM21.7273 30.4546C17.5217 30.4546 15.2273 29.3288 15.2273 28.75C15.2273 28.1713 17.5217 27.0455 21.7273 27.0455C25.9329 27.0455 28.2273 28.1713 28.2273 28.75C28.2273 29.3288 25.9329 30.4546 21.7273 30.4546ZM35.3182 27.6137C35.3182 28.1636 33.2244 29.1961 29.4091 29.2985V28.75C29.4091 28.0401 28.8504 27.4663 27.9492 27.0267C28.2381 27.0379 28.528 27.0455 28.8182 27.0455C31.3445 27.0455 33.8843 26.6155 35.3181 25.7857V27.6137H35.3182ZM35.3182 24.2046C35.3182 24.7833 33.0238 25.9091 28.8182 25.9091C24.6126 25.9091 22.3182 24.7833 22.3182 24.2046V22.3766C23.752 23.2064 26.2919 23.6364 28.8182 23.6364C31.3445 23.6364 33.8844 23.2064 35.3182 22.3766V24.2046ZM35.3182 20.7955C35.3182 21.3742 33.0238 22.5 28.8182 22.5C24.6126 22.5 22.3182 21.3742 22.3182 20.7955V18.9675C23.752 19.7973 26.2919 20.2273 28.8182 20.2273C31.3445 20.2273 33.8844 19.7973 35.3182 18.9675V20.7955ZM28.8182 19.0909C24.6126 19.0909 22.3182 17.9651 22.3182 17.3864C22.3182 16.8077 24.6126 15.6819 28.8182 15.6819C33.0238 15.6819 35.3182 16.8077 35.3182 17.3864C35.3182 17.9651 33.0238 19.0909 28.8182 19.0909Z" fill="#008189"/>
</g>
<defs>
<clipPath id="clip0_39_6229">
<rect width="26" height="25" fill="white" transform="translate(10.5 10)"/>
</clipPath>
</defs>
</svg>
