<svg width="44" height="44" viewBox="0 0 44 44" fill="none" xmlns="http://www.w3.org/2000/svg">
<g clip-path="url(#clip0_34_1607)">
<g clip-path="url(#clip1_34_1607)">
<g clip-path="url(#clip2_34_1607)">
<path d="M44 22C44 9.84974 34.1503 0 22 0C9.84974 0 0 9.84974 0 22C0 34.1503 9.84974 44 22 44C34.1503 44 44 34.1503 44 22Z" fill="#F5F5F6"/>
<g clip-path="url(#clip3_34_1607)">
<path d="M29.7768 13.4169C28.151 10.6925 25.1681 9 21.9922 9C20.3657 9 18.7638 9.44279 17.3598 10.2804C13.0719 12.8389 11.6649 18.409 14.2234 22.6971L21.341 34.6259C21.4795 34.858 21.7298 35.0001 22.0001 35.0001C22.2704 35.0001 22.5207 34.858 22.6591 34.6259L29.7775 22.6955C31.4805 19.827 31.48 16.2717 29.7768 13.4169ZM28.4586 21.9105L22.0002 32.7347L15.5416 21.9105C13.4167 18.3493 14.5853 13.7234 18.1464 11.5986C19.3126 10.9028 20.6424 10.5349 21.9922 10.5349C24.6306 10.5349 27.1084 11.9406 28.4587 14.2034C29.8732 16.5743 29.8728 19.528 28.4586 21.9105Z" fill="#008189"/>
<path d="M21.9985 13.5112C19.5304 13.5112 17.5225 15.5193 17.5225 17.9875C17.5225 20.4556 19.5304 22.4636 21.9985 22.4636C24.4667 22.4636 26.4747 20.4556 26.4747 17.9875C26.4747 15.5193 24.4667 13.5112 21.9985 13.5112ZM21.9985 20.9286C20.3768 20.9286 19.0575 19.6093 19.0575 17.9875C19.0575 16.3657 20.3768 15.0463 21.9985 15.0463C23.6204 15.0463 24.9398 16.3657 24.9398 17.9875C24.9398 19.6092 23.6204 20.9286 21.9985 20.9286Z" fill="#008189"/>
</g>
</g>
</g>
</g>
<defs>
<clipPath id="clip0_34_1607">
<rect width="44" height="44" rx="22" fill="white"/>
</clipPath>
<clipPath id="clip1_34_1607">
<rect width="44" height="44" fill="white"/>
</clipPath>
<clipPath id="clip2_34_1607">
<rect width="44" height="44" fill="white"/>
</clipPath>
<clipPath id="clip3_34_1607">
<rect width="26" height="26" fill="white" transform="translate(9 9)"/>
</clipPath>
</defs>
</svg>
