<svg width="44" height="44" viewBox="0 0 44 44" fill="none" xmlns="http://www.w3.org/2000/svg">
<path d="M44 22C44 9.84974 34.1503 0 22 0C9.84974 0 0 9.84974 0 22C0 34.1503 9.84974 44 22 44C34.1503 44 44 34.1503 44 22Z" fill="#F5F5F6"/>
<g clip-path="url(#clip0_34_1674)">
<path d="M29.9929 13.6875H27.3529V13.3125C27.3529 13.1136 27.2739 12.9228 27.1332 12.7822C26.9926 12.6415 26.8018 12.5625 26.6029 12.5625C26.404 12.5625 26.2132 12.6415 26.0726 12.7822C25.9319 12.9228 25.8529 13.1136 25.8529 13.3125V13.6875H17.9479V13.3125C17.9479 13.1136 17.8689 12.9228 17.7282 12.7822C17.5876 12.6415 17.3968 12.5625 17.1979 12.5625C16.999 12.5625 16.8082 12.6415 16.6676 12.7822C16.5269 12.9228 16.4479 13.1136 16.4479 13.3125V13.6875H13.8079C12.9711 13.6895 12.1691 14.0228 11.5774 14.6145C10.9857 15.2062 10.6524 16.0082 10.6504 16.845V30C10.6524 30.8368 10.9857 31.6388 11.5774 32.2305C12.1691 32.8222 12.9711 33.1555 13.8079 33.1575H29.9929C30.8297 33.1555 31.6317 32.8222 32.2234 32.2305C32.8151 31.6388 33.1484 30.8368 33.1504 30V16.845C33.1484 16.0082 32.8151 15.2062 32.2234 14.6145C31.6317 14.0228 30.8297 13.6895 29.9929 13.6875ZM13.8079 15.1875H16.4479V15.5625C16.4479 15.7614 16.5269 15.9522 16.6676 16.0928C16.8082 16.2335 16.999 16.3125 17.1979 16.3125C17.3968 16.3125 17.5876 16.2335 17.7282 16.0928C17.8689 15.9522 17.9479 15.7614 17.9479 15.5625V15.1875H25.8529V15.5625C25.8529 15.7614 25.9319 15.9522 26.0726 16.0928C26.2132 16.2335 26.404 16.3125 26.6029 16.3125C26.8018 16.3125 26.9926 16.2335 27.1332 16.0928C27.2739 15.9522 27.3529 15.7614 27.3529 15.5625V15.1875H29.9929C30.4325 15.1875 30.8541 15.3621 31.1649 15.673C31.4758 15.9838 31.6504 16.4054 31.6504 16.845V18.6225H12.1504V16.845C12.1504 16.4054 12.325 15.9838 12.6359 15.673C12.9467 15.3621 13.3683 15.1875 13.8079 15.1875ZM29.9929 31.6875H13.8079C13.5877 31.6875 13.3697 31.6437 13.1666 31.5585C12.9635 31.4734 12.7794 31.3486 12.6251 31.1915C12.4708 31.0344 12.3494 30.8481 12.2678 30.6435C12.1863 30.4389 12.1464 30.2202 12.1504 30V20.1225H31.6504V30C31.6544 30.2202 31.6144 30.4389 31.5329 30.6435C31.4514 30.8481 31.33 31.0344 31.1757 31.1915C31.0213 31.3486 30.8373 31.4734 30.6342 31.5585C30.4311 31.6437 30.2131 31.6875 29.9929 31.6875Z" fill="#008189"/>
</g>
<defs>
<clipPath id="clip0_34_1674">
<rect width="24" height="24" fill="white" transform="translate(9.90039 10.5)"/>
</clipPath>
</defs>
</svg>
