<svg width="45" height="44" viewBox="0 0 45 44" fill="none" xmlns="http://www.w3.org/2000/svg">
<g clip-path="url(#clip0_39_6248)">
<g clip-path="url(#clip1_39_6248)">
<g clip-path="url(#clip2_39_6248)">
<path d="M44.5 22C44.5 9.84974 34.6503 0 22.5 0C10.3497 0 0.5 9.84974 0.5 22C0.5 34.1503 10.3497 44 22.5 44C34.6503 44 44.5 34.1503 44.5 22Z" fill="#C0A062"/>
<path d="M19.1254 19.2624C19.1371 18.3946 19.4963 17.5654 20.1267 16.9517C20.757 16.338 21.6086 15.9882 22.4999 15.9768C23.3914 15.9882 24.243 16.338 24.8732 16.9517C25.5035 17.5654 25.8629 18.3946 25.8745 19.2624C25.8629 20.1302 25.5035 20.9594 24.8732 21.5732C24.243 22.1869 23.3914 22.5366 22.4999 22.548C21.6086 22.5366 20.757 22.1869 20.1267 21.5732C19.4963 20.9594 19.1371 20.1302 19.1254 19.2624ZM22.4999 29.1192L26.9993 30.2144V26.8412C25.6424 27.6369 24.0838 28.0466 22.4999 28.024C20.9162 28.0466 19.3575 27.6369 18.0006 26.8412V30.2144M22.4999 12.6912C21.6136 12.6755 20.7332 12.8364 19.9131 13.1641C19.0928 13.4919 18.3502 13.9794 17.7306 14.5969C17.0896 15.2007 16.583 15.9266 16.2424 16.7292C15.9019 17.5318 15.7345 18.3941 15.7509 19.2624C15.7392 20.1252 15.9087 20.9812 16.2492 21.7779C16.5896 22.5746 17.0938 23.295 17.7306 23.8951C18.3473 24.5185 19.0886 25.0121 19.909 25.3456C20.7292 25.679 21.6111 25.8452 22.4999 25.8337C23.3889 25.8452 24.2707 25.679 25.091 25.3456C25.9113 25.0121 26.6526 24.5185 27.2693 23.8951C27.9061 23.295 28.4103 22.5746 28.7507 21.7779C29.0912 20.9812 29.2607 20.1252 29.249 19.2624C29.2654 18.3941 29.0981 17.5318 28.7575 16.7292C28.4169 15.9266 27.9104 15.2007 27.2693 14.5969C26.6498 13.9794 25.9072 13.4919 25.0869 13.1641C24.2667 12.8364 23.3863 12.6755 22.4999 12.6912ZM31.4988 19.2624C31.4747 20.3137 31.2577 21.3523 30.8576 22.329C30.4972 23.3228 29.9518 24.2435 29.249 25.0451V33.5L22.4999 31.3095L15.7509 33.5V25.0451C14.295 23.4532 13.4939 21.3939 13.5012 19.2624C13.4814 18.1131 13.7037 16.972 14.1545 15.9096C14.6053 14.8472 15.2749 13.8861 16.1221 13.0855C16.9474 12.2533 17.9391 11.5945 19.0361 11.15C20.1331 10.7054 21.3118 10.4845 22.4999 10.5008C23.688 10.4845 24.8669 10.7054 25.9639 11.15C27.0608 11.5945 28.0525 12.2533 28.8779 13.0855C29.725 13.8861 30.3947 14.8472 30.8455 15.9096C31.2962 16.972 31.5186 18.1131 31.4988 19.2624Z" fill="white"/>
</g>
</g>
</g>
<defs>
<clipPath id="clip0_39_6248">
<rect x="0.5" width="44" height="44" rx="22" fill="white"/>
</clipPath>
<clipPath id="clip1_39_6248">
<rect width="44" height="44" fill="white" transform="translate(0.5)"/>
</clipPath>
<clipPath id="clip2_39_6248">
<rect width="44" height="44" fill="white" transform="translate(0.5)"/>
</clipPath>
</defs>
</svg>
