<svg width="44" height="44" viewBox="0 0 44 44" fill="none" xmlns="http://www.w3.org/2000/svg">
<g clip-path="url(#clip0_34_1620)">
<g clip-path="url(#clip1_34_1620)">
<g clip-path="url(#clip2_34_1620)">
<path d="M44 22C44 9.84974 34.1503 0 22 0C9.84974 0 0 9.84974 0 22C0 34.1503 9.84974 44 22 44C34.1503 44 44 34.1503 44 22Z" fill="#C0A062"/>
<path d="M18.6254 19.2624C18.6371 18.3946 18.9963 17.5654 19.6267 16.9517C20.257 16.338 21.1086 15.9882 21.9999 15.9768C22.8914 15.9882 23.743 16.338 24.3732 16.9517C25.0035 17.5654 25.3629 18.3946 25.3745 19.2624C25.3629 20.1302 25.0035 20.9594 24.3732 21.5732C23.743 22.1869 22.8914 22.5366 21.9999 22.548C21.1086 22.5366 20.257 22.1869 19.6267 21.5732C18.9963 20.9594 18.6371 20.1302 18.6254 19.2624ZM21.9999 29.1192L26.4993 30.2144V26.8412C25.1424 27.6369 23.5838 28.0466 21.9999 28.024C20.4162 28.0466 18.8575 27.6369 17.5006 26.8412V30.2144M21.9999 12.6912C21.1136 12.6755 20.2332 12.8364 19.4131 13.1641C18.5928 13.4919 17.8502 13.9794 17.2306 14.5969C16.5896 15.2007 16.083 15.9266 15.7424 16.7292C15.4019 17.5318 15.2345 18.3941 15.2509 19.2624C15.2392 20.1252 15.4087 20.9812 15.7492 21.7779C16.0896 22.5746 16.5938 23.295 17.2306 23.8951C17.8473 24.5185 18.5886 25.0121 19.409 25.3456C20.2292 25.679 21.1111 25.8452 21.9999 25.8337C22.8889 25.8452 23.7707 25.679 24.591 25.3456C25.4113 25.0121 26.1526 24.5185 26.7693 23.8951C27.4061 23.295 27.9103 22.5746 28.2507 21.7779C28.5912 20.9812 28.7607 20.1252 28.749 19.2624C28.7654 18.3941 28.5981 17.5318 28.2575 16.7292C27.9169 15.9266 27.4104 15.2007 26.7693 14.5969C26.1498 13.9794 25.4072 13.4919 24.5869 13.1641C23.7667 12.8364 22.8863 12.6755 21.9999 12.6912ZM30.9988 19.2624C30.9747 20.3137 30.7577 21.3523 30.3576 22.329C29.9972 23.3228 29.4518 24.2435 28.749 25.0451V33.5L21.9999 31.3095L15.2509 33.5V25.0451C13.795 23.4532 12.9939 21.3939 13.0012 19.2624C12.9814 18.1131 13.2037 16.972 13.6545 15.9096C14.1053 14.8472 14.7749 13.8861 15.6221 13.0855C16.4474 12.2533 17.4391 11.5945 18.5361 11.15C19.6331 10.7054 20.8118 10.4845 21.9999 10.5008C23.188 10.4845 24.3669 10.7054 25.4639 11.15C26.5608 11.5945 27.5525 12.2533 28.3779 13.0855C29.225 13.8861 29.8947 14.8472 30.3455 15.9096C30.7962 16.972 31.0186 18.1131 30.9988 19.2624Z" fill="white"/>
</g>
</g>
</g>
<defs>
<clipPath id="clip0_34_1620">
<rect width="44" height="44" rx="22" fill="white"/>
</clipPath>
<clipPath id="clip1_34_1620">
<rect width="44" height="44" fill="white"/>
</clipPath>
<clipPath id="clip2_34_1620">
<rect width="44" height="44" fill="white"/>
</clipPath>
</defs>
</svg>
