<svg width="32" height="32" viewBox="0 0 32 32" fill="none" xmlns="http://www.w3.org/2000/svg">
<rect x="32" y="32" width="32" height="32" rx="16" transform="rotate(-180 32 32)" fill="url(#paint0_linear_39_7219)"/>
<g clip-path="url(#clip0_39_7219)">
<path d="M9.99996 15.0002H20L17 12.0002C17.0307 12.0683 16.9439 11.9487 17 12.0002C17.0006 12.0743 16.9692 11.9321 17 12.0002C16.9993 11.9261 16.9705 11.0688 17 11.0002C17.0295 10.9316 16.9449 11.0526 17 11.0002C17.055 10.9478 16.9279 11.0283 17 11.0002C17.072 10.9721 16.9221 10.9995 17 11.0002C17.0778 11.0008 16.9284 10.9709 17 11.0002C17.0715 11.0294 17.9459 10.9469 18 11.0002L22 15.0002C22.1099 15.1049 22 15.8521 22 16.0002C22.1099 15.8955 22 16.1482 22 16.0002L18 20.0002C17.8894 20.1019 17.1537 20.0015 17 20.0002C17.1087 20.1037 16.8462 19.9989 17 20.0002C16.8912 19.8967 17.0013 19.1466 17 19.0002C16.9986 18.8538 16.8931 19.1055 17 19.0002L20 16.0002H9.99996C9.84442 16.0002 9.10995 16.1049 8.99996 16.0002C8.99996 16.1482 8.88998 15.8955 8.99996 16.0002C8.99996 15.8521 8.88998 15.1049 8.99996 15.0002C9.10995 14.8955 9.84442 15.0002 9.99996 15.0002Z" fill="white"/>
</g>
<defs>
<linearGradient id="paint0_linear_39_7219" x1="32" y1="48" x2="89.3578" y2="48.0038" gradientUnits="userSpaceOnUse">
<stop stop-color="#DAC08F"/>
<stop offset="1" stop-color="#A98E45"/>
</linearGradient>
<clipPath id="clip0_39_7219">
<rect width="14" height="14" fill="white" transform="matrix(-1 0 0 1 23 9)"/>
</clipPath>
</defs>
</svg>
