<svg width="18" height="14" viewBox="0 0 18 14" fill="none" xmlns="http://www.w3.org/2000/svg">
<path d="M0.62862 13.1994C0.495929 13.1444 0.386625 13.0448 0.319628 12.9178C0.25263 12.7907 0.232154 12.6443 0.261745 12.5037C1.21049 7.70436 5.29362 4.38499 11.4999 3.34061V1.37499C11.4998 1.25483 11.5343 1.1372 11.5993 1.03617C11.6644 0.935135 11.7571 0.854991 11.8666 0.805331C11.976 0.755671 12.0974 0.738601 12.2162 0.756165C12.3351 0.773728 12.4464 0.825181 12.5367 0.904362L17.5367 5.27936C17.6039 5.33802 17.6577 5.41037 17.6945 5.49154C17.7314 5.57272 17.7505 5.66084 17.7505 5.74999C17.7505 5.83914 17.7314 5.92726 17.6945 6.00843C17.6577 6.0896 17.6039 6.16195 17.5367 6.22061L12.5367 10.5956C12.4464 10.6748 12.3351 10.7262 12.2162 10.7438C12.0974 10.7614 11.976 10.7443 11.8666 10.6946C11.7571 10.645 11.6644 10.5648 11.5993 10.4638C11.5343 10.3628 11.4998 10.2451 11.4999 10.125V8.26249C7.24425 8.42499 3.32175 10.2425 1.38549 12.9856C1.30352 13.1033 1.18329 13.1889 1.04529 13.2279C0.907282 13.2668 0.760034 13.2568 0.62862 13.1994Z" fill="#008189"/>
</svg>
