<svg width="41" height="41" viewBox="0 0 41 41" fill="none" xmlns="http://www.w3.org/2000/svg">
<rect width="41" height="41" rx="20.5" fill="black"/>
<path d="M31 23C30.2184 18.9953 27 19 27 19C25.6481 18.9008 24.3066 19.6602 23 20C24.0382 17.2446 23.119 16.0412 22 15C21.6601 14.6808 21.2856 14.3629 21 14V34C22.1558 30.4859 26 30 26 30C22.3176 29.268 22 26 22 26C22 21.7406 25.3774 20.7519 27 22C28.6226 23.2481 28.2985 25.5496 26 24C23.8369 22.5416 23.9881 25.3136 24 26C24 25.9677 24 26.0423 24 26C24 26.5173 24.8393 27.2458 27 27C31.5519 26.4816 31 23 31 23Z" fill="url(#paint0_linear_234_1528)"/>
<path d="M14.0001 8.00037H13.0001L14.0001 10.0004C13.3675 11.0501 12.5768 12.7145 12.0001 14.0004C11.6898 14.6921 11.1931 15.5459 11.0001 16.0004C10.9036 16.2221 11.0527 15.8729 11.0001 16.0004V17.0004L13.0001 18.0004C13.0911 17.9339 13.84 18.1145 14.0001 18.0004C14.317 17.772 14.5615 17.2886 15.0001 17.0004C15.3972 16.7326 15.5762 16.2222 16.0001 16.0004C15.8676 16.043 16.1237 15.936 16.0001 16.0004C16.1584 16.1237 16.8984 16.8264 17.0001 17.0004C17.0117 16.8431 17.0761 17.1381 17.0001 17.0004C16.9815 17.3684 16.3477 17.3187 16.0001 18.0004V19.0004C15.8653 19.2642 16.1536 18.7421 16.0001 19.0004C15.4146 19.9869 15.0516 21.9286 15.0001 24.0004C15.0001 24.0004 15.9377 24.1723 17.0001 25.0004C18.7314 26.3483 18.9968 27.9715 19.0001 28.0004V9.00037C17.6482 8.48382 15.92 7.80084 14.0001 8.00037Z" fill="url(#paint1_linear_234_1528)"/>
<defs>
<linearGradient id="paint0_linear_234_1528" x1="26.0105" y1="14" x2="26.0105" y2="34" gradientUnits="userSpaceOnUse">
<stop stop-color="#D4BE95"/>
<stop offset="1" stop-color="#A98A5C"/>
</linearGradient>
<linearGradient id="paint1_linear_234_1528" x1="14.9835" y1="7.96484" x2="14.9835" y2="28.0004" gradientUnits="userSpaceOnUse">
<stop stop-color="#008E98"/>
<stop offset="1" stop-color="#016D77"/>
</linearGradient>
</defs>
</svg>
