<svg width="42" height="42" viewBox="0 0 42 42" fill="none" xmlns="http://www.w3.org/2000/svg">
<g clip-path="url(#clip0_31_544)">
<path d="M36.2082 11.5008V39.293C36.2082 40.7859 34.9941 42 33.5012 42H8.49805C7.00508 42 5.79102 40.7859 5.79102 39.293V2.70703C5.79102 1.21406 7.00508 0 8.49805 0H24.7074L36.2082 11.5008Z" fill="#70A8E1"/>
<path d="M13.2236 21.0903H28.7768V22.8212H13.2236V21.0903Z" fill="white"/>
<path d="M13.2236 24.9458H28.7768V26.6767H13.2236V24.9458Z" fill="white"/>
<path d="M13.2236 28.8096H28.7768V30.5404H13.2236V28.8096Z" fill="white"/>
<path d="M13.2236 32.665H24.2896V34.3959H13.2236V32.665Z" fill="white"/>
<path opacity="0.19" d="M26.2744 11.066L36.2084 19.1133V11.55L30.5811 8.28516L26.2744 11.066Z" fill="#70A8E1"/>
<path d="M36.2088 11.5008H27.415C25.9221 11.5008 24.708 10.2867 24.708 8.79375V0L36.2088 11.5008Z" fill="#A6C5FA"/>
</g>
<defs>
<clipPath id="clip0_31_544">
<rect width="42" height="42" fill="white"/>
</clipPath>
</defs>
</svg>
