<svg width="16" height="16" viewBox="0 0 16 16" fill="none" xmlns="http://www.w3.org/2000/svg">
<path d="M14.6659 7.33306H2.94187L6.47054 3.8044C6.53421 3.7429 6.585 3.66933 6.61994 3.588C6.65488 3.50666 6.67327 3.41918 6.67404 3.33066C6.67481 3.24214 6.65794 3.15436 6.62442 3.07243C6.5909 2.99049 6.5414 2.91606 6.4788 2.85347C6.41621 2.79087 6.34177 2.74137 6.25984 2.70785C6.17791 2.67433 6.09013 2.65746 6.00161 2.65823C5.91309 2.659 5.82561 2.67739 5.74427 2.71233C5.66293 2.74727 5.58937 2.79806 5.52787 2.86173L0.861207 7.5284C0.736226 7.65341 0.666016 7.82295 0.666016 7.99973C0.666016 8.1765 0.736226 8.34604 0.861207 8.47106L5.52787 13.1377C5.65361 13.2592 5.82201 13.3264 5.99681 13.3248C6.17161 13.3233 6.33881 13.2532 6.46242 13.1296C6.58602 13.006 6.65614 12.8388 6.65766 12.664C6.65917 12.4892 6.59198 12.3208 6.47054 12.1951L2.94187 8.6664H14.6659C14.8427 8.6664 15.0123 8.59616 15.1373 8.47113C15.2623 8.34611 15.3325 8.17654 15.3325 7.99973C15.3325 7.82292 15.2623 7.65335 15.1373 7.52832C15.0123 7.4033 14.8427 7.33306 14.6659 7.33306Z" fill="#008189"/>
</svg>
