<svg xmlns="http://www.w3.org/2000/svg" viewBox="0 0 361.16 232.34">
  <defs>
    <style>
      .cls-1 {
        fill: #00939c;
        fill-rule: evenodd;
      }

      .cls-2 {
        fill: #c0a062;
      }

      .cls-3 {
        fill: #565656;
      }
    </style>
  </defs>
  <title>KC BLACK 1</title>
  <g id="Слой_2" data-name="Слой 2">
    <g id="Слой_1-2" data-name="Слой 1">
      <g>
        <path class="cls-1" d="M264.78,5.16C252.47.5,237.51-1.07,220,.73l-5.77.59,6.55,16.26c-5.77,9.47-12.41,23.29-17.67,34.89-2.83,6.24-5.29,11.9-7.05,16-.88,2-1.58,3.71-2.06,4.86l-.56,1.33-.14.35-.05.12-1.11,2.7,16.2,16.1,3-2.27.06,0,.25-.18,1-.71c.83-.6,2-1.47,3.46-2.5,2.89-2.06,6.77-4.77,10.77-7.37a118,118,0,0,1,11.24-6.63,22.73,22.73,0,0,1,3.51-1.45,14.33,14.33,0,0,1,3.59,4.06,7.27,7.27,0,0,1,.9,4.08c-.17,3.32-2,7.33-5.17,13.48l-.77,1.5c-1.23,2.38-2.6,4.67-4,7-5.34,8.9-11.21,18.69-11.68,37.38,0,0,12.7,4.47,22.39,11.94,15.79,12.16,17.88,27.59,17.91,27.85Z"/>
        <path class="cls-2" d="M277.16,232.34l.68-2.38c9.74-31.59,43.32-37.07,43.32-37.07-31-6.58-33.27-34.43-33.27-34.43,0-38.29,29.07-44.92,42.73-33.7s9.89,34.48-9.46,20.55c-18.21-13.11-17.91,6-17.81,12.17h0c0,.38,0,.71,0,1,0,4.65,7.35,13.79,25.54,11.58,38.31-4.64,31.85-34,31.85-34-6.58-36-32.84-35-32.84-35a97.87,97.87,0,0,0-33.83,3.27c8.74-24.77.8-32.64-8.62-42a81.6,81.6,0,0,1-7.91-9.21l-.39-.51Z"/>
        <path class="cls-3" d="M72.54,120.83,94.89,148H85.83L67.52,125.46l-8.73,7.93V148h-7.6V101.72h7.6v24.2L85,101.72H93.5Z"/>
        <path class="cls-3" d="M110.39,148.73c-7.61,0-12.63-3.1-12.63-9.19s5.09-9.52,14-10.51l8.67-1c3-.33,5.29-1.26,5.29-4,0-3.57-3.84-6.75-9.19-6.75-5.69,0-9.66,3.57-10.25,8.73l-7-.2c.79-6.94,7.14-12.36,17.52-12.36,9,0,16.33,4.1,16.33,12.56v12.3l1.52,9.72h-6.88l-1.18-9h-.47C124.87,145,118.85,148.73,110.39,148.73Zm3.37-3.57c7.07,0,12.1-4.36,12.1-11.1v-6.29h-.4c-.73,1.46-2.64,2.52-5.35,3l-7.28,1.05c-4.76.86-7.67,3.18-7.67,6.95S108.4,145.16,113.76,145.16Z"/>
        <path class="cls-3" d="M171.2,148H139.66v-4.23l23.41-25.39H139.86v-3.77h31.08v4l-23.41,25.59H171.2Z"/>
        <path class="cls-3" d="M27.7,213.18c-15.93,0-27.7-9.59-27.7-24.27,0-15.07,11.77-24.66,28.1-24.66,14.55,0,25.19,7.87,26,19.31l-7.53.33c-.86-9.13-8.2-15.54-18.85-15.54-11.43,0-20,8.33-20,20.17,0,12.16,8.53,20.23,20.16,20.23,10.45,0,18.38-6,19.31-15l7.07.33C53.42,205.38,42.71,213.18,27.7,213.18Z"/>
        <path class="cls-3" d="M82,177.8c8.92,0,14.34,5.76,14.34,15.21v18.85H89.08V193.94c0-7.47-3.84-11.9-10.25-11.9s-10.25,4.43-10.25,12v17.79H61.31v-47h7.27v23.21H69C70.3,181.77,75.26,177.8,82,177.8Z"/>
        <path class="cls-3" d="M141.48,195.13H110.14v.26c0,8.2,5.49,13.56,12.89,13.56,6.15,0,11.11-3.71,12.1-8.86l6.22.33c-1.13,7.4-8.8,12.76-18.78,12.76-11.31,0-19.84-6.94-19.84-17.85s8.33-18.19,19.71-18.19c11,0,19.1,6.75,19.1,16.4A14.72,14.72,0,0,1,141.48,195.13ZM122.3,180.38c-6.94,0-11.83,5.16-12.16,12.17l24.26-.2A11.71,11.71,0,0,0,122.3,180.38Z"/>
        <path class="cls-3" d="M164.61,213.11c-10.05,0-17.19-4.43-18.38-11.7l6.09-.6c.92,5.49,5.75,9.06,12.63,9.06,5.48,0,9.19-2.18,9.19-5.82,0-3-2.72-5.09-7.54-5.75l-6.88-.92c-8-.93-11.5-4.7-11.5-9.66,0-6.28,6.41-10.44,15.53-10.44,9.72,0,16,4.49,16.8,11.24l-6,.52c-.86-5.55-5.09-8.72-11.11-8.72-5.15,0-8.66,2.31-8.66,6,0,2.91,2.25,4.76,6.35,5.29l6.88.86c7.93,1,13.15,4.29,13.15,10.31C181.14,209.28,174.07,213.11,164.61,213.11Z"/>
        <path class="cls-3" d="M204.07,213.11c-10,0-17.2-4.43-18.38-11.7l6.08-.6c.92,5.49,5.75,9.06,12.63,9.06,5.48,0,9.19-2.18,9.19-5.82,0-3-2.71-5.09-7.54-5.75l-6.88-.92c-8-.93-11.5-4.7-11.5-9.66,0-6.28,6.41-10.44,15.54-10.44,9.72,0,16,4.49,16.79,11.24l-6,.52c-.86-5.55-5.09-8.72-11.1-8.72-5.16,0-8.67,2.31-8.67,6,0,2.91,2.25,4.76,6.35,5.29l6.88.86c7.93,1,13.16,4.29,13.16,10.31C220.6,209.28,213.52,213.11,204.07,213.11Z"/>
      </g>
    </g>
  </g>
</svg>
